{
.appVersion = "3414";
.formatVersion = 3;
DisplayStrings = (
a,
AOH,
ABCDEFGHIJKLMosseratNeoWowoe123aaOPQRSTUVWXY1eWewZabcdefghijklmnopqrstuvwxyz,
"AÁĂǍÂÄÀĀĄÅÃÆBCĆČÇĈDĎĐÐEÉĚȨÈĒĘẼFGǴĞǦĜĢĠHĦȞĤIÍĬǏÎÏİÌĪĮĨJĴKkaḰǨĶLĹĽḼĻŁMḾNŃŇŅÑOÓǑÔÖÒŐŌØÕŒPṔÞQRŔŘŖSŚŠŞŜȘẞTŦŤŢȚUÚŬǓÛÜÙŰŪŲŮVWXYÝŸZŹŽŻaáăǎâäàāąåãæbcćčçĉdđðeéěȩêëėèēęẽfgğǧĝģhħȟĥiıíǐîï/idotaccent ìīįjȷĵkǩķlĺľḽļłmḿnńňņñoóǒôöòőōøõœpþqrŕřŗsśšşŝșßtŧťţțuúŭǔûüùűūųůvwxyýÿzźžż",
"ģ",
"&",
"",
"",
C,
Words,
"Í",
"/bottom-hook Ԧ",
"А",
"",
"Ḩ",
"k/hook.up",
"ṉ",
AOH,
"₂",
"½",
"ķ",
"",
"̈ÜÄÏÖŸäëïöüÿЇӒӚӜӞӤӦӪӬӰӴӸёїӛӝӟӥӧӫӭӱӵӹΪΫϊϋ¨",
"Ű",
"ŮÅåů̥˚",
"",
"Ё",
"",
"",
"̣",
"̋",
"/invertedbrevecomb",
"Ł",
"Ħ",
G,
"̈",
"Ḩ",
"̧",
"̧Ḩ",
H,
"½1¼¾₁₂₃₄¹²³",
"½¼¾",
"AÁĂǍÂÄÀĀĄÅÃÆBCĆČÇĈDĎĐÐEÉĚȨÈĒĘẼFGǴĞǦĜĢĠHĦȞĤIÍĬǏÎÏİÌĪĮĨJĴKḰǨĶLĹĽḼĻŁMḾNŃŇŅÑOÓǑÔÖÒŐŌØÕŒPṔÞQRŔŘŖSŚŠŞŜȘẞTŦŤŢȚUÚŬǓÛÜÙŰŪŲŮVWXYÝŸZŹŽŻ",
"̨Ą",
"",
"̀Á",
"/caron.l LLLĽľľ",
"LLLĽllľ",
"Ľlľ",
"ľ",
"Ďdbdď",
"Ťtť",
"/caron.l ĽŤlľtť",
"ǵ",
"",
"",
"/commaaccentrotate",
"̀´/commaaccentrotate",
"ǵğģ/commaaccentrotate",
"̭̭Ḽ",
"̦̦Ļ",
"̭ḽ",
"̀EЕÈ̀Ѐ",
"ЀЕЕЕЕЕÈÈЀ",
"̀´Ќ",
"´Ќ",
"̀Ѐ",
"´Ќ",
"КЌ",
"̆АӐ",
"АӒ",
"ЕEӖ",
"ОOӦ",
"Ө",
"ЫӸbdl",
"еѐ",
"её",
"уyyў",
"ў",
"ҧ",
"ЕEЀ",
"aăӑ",
"äӓ",
"оӧ",
"уӯ",
"уӱ",
"уỳ̋ӳ",
"aӓ",
"΄Όό",
"ό",
"Ό´οo´ό",
"Όοoό",
"еӗ",
"ΩΩΩΩΩΏωώ",
".··",
"·",
"̂ˆ̂^",
"^",
"≈/approxequal.uc",
"̀`̏",
"̀̏",
"∛",
"ҥҵ",
"ңҥҵ",
"ЂҢHҤ",
"ҥ",
"#",
"da+−×÷=≠><≥≤±≈~+=t¬",
"≠",
"Ææ",
"΄Ώώ",
"",

glyphs = (
{
glyphname = A;
kernLeft = A;
kernRight = A;
lastChange = "2025-04-30 04:02:02 +0000";
layers = (
{
anchors = (
{
name = bottom;
pos = (646,0);
},
{
name = ogonek;
pos = (1261,0);
},
{
name = top;
pos = (645,1443);
},
{
name = topleft;
pos = (348,1443);
}
);
background = {
shapes = (
{
closed = 0;
nodes = (
(645,1622,l),
(645,-131,l)
);
}
);
};
layerId = "B1815A28-7A99-448B-912A-F8CD41C6863A";
shapes = (
{
closed = 1;
nodes = (
(642,1354,l),
(655,1354,l),
(655,1443,l),
(626,1443,l),
(0,0,l),
(53,0,l)
);
},
{
closed = 1;
nodes = (
(1289,0,l),
(661,1443,l),
(644,1443,l),
(644,1356,l),
(1236,0,l)
);
},
{
closed = 1;
nodes = (
(222,436,l),
(1071,436,l),
(1050,484,l),
(240,484,l)
);
}
);
width = 1289;
},
{
anchors = (
{
name = bottom;
pos = (702,0);
},
{
name = ogonek;
pos = (1310,0);
},
{
name = top;
pos = (702,1444);
},
{
name = topleft;
pos = (308,1443);
}
);
background = {
shapes = (
{
closed = 0;
nodes = (
(702,1622,l),
(702,-132,l)
);
}
);
};
layerId = "0A7ECE6A-DF67-46D8-8F43-1681A4AD540C";
shapes = (
{
closed = 1;
nodes = (
(698,1264,l),
(742,1264,l),
(742,1444,l),
(592,1444,l),
(0,0,l),
(192,0,l)
);
},
{
closed = 1;
nodes = (
(1408,0,l),
(810,1444,l),
(702,1444,l),
(702,1270,l),
(1216,0,l)
);
},
{
closed = 1;
nodes = (
(282,356,l),
(1126,356,l),
(1056,516,l),
(350,516,l)
);
}
);
width = 1408;
},
{
anchors = (
{
name = bottom;
pos = (784,0);
},
{
name = ogonek;
pos = (1340,0);
},
{
name = top;
pos = (784,1443);
},
{
name = topleft;
pos = (208,1443);
}
);
background = {
shapes = (
{
closed = 0;
nodes = (
(784,1622,l),
(784,-131,l)
);
}
);
};
layerId = "0CA926B8-BF71-483F-A045-F233B587689B";
shapes = (
{
closed = 1;
nodes = (
(775,959,l),
(828,959,l),
(818,1443,l),
(585,1443,l),
(0,0,l),
(429,0,l)
);
},
{
closed = 1;
nodes = (
(1567,0,l),
(980,1443,l),
(780,1443,l),
(790,965,l),
(1137,0,l)
);
},
{
closed = 1;
nodes = (
(392,216,l),
(1173,216,l),
(1061,506,l),
(502,506,l)
);
}
);
width = 1567;
},
{
anchors = (
{
name = bottom;
pos = (535,0);
},
{
name = ogonek;
pos = (1150,0);
},
{
name = top;
pos = (840,1443);
},
{
name = topleft;
pos = (543,1443);
}
);
background = {
shapes = (
{
closed = 0;
nodes = (
(683,1622,l),
(683,-131,l)
);
}
);
};
layerId = "6871CC57-2503-4E31-BAA0-540E82C15514";
shapes = (
{
closed = 1;
nodes = (
(822,1354,l),
(831,1354,l),
(850,1443,l),
(821,1443,l),
(-111,0,l),
(-54,0,l)
);
},
{
closed = 1;
nodes = (
(1178,0,l),
(856,1443,l),
(839,1443,l),
(825,1356,l),
(1129,0,l)
);
},
{
closed = 1;
nodes = (
(203,436,l),
(1052,436,l),
(1042,484,l),
(232,484,l)
);
}
);
width = 1289;
},
{
anchors = (
{
name = bottom;
pos = (591,0);
},
{
name = ogonek;
pos = (1199,0);
},
{
name = top;
pos = (897,1444);
},
{
name = topleft;
pos = (503,1443);
}
);
background = {
shapes = (
{
closed = 0;
nodes = (
(763,1622,l),
(763,-132,l)
);
}
);
};
layerId = "0655DA90-B56F-496E-8077-C2A69D96FC98";
shapes = (
{
closed = 1;
nodes = (
(865,1264,l),
(909,1264,l),
(937,1444,l),
(787,1444,l),
(-111,0,l),
(81,0,l)
);
},
{
closed = 1;
nodes = (
(1297,0,l),
(1005,1444,l),
(897,1444,l),
(870,1270,l),
(1115,0,l)
);
},
{
closed = 1;
nodes = (
(246,356,l),
(1090,356,l),
(1054,516,l),
(348,516,l)
);
}
);
width = 1408;
},
{
anchors = (
{
name = bottom;
pos = (627,0);
},
{
name = ogonek;
pos = (1223,0);
},
{
name = top;
pos = (933,1443);
},
{
name = topleft;
pos = (-13,1443);
}
);
background = {
shapes = (
{
closed = 0;
nodes = (
(780,1622,l),
(780,-131,l)
);
}
);
};
layerId = "F66262BA-5A1D-44F4-BFD7-97C08A9A14E5";
shapes = (
{
closed = 1;
nodes = (
(858,969,l),
(911,969,l),
(967,1443,l),
(734,1443,l),
(-117,0,l),
(352,0,l)
);
},
{
closed = 1;
nodes = (
(1370,0,l),
(1159,1443,l),
(929,1443,l),
(874,975,l),
(950,0,l)
);
},
{
closed = 1;
nodes = (
(276,196,l),
(1057,196,l),
(1009,466,l),
(450,466,l)
);
}
);
width = 1487;
}
);
unicode = 65;
},
{
glyphname = AE;
lastChange = "2025-05-08 08:14:36 +0000";
layers = (
{
anchors = (
{
name = bottom;
pos = (898,0);
},
{
name = top;
pos = (1298,1443);
}
);
layerId = "B1815A28-7A99-448B-912A-F8CD41C6863A";
shapes = (
{
closed = 1;
nodes = (
(717,1395,l),
(915,1395,l),
(915,1443,l),
(686,1443,l),
(0,0,l),
(52,0,l)
);
},
{
closed = 1;
nodes = (
(242,436,l),
(931,436,l),
(931,484,l),
(260,484,l)
);
},
{
closed = 1;
nodes = (
(1776,0,l),
(1776,48,l),
(958,48,l),
(958,716,l),
(1712,716,l),
(1712,764,l),
(958,764,l),
(958,1395,l),
(1776,1395,l),
(1776,1443,l),
(908,1443,l),
(908,0,l)
);
}
);
width = 1816;
},
{
anchors = (
{
name = bottom;
pos = (942,0);
},
{
name = top;
pos = (1305,1443);
}
);
layerId = "0A7ECE6A-DF67-46D8-8F43-1681A4AD540C";
shapes = (
{
closed = 1;
nodes = (
(705,1283,l),
(921,1283,l),
(921,1443,l),
(588,1443,l),
(0,0,l),
(191,0,l)
);
},
{
closed = 1;
nodes = (
(281,356,l),
(934,356,l),
(934,516,l),
(349,516,l)
);
},
{
closed = 1;
nodes = (
(1823,0,l),
(1823,160,l),
(1091,160,l),
(1091,650,l),
(1759,650,l),
(1759,810,l),
(1091,810,l),
(1091,1282,l),
(1823,1282,l),
(1823,1443,l),
(911,1443,l),
(911,0,l)
);
}
);
width = 1863;
},
{
anchors = (
{
name = bottom;
pos = (849,0);
},
{
name = top;
pos = (1485,1443);
}
);
layerId = "0CA926B8-BF71-483F-A045-F233B587689B";
shapes = (
{
closed = 1;
nodes = (
(838,1104,l),
(973,1104,l),
(973,1443,l),
(575,1443,l),
(0,0,l),
(439,0,l)
);
},
{
closed = 1;
nodes = (
(352,236,l),
(975,236,l),
(975,546,l),
(462,546,l)
);
},
{
closed = 1;
nodes = (
(1954,0,l),
(1954,340,l),
(1330,340,l),
(1330,571,l),
(1878,571,l),
(1878,881,l),
(1330,881,l),
(1330,1102,l),
(1930,1102,l),
(1930,1443,l),
(950,1443,l),
(950,0,l)
);
}
);
width = 1994;
},
{
anchors = (
{
name = bottom;
pos = (787,0);
},
{
name = top;
pos = (1493,1443);
}
);
layerId = "6871CC57-2503-4E31-BAA0-540E82C15514";
shapes = (
{
closed = 1;
nodes = (
(906,1395,l),
(1100,1395,l),
(1110,1443,l),
(881,1443,l),
(-111,0,l),
(-55,0,l)
);
},
{
closed = 1;
nodes = (
(223,436,l),
(912,436,l),
(923,484,l),
(252,484,l)
);
},
{
closed = 1;
nodes = (
(1665,0,l),
(1675,48,l),
(857,48,l),
(999,716,l),
(1753,716,l),
(1763,764,l),
(1009,764,l),
(1143,1395,l),
(1961,1395,l),
(1971,1443,l),
(1103,1443,l),
(797,0,l)
);
}
);
width = 1896;
},
{
anchors = (
{
name = bottom;
pos = (831,0);
},
{
name = top;
pos = (1500,1443);
}
);
layerId = "0655DA90-B56F-496E-8077-C2A69D96FC98";
shapes = (
{
closed = 1;
nodes = (
(886,1283,l),
(1082,1283,l),
(1116,1443,l),
(783,1443,l),
(-111,0,l),
(100,0,l)
);
},
{
closed = 1;
nodes = (
(245,356,l),
(898,356,l),
(932,516,l),
(347,516,l)
);
},
{
closed = 1;
nodes = (
(1712,0,l),
(1746,160,l),
(1014,160,l),
(1118,650,l),
(1786,650,l),
(1820,810,l),
(1152,810,l),
(1252,1282,l),
(1984,1282,l),
(2018,1443,l),
(1106,1443,l),
(800,0,l)
);
}
);
width = 1923;
},
{
anchors = (
{
name = bottom;
pos = (732,0);
},
{
name = top;
pos = (1674,1443);
}
);
layerId = "F66262BA-5A1D-44F4-BFD7-97C08A9A14E5";
shapes = (
{
closed = 1;
nodes = (
(985,1104,l),
(1090,1104,l),
(1162,1443,l),
(764,1443,l),
(-117,0,l),
(352,0,l)
);
},
{
closed = 1;
nodes = (
(285,236,l),
(908,236,l),
(974,546,l),
(461,546,l)
);
},
{
closed = 1;
nodes = (
(1837,0,l),
(1909,340,l),
(1285,340,l),
(1334,571,l),
(1882,571,l),
(1948,881,l),
(1400,881,l),
(1447,1102,l),
(2047,1102,l),
(2119,1443,l),
(1139,1443,l),
(833,0,l)
);
}
);
width = 2074;
}
);
metricLeft = A;
metricRight = E;
unicode = 198;
},
{
glyphname = B;
kernLeft = B;
kernRight = B;
lastChange = "2025-04-30 03:00:35 +0000";
layers = (
{
anchors = (
{
name = bottom;
pos = (550,0);
},
{
name = top;
pos = (550,1443);
},
{
name = tophook;
pos = (370,1443);
}
);
layerId = "B1815A28-7A99-448B-912A-F8CD41C6863A";
shapes = (
{
closed = 1;
nodes = (
(100,1443,l),
(100,0,l),
(150,0,l),
(150,1443,l)
);
},
{
closed = 1;
nodes = (
(134,732,l),
(684,732,ls),
(932,732,o),
(1087,600,o),
(1087,389,cs),
(1087,181,o),
(932,50,o),
(684,50,cs),
(134,50,l),
(134,0,l),
(686,0,ls),
(963,0,o),
(1137,150,o),
(1137,389,cs),
(1137,589,o),
(1010,734,o),
(807,764,c),
(807,767,l),
(950,809,o),
(1039,931,o),
(1039,1083,cs),
(1039,1304,o),
(880,1443,o),
(628,1443,cs),
(134,1443,l),
(134,1395,l),
(626,1395,ls),
(849,1395,o),
(989,1275,o),
(989,1083,cs),
(989,898,o),
(844,782,o),
(614,782,cs),
(134,782,l)
);
}
);
width = 1197;
},
{
anchors = (
{
name = bottom;
pos = (552,0);
},
{
name = top;
pos = (552,1443);
},
{
name = tophook;
pos = (389,1443);
}
);
layerId = "0A7ECE6A-DF67-46D8-8F43-1681A4AD540C";
shapes = (
{
closed = 1;
nodes = (
(100,1443,l),
(100,0,l),
(280,0,l),
(280,1443,l)
);
},
{
closed = 1;
nodes = (
(216,652,l),
(696,652,ls),
(872,652,o),
(989,555,o),
(989,409,cs),
(989,266,o),
(872,170,o),
(696,170,cs),
(216,170,l),
(216,0,l),
(688,0,ls),
(977,0,o),
(1169,164,o),
(1169,409,cs),
(1169,582,o),
(1056,718,o),
(887,749,c),
(887,757,l),
(1008,790,o),
(1089,912,o),
(1089,1061,cs),
(1089,1290,o),
(913,1443,o),
(648,1443,cs),
(216,1443,l),
(216,1273,l),
(636,1273,ls),
(800,1273,o),
(909,1188,o),
(909,1061,cs),
(909,918,o),
(800,822,o),
(636,822,cs),
(216,822,l)
);
}
);
width = 1229;
},
{
anchors = (
{
name = bottom;
pos = (651,0);
},
{
name = top;
pos = (651,1443);
},
{
name = tophook;
pos = (419,1443);
}
);
layerId = "0CA926B8-BF71-483F-A045-F233B587689B";
shapes = (
{
closed = 1;
nodes = (
(100,1443,l),
(100,0,l),
(510,0,l),
(510,1443,l)
);
},
{
closed = 1;
nodes = (
(308,585,l),
(768,585,ls),
(866,585,o),
(931,536,o),
(931,463,cs),
(931,377,o),
(866,320,o),
(768,320,cs),
(308,320,l),
(308,0,l),
(820,0,ls),
(1127,0,o),
(1331,158,o),
(1331,394,cs),
(1331,569,o),
(1215,707,o),
(1041,738,c),
(1041,754,l),
(1179,790,o),
(1271,916,o),
(1271,1068,cs),
(1271,1293,o),
(1083,1443,o),
(800,1443,cs),
(308,1443,l),
(308,1123,l),
(718,1123,ls),
(810,1123,o),
(871,1075,o),
(871,1003,cs),
(871,923,o),
(810,870,o),
(718,870,cs),
(308,870,l)
);
}
);
width = 1391;
},
{
anchors = (
{
name = bottom;
pos = (470,0);
},
{
name = top;
pos = (676,1443);
},
{
name = tophook;
pos = (496,1443);
}
);
layerId = "6871CC57-2503-4E31-BAA0-540E82C15514";
shapes = (
{
closed = 1;
nodes = (
(296,1443,l),
(-10,0,l),
(40,0,l),
(346,1443,l)
);
},
{
closed = 1;
nodes = (
(179,732,l),
(659,732,ls),
(907,732,o),
(1034,600,o),
(989,389,cs),
(945,181,o),
(762,50,o),
(514,50,cs),
(34,50,l),
(24,0,l),
(506,0,ls),
(783,0,o),
(989,150,o),
(1039,389,cs),
(1082,589,o),
(986,734,o),
(789,764,c),
(790,767,l),
(942,809,o),
(1057,931,o),
(1089,1083,cs),
(1136,1304,o),
(1006,1443,o),
(754,1443,cs),
(330,1443,l),
(320,1395,l),
(742,1395,ls),
(965,1395,o),
(1080,1275,o),
(1039,1083,cs),
(1000,898,o),
(830,782,o),
(600,782,cs),
(190,782,l)
);
}
);
width = 1127;
},
{
anchors = (
{
name = bottom;
pos = (512,0);
},
{
name = top;
pos = (748,1443);
},
{
name = tophook;
pos = (585,1443);
}
);
layerId = "0655DA90-B56F-496E-8077-C2A69D96FC98";
shapes = (
{
closed = 1;
nodes = (
(296,1443,l),
(-10,0,l),
(170,0,l),
(476,1443,l)
);
},
{
closed = 1;
nodes = (
(244,652,l),
(714,652,ls),
(894,652,o),
(987,558,o),
(956,409,cs),
(924,262,o),
(792,170,o),
(612,170,cs),
(142,170,l),
(106,0,l),
(568,0,ls),
(863,0,o),
(1082,158,o),
(1136,409,cs),
(1174,590,o),
(1066,721,o),
(856,749,c),
(858,757,l),
(1029,780,o),
(1159,897,o),
(1194,1061,cs),
(1244,1296,o),
(1105,1443,o),
(834,1443,cs),
(412,1443,l),
(376,1273,l),
(786,1273,ls),
(954,1273,o),
(1042,1191,o),
(1014,1061,cs),
(983,914,o),
(858,822,o),
(690,822,cs),
(280,822,l)
);
}
);
width = 1220;
},
{
anchors = (
{
name = bottom;
pos = (605,0);
},
{
name = top;
pos = (811,1443);
},
{
name = tophook;
pos = (579,1443);
}
);
layerId = "F66262BA-5A1D-44F4-BFD7-97C08A9A14E5";
shapes = (
{
closed = 1;
nodes = (
(290,1443,l),
(-16,0,l),
(394,0,l),
(700,1443,l)
);
},
{
closed = 1;
nodes = (
(316,585,l),
(746,585,ls),
(846,585,o),
(899,538,o),
(883,463,cs),
(864,375,o),
(790,320,o),
(690,320,cs),
(260,320,l),
(192,0,l),
(624,0,ls),
(969,0,o),
(1217,152,o),
(1268,394,cs),
(1313,603,o),
(1188,740,o),
(944,748,c),
(945,754,l),
(1156,763,o),
(1313,884,o),
(1352,1068,cs),
(1401,1298,o),
(1230,1443,o),
(910,1443,cs),
(498,1443,l),
(430,1123,l),
(810,1123,ls),
(904,1123,o),
(954,1077,o),
(938,1003,cs),
(920,921,o),
(851,870,o),
(757,870,cs),
(377,870,l)
);
}
);
width = 1361;
}
);
metricLeft = H;
metricRight = O;
unicode = 66;
},
{
glyphname = C;
kernLeft = round;
kernRight = round;
lastChange = "2025-04-30 03:00:35 +0000";
layers = (
{
anchors = (
{
name = bottom;
pos = (776,-10);
},
{
name = top;
pos = (776,1463);
}
);
layerId = "B1815A28-7A99-448B-912A-F8CD41C6863A";
shapes = (
{
closed = 1;
nodes = (
(68,292,o),
(368,-19,o),
(776,-19,cs),
(1097,-19,o),
(1365,178,o),
(1414,449,c),
(1366,461,l),
(1318,210,o),
(1070,29,o),
(776,29,cs),
(397,29,o),
(118,320,o),
(110,722,c),
(118,1124,o),
(397,1415,o),
(776,1415,cs),
(1069,1415,o),
(1317,1229,o),
(1366,972,c),
(1414,985,l),
(1364,1262,o),
(1096,1463,o),
(776,1463,cs),
(368,1463,o),
(68,1152,o),
(60,722,c)
);
}
);
width = 1474;
},
{
anchors = (
{
name = bottom;
pos = (775,-12);
},
{
name = top;
pos = (776,1463);
}
);
layerId = "0A7ECE6A-DF67-46D8-8F43-1681A4AD540C";
shapes = (
{
closed = 1;
nodes = (
(68,292,o),
(368,-19,o),
(776,-19,cs),
(1101,-19,o),
(1373,183,o),
(1424,463,c),
(1249,522,l),
(1203,307,o),
(1004,151,o),
(776,151,cs),
(478,151,o),
(258,391,o),
(251,722,c),
(258,1053,o),
(478,1293,o),
(776,1293,cs),
(1003,1293,o),
(1201,1141,o),
(1246,932,c),
(1424,981,l),
(1373,1261,o),
(1101,1463,o),
(776,1463,cs),
(368,1463,o),
(68,1152,o),
(60,722,c)
);
}
);
width = 1484;
},
{
anchors = (
{
name = bottom;
pos = (833,-24);
},
{
name = top;
pos = (833,1479);
}
);
background = {
shapes = (
{
closed = 0;
nodes = (
(1086,831,l),
(1286,905,l)
);
}
);
};
layerId = "0CA926B8-BF71-483F-A045-F233B587689B";
shapes = (
{
closed = 1;
nodes = (
(67,282,o),
(392,-36,o),
(833,-36,cs),
(1162,-36,o),
(1451,163,o),
(1522,438,c),
(1178,575,l),
(1143,418,o),
(998,304,o),
(833,304,cs),
(627,304,o),
(474,480,o),
(470,722,c),
(474,964,o),
(627,1139,o),
(833,1139,cs),
(984,1139,o),
(1121,1029,o),
(1158,878,c),
(1502,1015,l),
(1439,1284,o),
(1158,1479,o),
(833,1479,cs),
(392,1479,o),
(67,1161,o),
(60,721,c)
);
}
);
width = 1582;
},
{
anchors = (
{
name = bottom;
pos = (663,-10);
},
{
name = top;
pos = (977,1463);
}
);
layerId = "6871CC57-2503-4E31-BAA0-540E82C15514";
shapes = (
{
closed = 1;
nodes = (
(20,292,o),
(254,-19,o),
(661,-19,cs),
(982,-19,o),
(1292,178,o),
(1399,449,c),
(1354,461,l),
(1252,210,o),
(957,29,o),
(652,29,cs),
(286,29,o),
(76,320,o),
(153,722,c),
(246,1124,o),
(596,1415,o),
(986,1415,cs),
(1268,1415,o),
(1468,1229,o),
(1462,972,c),
(1513,985,l),
(1522,1262,o),
(1297,1463,o),
(977,1463,cs),
(569,1463,o),
(202,1152,o),
(103,722,c)
);
}
);
width = 1474;
},
{
anchors = (
{
name = bottom;
pos = (662,-12);
},
{
name = top;
pos = (977,1463);
}
);
layerId = "0655DA90-B56F-496E-8077-C2A69D96FC98";
shapes = (
{
closed = 1;
nodes = (
(20,292,o),
(254,-19,o),
(661,-19,cs),
(986,-19,o),
(1301,183,o),
(1412,463,c),
(1249,522,l),
(1158,307,o),
(918,151,o),
(678,151,cs),
(392,151,o),
(231,391,o),
(294,722,c),
(371,1053,o),
(651,1293,o),
(960,1293,cs),
(1176,1293,o),
(1333,1141,o),
(1334,932,c),
(1522,981,l),
(1531,1261,o),
(1302,1463,o),
(977,1463,cs),
(569,1463,o),
(202,1152,o),
(103,722,c)
);
}
);
width = 1484;
},
{
anchors = (
{
name = bottom;
pos = (711,-24);
},
{
name = top;
pos = (1030,1479);
}
);
background = {
shapes = (
{
closed = 0;
nodes = (
(1149,831,l),
(1349,905,l)
);
}
);
};
layerId = "F66262BA-5A1D-44F4-BFD7-97C08A9A14E5";
shapes = (
{
closed = 1;
nodes = (
(10,282,o),
(267,-36,o),
(708,-36,cs),
(1036,-36,o),
(1368,163,o),
(1498,438,c),
(1183,575,l),
(1114,418,o),
(936,304,o),
(760,304,cs),
(566,304,o),
(459,480,o),
(506,722,c),
(562,964,o),
(760,1139,o),
(978,1139,cs),
(1117,1139,o),
(1222,1029,o),
(1227,878,c),
(1600,1015,l),
(1595,1284,o),
(1356,1479,o),
(1030,1479,cs),
(588,1479,o),
(196,1161,o),
(96,721,c)
);
}
);
width = 1582;
}
);
metricLeft = O;
metricRight = O;
unicode = 67;
},
{
glyphname = D;
kernLeft = flat;
kernRight = round;
lastChange = "2025-04-30 03:00:35 +0000";
layers = (
{
anchors = (
{
name = bottom;
pos = (529,0);
},
{
name = center;
pos = (662,722);
},
{
name = top;
pos = (529,1443);
},
{
name = tophook;
pos = (329,1443);
}
);
layerId = "B1815A28-7A99-448B-912A-F8CD41C6863A";
shapes = (
{
closed = 1;
nodes = (
(150,0,l),
(150,1443,l),
(100,1443,l),
(100,0,l)
);
},
{
closed = 1;
nodes = (
(127,0,l),
(541,0,ls),
(984,0,o),
(1279,289,o),
(1279,723,cs),
(1279,1155,o),
(984,1443,o),
(541,1443,cs),
(127,1443,l),
(127,1395,l),
(541,1395,ls),
(954,1395,o),
(1229,1126,o),
(1229,723,cs),
(1229,318,o),
(954,48,o),
(541,48,cs),
(127,48,l)
);
}
);
width = 1339;
},
{
anchors = (
{
name = bottom;
pos = (538,0);
},
{
name = center;
pos = (641,722);
},
{
name = top;
pos = (538,1443);
},
{
name = tophook;
pos = (398,1443);
}
);
layerId = "0A7ECE6A-DF67-46D8-8F43-1681A4AD540C";
shapes = (
{
closed = 1;
nodes = (
(280,0,l),
(280,1443,l),
(100,1443,l),
(100,0,l)
);
},
{
closed = 1;
nodes = (
(191,0,l),
(586,0,ls),
(1029,0,o),
(1324,293,o),
(1324,733,cs),
(1324,1159,o),
(1025,1443,o),
(576,1443,cs),
(191,1443,l),
(191,1273,l),
(576,1273,ls),
(917,1273,o),
(1144,1057,o),
(1144,733,cs),
(1144,395,o),
(921,170,o),
(586,170,cs),
(191,170,l)
);
}
);
width = 1384;
},
{
anchors = (
{
name = bottom;
pos = (638,0);
},
{
name = center;
pos = (798,722);
},
{
name = top;
pos = (638,1443);
},
{
name = tophook;
pos = (398,1443);
}
);
layerId = "0CA926B8-BF71-483F-A045-F233B587689B";
shapes = (
{
closed = 1;
nodes = (
(510,0,l),
(510,1443,l),
(100,1443,l),
(100,0,l)
);
},
{
closed = 1;
nodes = (
(308,0,l),
(656,0,ls),
(1129,0,o),
(1444,293,o),
(1444,733,cs),
(1444,1159,o),
(1125,1443,o),
(646,1443,cs),
(308,1443,l),
(308,1093,l),
(646,1093,ls),
(879,1093,o),
(1034,943,o),
(1034,733,cs),
(1034,509,o),
(883,350,o),
(656,350,cs),
(308,350,l)
);
}
);
width = 1504;
},
{
anchors = (
{
name = bottom;
pos = (389,0);
},
{
name = center;
pos = (675,722);
},
{
name = top;
pos = (695,1443);
},
{
name = tophook;
pos = (495,1443);
}
);
layerId = "6871CC57-2503-4E31-BAA0-540E82C15514";
shapes = (
{
closed = 1;
nodes = (
(40,0,l),
(346,1443,l),
(296,1443,l),
(-10,0,l)
);
},
{
closed = 1;
nodes = (
(17,0,l),
(471,0,ls),
(900,0,o),
(1194,259,o),
(1292,723,cs),
(1391,1185,o),
(1188,1443,o),
(727,1443,cs),
(323,1443,l),
(313,1395,l),
(747,1395,ls),
(1157,1395,o),
(1334,1154,o),
(1242,723,cs),
(1150,290,o),
(870,48,o),
(461,48,cs),
(27,48,l)
);
}
);
width = 1309;
},
{
anchors = (
{
name = bottom;
pos = (409,0);
},
{
name = center;
pos = (665,722);
},
{
name = top;
pos = (715,1443);
},
{
name = tophook;
pos = (575,1443);
}
);
layerId = "0655DA90-B56F-496E-8077-C2A69D96FC98";
shapes = (
{
closed = 1;
nodes = (
(171,0,l),
(477,1443,l),
(296,1443,l),
(-8,0,l)
);
},
{
closed = 1;
nodes = (
(82,0,l),
(577,0,ls),
(974,0,o),
(1251,263,o),
(1350,733,cs),
(1447,1188,o),
(1233,1443,o),
(753,1443,cs),
(388,1443,l),
(352,1273,l),
(787,1273,ls),
(1107,1273,o),
(1244,1079,o),
(1170,733,cs),
(1094,372,o),
(876,170,o),
(563,170,cs),
(118,170,l)
);
}
);
width = 1365;
},
{
anchors = (
{
name = bottom;
pos = (523,0);
},
{
name = center;
pos = (836,722);
},
{
name = top;
pos = (829,1443);
},
{
name = tophook;
pos = (589,1443);
}
);
layerId = "F66262BA-5A1D-44F4-BFD7-97C08A9A14E5";
shapes = (
{
closed = 1;
nodes = (
(395,0,l),
(701,1443,l),
(290,1443,l),
(-14,0,l)
);
},
{
closed = 1;
nodes = (
(193,0,l),
(671,0,ls),
(1093,0,o),
(1385,263,o),
(1484,733,cs),
(1581,1188,o),
(1328,1443,o),
(777,1443,cs),
(499,1443,l),
(425,1093,l),
(773,1093,ls),
(997,1093,o),
(1124,964,o),
(1074,733,cs),
(1022,487,o),
(912,350,o),
(695,350,cs),
(267,350,l)
);
}
);
width = 1505;
}
);
metricLeft = H;
metricRight = O;
unicode = 68;
},
{
glyphname = Eth;
kernRight = D;
lastChange = "2025-05-09 07:46:59 +0000";
layers = (
{
layerId = "B1815A28-7A99-448B-912A-F8CD41C6863A";
shapes = (
{
closed = 1;
nodes = (
(-10,698,l),
(627,698,l),
(627,746,l),
(-10,746,l)
);
},
{
pos = (70,0);
ref = D;
}
);
width = 1409;
},
{
layerId = "0A7ECE6A-DF67-46D8-8F43-1681A4AD540C";
shapes = (
{
closed = 1;
nodes = (
(-20,647,l),
(617,647,l),
(617,797,l),
(-20,797,l)
);
},
{
pos = (20,0);
ref = D;
}
);
width = 1404;
},
{
layerId = "0CA926B8-BF71-483F-A045-F233B587689B";
shapes = (
{
closed = 1;
nodes = (
(-20,606,l),
(727,606,l),
(727,838,l),
(-20,838,l)
);
},
{
pos = (-34,0);
ref = D;
}
);
width = 1470;
},
{
layerId = "6871CC57-2503-4E31-BAA0-540E82C15514";
shapes = (
{
closed = 1;
nodes = (
(99,698,l),
(736,698,l),
(746,746,l),
(109,746,l)
);
},
{
pos = (184,0);
ref = D;
}
);
width = 1493;
},
{
layerId = "0655DA90-B56F-496E-8077-C2A69D96FC98";
shapes = (
{
closed = 1;
nodes = (
(87,647,l),
(724,647,l),
(756,797,l),
(119,797,l)
);
},
{
pos = (103,0);
ref = D;
}
);
width = 1468;
},
{
layerId = "F66262BA-5A1D-44F4-BFD7-97C08A9A14E5";
shapes = (
{
closed = 1;
nodes = (
(72,606,l),
(819,606,l),
(869,838,l),
(122,838,l)
);
},
{
pos = (63,0);
ref = D;
}
);
width = 1568;
}
);
metricLeft = hbar;
metricRight = D;
unicode = 208;
},
{
glyphname = E;
kernLeft = E;
kernRight = E;
lastChange = "2025-04-30 13:05:28 +0000";
layers = (
{
anchors = (
{
name = bottom;
pos = (568,0);
},
{
name = ogonek;
pos = (968,1);
},
{
name = top;
pos = (568,1443);
},
{
name = topleft;
pos = (-75,1443);
}
);
layerId = "B1815A28-7A99-448B-912A-F8CD41C6863A";
shapes = (
{
closed = 1;
nodes = (
(1058,0,l),
(1058,48,l),
(150,48,l),
(150,716,l),
(994,716,l),
(994,764,l),
(150,764,l),
(150,1395,l),
(1058,1395,l),
(1058,1443,l),
(100,1443,l),
(100,0,l)
);
}
);
width = 1098;
},
{
anchors = (
{
name = bottom;
pos = (586,0);
},
{
name = ogonek;
pos = (955,0);
},
{
name = top;
pos = (586,1443);
},
{
name = topleft;
pos = (-135,1443);
}
);
layerId = "0A7ECE6A-DF67-46D8-8F43-1681A4AD540C";
shapes = (
{
closed = 1;
nodes = (
(1062,0,l),
(1062,160,l),
(280,160,l),
(280,650,l),
(998,650,l),
(998,810,l),
(280,810,l),
(280,1282,l),
(1062,1282,l),
(1062,1442,l),
(100,1442,l),
(100,0,l)
);
}
);
width = 1102;
},
{
anchors = (
{
name = bottom;
pos = (635,0);
},
{
name = ogonek;
pos = (1035,1);
},
{
name = top;
pos = (635,1443);
},
{
name = topleft;
pos = (-202,1443);
}
);
layerId = "0CA926B8-BF71-483F-A045-F233B587689B";
shapes = (
{
closed = 1;
nodes = (
(1184,0,l),
(1184,350,l),
(510,350,l),
(510,571,l),
(1108,571,l),
(1108,881,l),
(510,881,l),
(510,1092,l),
(1160,1092,l),
(1160,1442,l),
(100,1442,l),
(100,0,l)
);
}
);
width = 1224;
},
{
anchors = (
{
name = bottom;
pos = (498,0);
},
{
name = ogonek;
pos = (858,1);
},
{
name = top;
pos = (764,1443);
},
{
name = topleft;
pos = (-149,1443);
}
);
layerId = "6871CC57-2503-4E31-BAA0-540E82C15514";
shapes = (
{
closed = 1;
nodes = (
(888,0,l),
(898,48,l),
(50,48,l),
(192,716,l),
(976,716,l),
(986,764,l),
(202,764,l),
(336,1395,l),
(1184,1395,l),
(1194,1443,l),
(296,1443,l),
(-10,0,l)
);
}
);
width = 1119;
},
{
anchors = (
{
name = bottom;
pos = (506,0);
},
{
name = ogonek;
pos = (845,0);
},
{
name = top;
pos = (782,1443);
},
{
name = topleft;
pos = (-249,1443);
}
);
layerId = "0655DA90-B56F-496E-8077-C2A69D96FC98";
shapes = (
{
closed = 1;
nodes = (
(932,0,l),
(966,160,l),
(204,160,l),
(308,650,l),
(1006,650,l),
(1040,810,l),
(342,810,l),
(442,1282,l),
(1204,1282,l),
(1238,1441,l),
(296,1443,l),
(-10,0,l)
);
}
);
width = 1143;
},
{
anchors = (
{
name = bottom;
pos = (569,0);
},
{
name = ogonek;
pos = (919,1);
},
{
name = top;
pos = (864,1443);
},
{
name = topleft;
pos = (-312,1443);
}
);
layerId = "F66262BA-5A1D-44F4-BFD7-97C08A9A14E5";
shapes = (
{
closed = 1;
nodes = (
(1068,0,l),
(1142,350,l),
(468,350,l),
(515,571,l),
(1113,571,l),
(1179,881,l),
(581,881,l),
(626,1092,l),
(1276,1092,l),
(1350,1441,l),
(290,1443,l),
(-16,0,l)
);
}
);
width = 1305;
}
);
metricLeft = H;
unicode = 69;
},
{
glyphname = F;
kernLeft = E;
kernRight = F;
lastChange = "2025-04-30 03:00:35 +0000";
layers = (
{
anchors = (
{
name = bottom;
pos = (493,0);
},
{
name = hook;
pos = (124,0);
},
{
name = top;
pos = (493,1443);
}
);
layerId = "B1815A28-7A99-448B-912A-F8CD41C6863A";
shapes = (
{
closed = 1;
nodes = (
(150,0,l),
(150,723,l),
(966,723,l),
(966,771,l),
(150,771,l),
(150,1395,l),
(1018,1395,l),
(1018,1443,l),
(100,1443,l),
(100,0,l)
);
}
);
width = 1058;
},
{
anchors = (
{
name = bottom;
pos = (533,0);
},
{
name = hook;
pos = (189,0);
},
{
name = top;
pos = (583,1443);
}
);
layerId = "0A7ECE6A-DF67-46D8-8F43-1681A4AD540C";
shapes = (
{
closed = 1;
nodes = (
(280,0,l),
(280,651,l),
(964,651,l),
(964,811,l),
(280,811,l),
(280,1273,l),
(1026,1273,l),
(1026,1443,l),
(100,1443,l),
(100,0,l)
);
}
);
width = 1066;
},
{
anchors = (
{
name = bottom;
pos = (692,0);
},
{
name = hook;
pos = (306,0);
},
{
name = top;
pos = (692,1443);
}
);
layerId = "0CA926B8-BF71-483F-A045-F233B587689B";
shapes = (
{
closed = 1;
nodes = (
(510,0,l),
(510,513,l),
(1098,513,l),
(1098,823,l),
(510,823,l),
(510,1093,l),
(1171,1093,l),
(1171,1443,l),
(100,1443,l),
(100,0,l)
);
}
);
width = 1211;
},
{
anchors = (
{
name = bottom;
pos = (383,0);
},
{
name = hook;
pos = (14,0);
},
{
name = top;
pos = (689,1443);
}
);
layerId = "6871CC57-2503-4E31-BAA0-540E82C15514";
shapes = (
{
closed = 1;
nodes = (
(40,0,l),
(193,723,l),
(929,723,l),
(940,771,l),
(204,771,l),
(336,1395,l),
(1124,1395,l),
(1134,1443,l),
(296,1443,l),
(-10,0,l)
);
}
);
width = 1058;
},
{
anchors = (
{
name = bottom;
pos = (423,0);
},
{
name = hook;
pos = (79,0);
},
{
name = top;
pos = (779,1443);
}
);
layerId = "0655DA90-B56F-496E-8077-C2A69D96FC98";
shapes = (
{
closed = 1;
nodes = (
(170,0,l),
(308,651,l),
(972,651,l),
(1006,811,l),
(342,811,l),
(440,1273,l),
(1166,1273,l),
(1202,1443,l),
(296,1443,l),
(-10,0,l)
);
}
);
width = 1106;
},
{
anchors = (
{
name = bottom;
pos = (576,0);
},
{
name = hook;
pos = (177,0);
},
{
name = top;
pos = (882,1443);
}
);
layerId = "F66262BA-5A1D-44F4-BFD7-97C08A9A14E5";
shapes = (
{
closed = 1;
nodes = (
(394,0,l),
(503,513,l),
(1091,513,l),
(1157,823,l),
(569,823,l),
(626,1093,l),
(1287,1093,l),
(1361,1443,l),
(290,1443,l),
(-16,0,l)
);
}
);
width = 1292;
}
);
metricLeft = H;
metricRight = E;
unicode = 70;
},
{
glyphname = G;
kernLeft = round;
kernRight = round;
lastChange = "2025-04-30 03:00:35 +0000";
layers = (
{
anchors = (
{
name = bottom;
pos = (754,-7);
},
{
name = top;
pos = (744,1463);
}
);
layerId = "B1815A28-7A99-448B-912A-F8CD41C6863A";
shapes = (
{
closed = 1;
nodes = (
(794,684,l),
(1361,684,l),
(1375,283,o),
(1141,31,o),
(754,31,cs),
(358,31,o),
(110,292,o),
(110,708,cs),
(110,1142,o),
(358,1414,o),
(754,1414,cs),
(987,1414,o),
(1193,1303,o),
(1288,1127,c),
(1327,1152,l),
(1229,1343,o),
(1008,1463,o),
(754,1463,cs),
(328,1463,o),
(60,1172,o),
(60,708,cs),
(60,261,o),
(328,-19,o),
(754,-19,cs),
(1171,-19,o),
(1424,251,o),
(1412,681,c),
(1410,733,l),
(794,732,l)
);
}
);
width = 1472;
},
{
anchors = (
{
name = bottom;
pos = (794,-9);
},
{
name = top;
pos = (774,1463);
}
);
layerId = "0A7ECE6A-DF67-46D8-8F43-1681A4AD540C";
shapes = (
{
closed = 1;
nodes = (
(834,619,l),
(1301,619,l),
(1310,348,o),
(1097,151,o),
(794,151,cs),
(473,151,o),
(240,385,o),
(240,708,cs),
(240,1047,o),
(473,1293,o),
(794,1293,cs),
(977,1293,o),
(1172,1192,o),
(1258,1052,c),
(1397,1152,l),
(1304,1332,o),
(1051,1463,o),
(794,1463,cs),
(368,1463,o),
(60,1146,o),
(60,708,cs),
(60,286,o),
(368,-19,o),
(794,-19,cs),
(1203,-19,o),
(1492,257,o),
(1481,639,c),
(1481,790,l),
(834,790,l)
);
}
);
width = 1541;
},
{
anchors = (
{
name = bottom;
pos = (847,-25);
},
{
name = top;
pos = (827,1479);
}
);
layerId = "0CA926B8-BF71-483F-A045-F233B587689B";
shapes = (
{
closed = 1;
nodes = (
(860,541,l),
(1171,541,l),
(1176,402,o),
(1036,302,o),
(837,302,cs),
(624,302,o),
(470,476,o),
(470,717,cs),
(470,962,o),
(624,1139,o),
(837,1139,cs),
(978,1139,o),
(1118,1059,o),
(1171,948,c),
(1423,1197,l),
(1316,1361,o),
(1074,1479,o),
(847,1479,cs),
(389,1479,o),
(58,1159,o),
(60,717,cs),
(62,283,o),
(384,-34,o),
(827,-38,cs),
(1244,-39,o),
(1546,250,o),
(1546,651,cs),
(1546,839,l),
(860,839,l)
);
}
);
width = 1606;
},
{
anchors = (
{
name = bottom;
pos = (667,-7);
},
{
name = top;
pos = (939,1463);
}
);
layerId = "6871CC57-2503-4E31-BAA0-540E82C15514";
shapes = (
{
closed = 1;
nodes = (
(830,684,l),
(1397,684,l),
(1341,283,o),
(1059,31,o),
(665,31,cs),
(275,31,o),
(77,292,o),
(151,708,cs),
(227,1142,o),
(527,1414,o),
(929,1414,cs),
(1155,1414,o),
(1338,1303,o),
(1402,1127,c),
(1446,1152,l),
(1381,1343,o),
(1181,1463,o),
(928,1463,cs),
(501,1463,o),
(182,1172,o),
(101,708,cs),
(22,261,o),
(240,-19,o),
(666,-19,cs),
(1082,-19,o),
(1384,251,o),
(1448,681,c),
(1455,733,l),
(839,732,l)
);
}
);
width = 1476;
},
{
anchors = (
{
name = bottom;
pos = (686,-9);
},
{
name = top;
pos = (948,1463);
}
);
layerId = "0655DA90-B56F-496E-8077-C2A69D96FC98";
shapes = (
{
closed = 1;
nodes = (
(839,619,l),
(1286,619,l),
(1244,332,o),
(1016,151,o),
(696,151,cs),
(380,151,o),
(220,366,o),
(281,708,cs),
(344,1067,o),
(597,1293,o),
(938,1293,cs),
(1122,1293,o),
(1277,1204,o),
(1339,1062,c),
(1486,1152,l),
(1421,1343,o),
(1206,1463,o),
(928,1463,cs),
(501,1463,o),
(182,1172,o),
(101,708,cs),
(22,261,o),
(255,-19,o),
(706,-19,cs),
(1114,-19,o),
(1409,235,o),
(1470,639,c),
(1495,790,l),
(869,789,l)
);
}
);
width = 1506;
},
{
anchors = (
{
name = bottom;
pos = (750,-25);
},
{
name = top;
pos = (978,1479);
}
);
layerId = "F66262BA-5A1D-44F4-BFD7-97C08A9A14E5";
shapes = (
{
closed = 1;
nodes = (
(865,541,l),
(1166,541,l),
(1145,394,o),
(992,302,o),
(770,302,cs),
(563,302,o),
(461,462,o),
(506,717,cs),
(552,976,o),
(730,1139,o),
(968,1139,cs),
(1124,1139,o),
(1240,1077,o),
(1270,978,c),
(1544,1197,l),
(1460,1370,o),
(1242,1479,o),
(978,1479,cs),
(517,1479,o),
(177,1185,o),
(96,717,cs),
(17,257,o),
(281,-34,o),
(780,-38,cs),
(1192,-39,o),
(1497,227,o),
(1571,651,cs),
(1604,839,l),
(918,839,l)
);
}
);
width = 1610;
}
);
metricLeft = O;
metricRight = O;
unicode = 71;
},
{
glyphname = H;
kernLeft = H;
kernRight = H;
lastChange = "2025-04-30 07:50:43 +0000";
layers = (
{
anchors = (
{
name = bottom;
pos = (620,0);
},
{
name = center;
pos = (633,722);
},
{
name = hook;
pos = (1110,0);
},
{
name = top;
pos = (620,1443);
},
{
name = topleft;
pos = (-70,1443);
}
);
background = {
shapes = (
{
closed = 1;
nodes = (
(1002,-17,o),
(1277,289,o),
(1277,724,cs),
(1277,1158,o),
(1002,1463,o),
(610,1463,cs),
(223,1463,o),
(-49,1158,o),
(-49,724,cs),
(-49,289,o),
(223,-17,o),
(610,-17,cs)
);
},
{
closed = 1;
nodes = (
(252,33,o),
(1,318,o),
(1,724,cs),
(1,1129,o),
(252,1413,o),
(610,1413,cs),
(972,1413,o),
(1227,1129,o),
(1227,724,cs),
(1227,318,o),
(972,33,o),
(610,33,cs)
);
}
);
};
layerId = "B1815A28-7A99-448B-912A-F8CD41C6863A";
shapes = (
{
closed = 1;
nodes = (
(100,0,l),
(150,0,l),
(150,716,l),
(1085,716,l),
(1085,0,l),
(1135,0,l),
(1135,1443,l),
(1085,1443,l),
(1085,764,l),
(150,764,l),
(150,1443,l),
(100,1443,l)
);
}
);
width = 1235;
},
{
anchors = (
{
name = bottom;
pos = (669,0);
},
{
name = center;
pos = (603,722);
},
{
name = hook;
pos = (1135,0);
},
{
name = top;
pos = (669,1443);
},
{
name = topleft;
pos = (-151,1443);
}
);
background = {
shapes = (
{
closed = 1;
nodes = (
(1078,-20,o),
(1366,287,o),
(1366,724,cs),
(1366,1158,o),
(1078,1463,o),
(669,1463,cs),
(259,1463,o),
(-30,1158,o),
(-30,724,cs),
(-30,287,o),
(259,-20,o),
(669,-20,cs)
);
},
{
closed = 1;
nodes = (
(370,155,o),
(160,390,o),
(160,724,cs),
(160,1055,o),
(370,1288,o),
(669,1288,cs),
(967,1288,o),
(1176,1055,o),
(1176,724,cs),
(1176,390,o),
(967,155,o),
(669,155,cs)
);
}
);
};
layerId = "0A7ECE6A-DF67-46D8-8F43-1681A4AD540C";
shapes = (
{
closed = 1;
nodes = (
(100,0,l),
(280,0,l),
(280,655,l),
(1045,655,l),
(1045,0,l),
(1225,0,l),
(1225,1443,l),
(1045,1443,l),
(1045,815,l),
(280,815,l),
(280,1443,l),
(100,1443,l)
);
}
);
width = 1325;
},
{
anchors = (
{
name = bottom;
pos = (768,-1);
},
{
name = center;
pos = (765,722);
},
{
name = hook;
pos = (1225,0);
},
{
name = top;
pos = (768,1443);
},
{
name = topleft;
pos = (-212,1440);
}
);
background = {
shapes = (
{
closed = 1;
nodes = (
(1241,-37,o),
(1541,256,o),
(1541,723,cs),
(1541,1188,o),
(1241,1480,o),
(762,1480,cs),
(282,1480,o),
(-20,1188,o),
(-20,723,cs),
(-20,256,o),
(282,-37,o),
(762,-37,cs)
);
},
{
closed = 1;
nodes = (
(547,311,o),
(412,470,o),
(412,723,cs),
(412,974,o),
(547,1132,o),
(762,1132,cs),
(975,1132,o),
(1109,974,o),
(1109,723,cs),
(1109,470,o),
(975,311,o),
(762,311,cs)
);
}
);
};
layerId = "0CA926B8-BF71-483F-A045-F233B587689B";
shapes = (
{
closed = 1;
nodes = (
(100,0,l),
(510,0,l),
(510,546,l),
(1019,546,l),
(1019,-1,l),
(1429,-1,l),
(1429,1442,l),
(1019,1442,l),
(1019,896,l),
(510,896,l),
(510,1443,l),
(100,1443,l)
);
}
);
width = 1529;
},
{
anchors = (
{
name = bottom;
pos = (510,0);
},
{
name = center;
pos = (676,722);
},
{
name = hook;
pos = (1000,0);
},
{
name = top;
pos = (816,1443);
},
{
name = topleft;
pos = (126,1443);
}
);
background = {
shapes = (
{
closed = 1;
nodes = (
(1275,-17,o),
(1550,289,o),
(1550,724,cs),
(1550,1158,o),
(1275,1463,o),
(883,1463,cs),
(496,1463,o),
(224,1158,o),
(224,724,cs),
(224,289,o),
(496,-17,o),
(883,-17,cs)
);
},
{
closed = 1;
nodes = (
(525,33,o),
(274,318,o),
(274,724,cs),
(274,1129,o),
(525,1413,o),
(883,1413,cs),
(1245,1413,o),
(1500,1129,o),
(1500,724,cs),
(1500,318,o),
(1245,33,o),
(883,33,cs)
);
}
);
};
layerId = "6871CC57-2503-4E31-BAA0-540E82C15514";
shapes = (
{
closed = 1;
nodes = (
(-10,0,l),
(40,0,l),
(192,716,l),
(1127,716,l),
(975,0,l),
(1025,0,l),
(1331,1443,l),
(1281,1443,l),
(1137,764,l),
(202,764,l),
(346,1443,l),
(296,1443,l)
);
}
);
width = 1236;
},
{
anchors = (
{
name = bottom;
pos = (559,0);
},
{
name = center;
pos = (646,722);
},
{
name = hook;
pos = (1025,0);
},
{
name = top;
pos = (865,1443);
},
{
name = topleft;
pos = (45,1443);
}
);
background = {
shapes = (
{
closed = 1;
nodes = (
(1244,-20,o),
(1532,287,o),
(1532,724,cs),
(1532,1158,o),
(1244,1463,o),
(835,1463,cs),
(425,1463,o),
(136,1158,o),
(136,724,cs),
(136,287,o),
(425,-20,o),
(835,-20,cs)
);
},
{
closed = 1;
nodes = (
(536,155,o),
(326,390,o),
(326,724,cs),
(326,1055,o),
(536,1288,o),
(835,1288,cs),
(1133,1288,o),
(1342,1055,o),
(1342,724,cs),
(1342,390,o),
(1133,155,o),
(835,155,cs)
);
}
);
};
layerId = "0655DA90-B56F-496E-8077-C2A69D96FC98";
shapes = (
{
closed = 1;
nodes = (
(-10,0,l),
(170,0,l),
(309,655,l),
(1074,655,l),
(935,0,l),
(1115,0,l),
(1421,1443,l),
(1241,1443,l),
(1108,815,l),
(343,815,l),
(476,1443,l),
(296,1443,l)
);
}
);
width = 1326;
},
{
anchors = (
{
name = bottom;
pos = (652,-1);
},
{
name = center;
pos = (802,722);
},
{
name = hook;
pos = (1109,0);
},
{
name = top;
pos = (958,1443);
},
{
name = topleft;
pos = (-22,1440);
}
);
background = {
shapes = (
{
closed = 1;
nodes = (
(1375,-37,o),
(1675,256,o),
(1675,723,cs),
(1675,1188,o),
(1375,1480,o),
(896,1480,cs),
(416,1480,o),
(114,1188,o),
(114,723,cs),
(114,256,o),
(416,-37,o),
(896,-37,cs)
);
},
{
closed = 1;
nodes = (
(681,311,o),
(546,470,o),
(546,723,cs),
(546,974,o),
(681,1132,o),
(896,1132,cs),
(1109,1132,o),
(1243,974,o),
(1243,723,cs),
(1243,470,o),
(1109,311,o),
(896,311,cs)
);
}
);
};
layerId = "F66262BA-5A1D-44F4-BFD7-97C08A9A14E5";
shapes = (
{
closed = 1;
nodes = (
(-16,0,l),
(394,0,l),
(510,546,l),
(1019,546,l),
(903,-1,l),
(1313,-1,l),
(1619,1442,l),
(1209,1442,l),
(1093,896,l),
(584,896,l),
(700,1443,l),
(290,1443,l)
);
}
);
width = 1530;
}
);
unicode = 72;
},
{
glyphname = Hbar;
kernLeft = H;
kernRight = H;
lastChange = "2025-04-30 07:34:10 +0000";
layers = (
{
layerId = "B1815A28-7A99-448B-912A-F8CD41C6863A";
shapes = (
{
closed = 1;
nodes = (
(40,1107,l),
(1223,1107,l),
(1223,1154,l),
(40,1154,l)
);
},
{
pos = (14,0);
ref = H;
}
);
width = 1263;
},
{
layerId = "0A7ECE6A-DF67-46D8-8F43-1681A4AD540C";
shapes = (
{
closed = 1;
nodes = (
(40,1097,l),
(1383,1097,l),
(1383,1247,l),
(40,1247,l)
);
},
{
pos = (49,0);
ref = H;
}
);
width = 1423;
},
{
layerId = "0CA926B8-BF71-483F-A045-F233B587689B";
shapes = (
{
closed = 1;
nodes = (
(20,1053,l),
(1579,1053,l),
(1579,1305,l),
(20,1305,l)
);
},
{
pos = (35,0);
ref = H;
}
);
width = 1599;
},
{
layerId = "6871CC57-2503-4E31-BAA0-540E82C15514";
shapes = (
{
closed = 1;
nodes = (
(165,1107,l),
(1348,1107,l),
(1358,1154,l),
(175,1154,l)
);
},
{
pos = (18,0);
ref = H;
}
);
width = 1263;
},
{
layerId = "0655DA90-B56F-496E-8077-C2A69D96FC98";
shapes = (
{
closed = 1;
nodes = (
(163,1097,l),
(1506,1097,l),
(1538,1247,l),
(195,1247,l)
);
},
{
pos = (49,0);
ref = H;
}
);
width = 1423;
},
{
layerId = "F66262BA-5A1D-44F4-BFD7-97C08A9A14E5";
shapes = (
{
closed = 1;
nodes = (
(147,1053,l),
(1706,1053,l),
(1760,1305,l),
(201,1305,l)
);
},
{
pos = (53,0);
ref = H;
}
);
width = 1640;
}
);
tags = (
topbar
);
unicode = 294;
},
{
glyphname = I;
lastChange = "2025-04-30 03:00:35 +0000";
layers = (
{
anchors = (
{
name = bottom;
pos = (125,0);
},
{
name = ogonek;
pos = (121,1);
},
{
name = top;
pos = (125,1443);
},
{
name = topleft;
pos = (-60,1443);
}
);
layerId = "B1815A28-7A99-448B-912A-F8CD41C6863A";
shapes = (
{
closed = 1;
nodes = (
(150,0,l),
(150,1443,l),
(100,1443,l),
(100,0,l)
);
}
);
width = 250;
},
{
anchors = (
{
name = bottom;
pos = (194,0);
},
{
name = ogonek;
pos = (190,1);
},
{
name = top;
pos = (194,1443);
},
{
name = topleft;
pos = (-141,1443);
}
);
layerId = "0A7ECE6A-DF67-46D8-8F43-1681A4AD540C";
shapes = (
{
closed = 1;
nodes = (
(280,0,l),
(280,1443,l),
(100,1443,l),
(100,0,l)
);
}
);
width = 380;
},
{
anchors = (
{
name = bottom;
pos = (304,0);
},
{
name = ogonek;
pos = (313,4);
},
{
name = top;
pos = (305,1443);
},
{
name = topleft;
pos = (-207,1442);
}
);
layerId = "0CA926B8-BF71-483F-A045-F233B587689B";
shapes = (
{
closed = 1;
nodes = (
(510,0,l),
(510,1443,l),
(100,1443,l),
(100,0,l)
);
}
);
width = 610;
},
{
anchors = (
{
name = bottom;
pos = (15,0);
},
{
name = ogonek;
pos = (11,1);
},
{
name = top;
pos = (321,1443);
},
{
name = topleft;
pos = (-154,1443);
}
);
layerId = "6871CC57-2503-4E31-BAA0-540E82C15514";
shapes = (
{
closed = 1;
nodes = (
(40,0,l),
(346,1443,l),
(296,1443,l),
(-10,0,l)
);
}
);
width = 251;
},
{
anchors = (
{
name = bottom;
pos = (84,0);
},
{
name = ogonek;
pos = (80,1);
},
{
name = top;
pos = (390,1443);
},
{
name = topleft;
pos = (-245,1443);
}
);
layerId = "0655DA90-B56F-496E-8077-C2A69D96FC98";
shapes = (
{
closed = 1;
nodes = (
(170,0,l),
(476,1443,l),
(296,1443,l),
(-10,0,l)
);
}
);
width = 381;
},
{
anchors = (
{
name = bottom;
pos = (188,0);
},
{
name = ogonek;
pos = (197,4);
},
{
name = top;
pos = (495,1443);
},
{
name = topleft;
pos = (-387,1442);
}
);
layerId = "F66262BA-5A1D-44F4-BFD7-97C08A9A14E5";
shapes = (
{
closed = 1;
nodes = (
(394,0,l),
(700,1443,l),
(290,1443,l),
(-16,0,l)
);
}
);
width = 611;
}
);
metricLeft = H;
metricRight = H;
unicode = 73;
},
{
glyphname = J;
kernLeft = J;
kernRight = U;
lastChange = "2025-04-30 03:00:35 +0000";
layers = (
{
anchors = (
{
name = bottom;
pos = (329,0);
},
{
name = top;
pos = (564,1443);
}
);
layerId = "B1815A28-7A99-448B-912A-F8CD41C6863A";
shapes = (
{
closed = 1;
nodes = (
(587,1443,l),
(537,1443,l),
(537,264,ls),
(537,125,o),
(441,34,o),
(287,28,cs),
(206,28,o),
(103,56,o),
(18,101,c),
(0,53,l),
(94,8,o),
(204,-20,o),
(285,-20,cs),
(471,-20,o),
(587,90,o),
(587,265,cs)
);
}
);
width = 687;
},
{
anchors = (
{
name = bottom;
pos = (363,0);
},
{
name = top;
pos = (636,1443);
}
);
layerId = "0A7ECE6A-DF67-46D8-8F43-1681A4AD540C";
shapes = (
{
closed = 1;
nodes = (
(727,1443,l),
(547,1443,l),
(547,344,ls),
(547,232,o),
(472,155,o),
(359,151,cs),
(264,151,o),
(153,198,o),
(80,269,c),
(-20,133,l),
(70,42,o),
(220,-19,o),
(355,-19,cs),
(578,-19,o),
(727,115,o),
(727,315,cs)
);
}
);
width = 827;
},
{
anchors = (
{
name = bottom;
pos = (328,0);
},
{
name = top;
pos = (678,1443);
}
);
layerId = "0CA926B8-BF71-483F-A045-F233B587689B";
shapes = (
{
closed = 1;
nodes = (
(873,1443,l),
(463,1443,l),
(463,489,ls),
(463,398,o),
(396,336,o),
(295,333,cs),
(224,333,o),
(139,364,o),
(81,411,c),
(-20,100,l),
(58,20,o),
(223,-34,o),
(391,-34,cs),
(680,-34,o),
(873,140,o),
(873,400,cs)
);
}
);
width = 973;
},
{
anchors = (
{
name = bottom;
pos = (219,0);
},
{
name = top;
pos = (760,1443);
}
);
layerId = "6871CC57-2503-4E31-BAA0-540E82C15514";
shapes = (
{
closed = 1;
nodes = (
(783,1443,l),
(733,1443,l),
(483,264,ls),
(453,125,o),
(338,34,o),
(183,28,cs),
(102,28,o),
(5,56,o),
(-71,101,c),
(-99,53,l),
(-15,8,o),
(90,-20,o),
(171,-20,cs),
(357,-20,o),
(496,90,o),
(533,265,cs)
);
}
);
width = 687;
},
{
anchors = (
{
name = bottom;
pos = (253,0);
},
{
name = top;
pos = (832,1443);
}
);
layerId = "0655DA90-B56F-496E-8077-C2A69D96FC98";
shapes = (
{
closed = 1;
nodes = (
(923,1443,l),
(743,1443,l),
(510,344,ls),
(486,232,o),
(395,155,o),
(281,151,cs),
(186,151,o),
(85,198,o),
(27,269,c),
(-102,133,l),
(-31,42,o),
(106,-19,o),
(241,-19,cs),
(464,-19,o),
(641,115,o),
(684,315,cs)
);
}
);
width = 828;
},
{
anchors = (
{
name = bottom;
pos = (210,0);
},
{
name = top;
pos = (867,1443);
}
);
layerId = "F66262BA-5A1D-44F4-BFD7-97C08A9A14E5";
shapes = (
{
closed = 1;
nodes = (
(1062,1443,l),
(652,1443,l),
(449,489,ls),
(430,398,o),
(350,336,o),
(248,333,cs),
(177,333,o),
(99,364,o),
(51,411,c),
(-116,100,l),
(-55,20,o),
(98,-34,o),
(266,-34,cs),
(555,-34,o),
(785,140,o),
(840,400,cs)
);
}
);
width = 972;
}
);
metricRight = H;
unicode = 74;
},
{
glyphname = K;
kernLeft = K;
kernRight = K;
lastChange = "2025-04-30 03:00:35 +0000";
layers = (
{
anchors = (
{
name = bottom;
pos = (602,0);
},
{
name = top;
pos = (561,1403);
},
{
name = topbar;
pos = (140,1200);
}
);
layerId = "B1815A28-7A99-448B-912A-F8CD41C6863A";
shapes = (
{
closed = 1;
nodes = (
(308,678,l),
(1060,1443,l),
(993,1443,l),
(285,726,l),
(146,726,l),
(146,678,l)
);
},
{
closed = 1;
nodes = (
(150,0,l),
(150,1443,l),
(100,1443,l),
(100,0,l)
);
},
{
closed = 1;
nodes = (
(1118,1,l),
(304,721,l),
(267,689,l),
(1047,1,l)
);
}
);
width = 1118;
},
{
anchors = (
{
name = bottom;
pos = (586,0);
},
{
name = top;
pos = (566,1403);
},
{
name = topbar;
pos = (200,1091);
}
);
layerId = "0A7ECE6A-DF67-46D8-8F43-1681A4AD540C";
shapes = (
{
closed = 1;
nodes = (
(394,631,l),
(1158,1443,l),
(927,1443,l),
(330,801,l),
(242,801,l),
(242,631,l)
);
},
{
closed = 1;
nodes = (
(280,0,l),
(280,1443,l),
(100,1443,l),
(100,0,l)
);
},
{
closed = 1;
nodes = (
(1202,0,l),
(403,827,l),
(324,672,l),
(973,0,l)
);
}
);
width = 1202;
},
{
anchors = (
{
name = bottom;
pos = (693,0);
},
{
name = top;
pos = (663,1443);
},
{
name = topbar;
pos = (300,1120);
}
);
layerId = "0CA926B8-BF71-483F-A045-F233B587689B";
shapes = (
{
closed = 1;
nodes = (
(734,521,l),
(1367,1443,l),
(900,1443,l),
(534,871,l),
(426,871,l),
(426,521,l)
);
},
{
closed = 1;
nodes = (
(500,0,l),
(500,1443,l),
(100,1443,l),
(100,0,l)
);
},
{
closed = 1;
nodes = (
(1392,1,l),
(860,798,l),
(537,592,l),
(919,1,l)
);
}
);
width = 1392;
},
{
anchors = (
{
name = bottom;
pos = (492,0);
},
{
name = top;
pos = (719,1403);
},
{
name = topbar;
pos = (285,1200);
}
);
layerId = "6871CC57-2503-4E31-BAA0-540E82C15514";
shapes = (
{
closed = 1;
nodes = (
(382,678,l),
(1256,1443,l),
(1189,1443,l),
(369,726,l),
(190,726,l),
(180,678,l)
);
},
{
closed = 1;
nodes = (
(40,0,l),
(346,1443,l),
(296,1443,l),
(-10,0,l)
);
},
{
closed = 1;
nodes = (
(1008,1,l),
(387,721,l),
(343,689,l),
(937,1,l)
);
}
);
width = 1118;
},
{
anchors = (
{
name = bottom;
pos = (476,0);
},
{
name = top;
pos = (734,1403);
},
{
name = topbar;
pos = (322,1091);
}
);
layerId = "0655DA90-B56F-496E-8077-C2A69D96FC98";
shapes = (
{
closed = 1;
nodes = (
(504,591,l),
(1349,1443,l),
(1123,1443,l),
(445,761,l),
(293,761,l),
(257,591,l)
);
},
{
closed = 1;
nodes = (
(170,0,l),
(476,1443,l),
(296,1443,l),
(-10,0,l)
);
},
{
closed = 1;
nodes = (
(1066,0,l),
(514,787,l),
(418,632,l),
(863,0,l)
);
}
);
width = 1177;
},
{
anchors = (
{
name = bottom;
pos = (577,0);
},
{
name = top;
pos = (853,1443);
},
{
name = topbar;
pos = (422,1120);
}
);
layerId = "F66262BA-5A1D-44F4-BFD7-97C08A9A14E5";
shapes = (
{
closed = 1;
nodes = (
(768,521,l),
(1577,1443,l),
(1090,1443,l),
(600,859,l),
(492,859,l),
(420,521,l)
);
},
{
closed = 1;
nodes = (
(384,0,l),
(690,1443,l),
(290,1443,l),
(-16,0,l)
);
},
{
closed = 1;
nodes = (
(1236,1,l),
(873,798,l),
(576,592,l),
(813,1,l)
);
}
);
width = 1387;
}
);
metricLeft = H;
metricRight = A;
unicode = 75;
},
{
glyphname = L;
kernLeft = flat;
kernRight = L;
lastChange = "2025-04-30 08:59:30 +0000";
layers = (
{
anchors = (
{
name = bottom;
pos = (551,0);
},
{
name = top;
pos = (127,1443);
},
{
name = topright;
pos = (588,1443);
}
);
layerId = "B1815A28-7A99-448B-912A-F8CD41C6863A";
shapes = (
{
closed = 1;
nodes = (
(100,0,l),
(993,0,l),
(993,48,l),
(150,48,l),
(150,1443,l),
(100,1443,l)
);
}
);
width = 1013;
},
{
anchors = (
{
name = bottom;
pos = (612,0);
},
{
name = top;
pos = (194,1443);
},
{
name = topright;
pos = (657,1443);
}
);
layerId = "0A7ECE6A-DF67-46D8-8F43-1681A4AD540C";
shapes = (
{
closed = 1;
nodes = (
(100,0,l),
(1043,0,l),
(1043,170,l),
(280,170,l),
(280,1443,l),
(100,1443,l)
);
}
);
width = 1063;
},
{
anchors = (
{
name = bottom;
pos = (617,0);
},
{
name = top;
pos = (304,1443);
},
{
name = topright;
pos = (868,1443);
}
);
layerId = "0CA926B8-BF71-483F-A045-F233B587689B";
shapes = (
{
closed = 1;
nodes = (
(100,0,l),
(1131,0,l),
(1131,350,l),
(510,350,l),
(510,1443,l),
(100,1443,l)
);
}
);
width = 1151;
},
{
anchors = (
{
name = bottom;
pos = (471,0);
},
{
name = top;
pos = (323,1443);
},
{
name = topright;
pos = (791,1443);
}
);
layerId = "6871CC57-2503-4E31-BAA0-540E82C15514";
shapes = (
{
closed = 1;
nodes = (
(-10,0,l),
(883,0,l),
(893,48,l),
(50,48,l),
(346,1443,l),
(296,1443,l)
);
}
);
width = 1014;
},
{
anchors = (
{
name = bottom;
pos = (502,0);
},
{
name = top;
pos = (390,1443);
},
{
name = topright;
pos = (849,1443);
}
);
layerId = "0655DA90-B56F-496E-8077-C2A69D96FC98";
shapes = (
{
closed = 1;
nodes = (
(-10,0,l),
(933,0,l),
(969,170,l),
(206,170,l),
(476,1443,l),
(296,1443,l)
);
}
);
width = 1064;
},
{
anchors = (
{
name = bottom;
pos = (531,0);
},
{
name = top;
pos = (494,1443);
},
{
name = topright;
pos = (1015,1443);
}
);
layerId = "F66262BA-5A1D-44F4-BFD7-97C08A9A14E5";
shapes = (
{
closed = 1;
nodes = (
(-16,0,l),
(1015,0,l),
(1089,350,l),
(468,350,l),
(700,1443,l),
(290,1443,l)
);
}
);
width = 1152;
}
);
metricLeft = H;
unicode = 76;
},
{
glyphname = Lslash;
kernLeft = L;
kernRight = L;
lastChange = "2025-05-09 07:46:59 +0000";
layers = (
{
layerId = "B1815A28-7A99-448B-912A-F8CD41C6863A";
shapes = (
{
closed = 1;
nodes = (
(-10,596,l),
(894,973,l),
(894,1025,l),
(-10,648,l)
);
},
{
pos = (11,0);
ref = L;
}
);
width = 1024;
},
{
layerId = "0A7ECE6A-DF67-46D8-8F43-1681A4AD540C";
shapes = (
{
closed = 1;
nodes = (
(-20,477,l),
(931,971,l),
(931,1155,l),
(-20,661,l)
);
},
{
pos = (34,0);
ref = L;
}
);
width = 1097;
},
{
layerId = "0CA926B8-BF71-483F-A045-F233B587689B";
shapes = (
{
closed = 1;
nodes = (
(-20,500,l),
(1068,955,l),
(1068,1223,l),
(-20,768,l)
);
},
{
pos = (-7,0);
ref = L;
}
);
width = 1144;
},
{
layerId = "6871CC57-2503-4E31-BAA0-540E82C15514";
shapes = (
{
closed = 1;
nodes = (
(77,596,l),
(1062,973,l),
(1073,1025,l),
(88,648,l)
);
},
{
pos = (144,0);
ref = L;
}
);
width = 1158;
},
{
layerId = "0655DA90-B56F-496E-8077-C2A69D96FC98";
shapes = (
{
closed = 1;
nodes = (
(72,574,l),
(1008,971,l),
(1047,1155,l),
(111,758,l)
);
},
{
pos = (88,0);
ref = L;
}
);
width = 1152;
},
{
layerId = "F66262BA-5A1D-44F4-BFD7-97C08A9A14E5";
shapes = (
{
closed = 1;
nodes = (
(49,500,l),
(1234,955,l),
(1291,1223,l),
(106,768,l)
);
},
{
pos = (139,0);
ref = L;
}
);
width = 1291;
}
);
metricLeft = hbar;
metricRight = L;
unicode = 321;
},
{
glyphname = M;
kernLeft = M;
kernRight = M;
lastChange = "2025-04-30 04:00:08 +0000";
layers = (
{
anchors = (
{
name = bottom;
pos = (812,0);
},
{
name = top;
pos = (812,1393);
}
);
background = {
shapes = (
{
closed = 0;
nodes = (
(812,1443,l),
(812,0,l)
);
},
{
closed = 1;
nodes = (
(-30,0,l),
(1659,0,l),
(1659,1443,l),
(-30,1443,l)
);
},
{
closed = 0;
nodes = (
(1659,722,l),
(-30,722,l)
);
},
{
closed = 0;
nodes = (
(1659,0,l),
(-30,1443,l)
);
},
{
closed = 0;
nodes = (
(-31,0,l),
(1659,1443,l)
);
}
);
};
layerId = "B1815A28-7A99-448B-912A-F8CD41C6863A";
shapes = (
{
closed = 1;
nodes = (
(100,0,l),
(150,0,l),
(150,1385,l),
(169,1385,l),
(137,1412,l),
(802,385,l),
(822,385,l),
(1492,1412,l),
(1452,1385,l),
(1480,1385,l),
(1480,0,l),
(1530,0,l),
(1530,1443,l),
(1454,1443,l),
(813,461,l),
(811,461,l),
(175,1443,l),
(100,1443,l)
);
}
);
width = 1630;
},
{
anchors = (
{
name = bottom;
pos = (836,0);
},
{
name = top;
pos = (835,1383);
}
);
background = {
shapes = (
{
closed = 0;
nodes = (
(835,1443,l),
(835,0,l)
);
},
{
closed = 1;
nodes = (
(-16,0,l),
(1691,0,l),
(1691,1443,l),
(-16,1443,l)
);
},
{
closed = 0;
nodes = (
(1691,722,l),
(-16,722,l)
);
},
{
closed = 0;
nodes = (
(1691,0,l),
(-16,1443,l)
);
},
{
closed = 0;
nodes = (
(-17,0,l),
(1691,1443,l)
);
}
);
};
layerId = "0A7ECE6A-DF67-46D8-8F43-1681A4AD540C";
shapes = (
{
closed = 1;
nodes = (
(100,0,l),
(280,0,l),
(280,1108,l),
(329,1108,l),
(137,1322,l),
(825,355,l),
(845,355,l),
(1532,1322,l),
(1332,1108,l),
(1391,1108,l),
(1391,0,l),
(1570,0,l),
(1570,1443,l),
(1391,1443,l),
(839,646,l),
(832,646,l),
(280,1443,l),
(100,1443,l)
);
}
);
width = 1670;
},
{
anchors = (
{
name = bottom;
pos = (919,0);
},
{
name = top;
pos = (918,1363);
}
);
background = {
shapes = (
{
closed = 0;
nodes = (
(918,1443,l),
(918,0,l)
);
},
{
closed = 1;
nodes = (
(0,0,l),
(1840,0,l),
(1840,1443,l),
(0,1443,l)
);
},
{
closed = 0;
nodes = (
(1840,722,l),
(0,722,l)
);
},
{
closed = 0;
nodes = (
(1840,0,l),
(0,1443,l)
);
},
{
closed = 0;
nodes = (
(-1,0,l),
(1840,1443,l)
);
}
);
};
layerId = "0CA926B8-BF71-483F-A045-F233B587689B";
shapes = (
{
closed = 1;
nodes = (
(100,0,l),
(500,0,l),
(500,914,l),
(636,914,l),
(251,1278,l),
(878,405,l),
(958,405,l),
(1585,1278,l),
(1208,910,l),
(1336,910,l),
(1336,0,l),
(1736,0,l),
(1736,1443,l),
(1311,1443,l),
(920,916,l),
(916,916,l),
(520,1443,l),
(100,1443,l)
);
}
);
width = 1836;
},
{
anchors = (
{
name = bottom;
pos = (708,0);
},
{
name = top;
pos = (708,1423);
}
);
background = {
shapes = (
{
closed = 0;
nodes = (
(708,1443,l),
(708,0,l)
);
},
{
closed = 1;
nodes = (
(-134,0,l),
(1555,0,l),
(1555,1443,l),
(-134,1443,l)
);
},
{
closed = 0;
nodes = (
(1555,722,l),
(-134,722,l)
);
},
{
closed = 0;
nodes = (
(1555,0,l),
(-134,1443,l)
);
},
{
closed = 0;
nodes = (
(-135,0,l),
(1555,1443,l)
);
}
);
};
layerId = "6871CC57-2503-4E31-BAA0-540E82C15514";
shapes = (
{
closed = 1;
nodes = (
(296,0,l),
(346,0,l),
(346,1393,l),
(365,1393,l),
(333,1432,l),
(678,549,l),
(738,549,l),
(1088,1412,l),
(1048,1377,l),
(1076,1377,l),
(1076,0,l),
(1126,0,l),
(1126,1443,l),
(1047,1443,l),
(709,606,l),
(707,606,l),
(382,1443,l),
(296,1443,l)
);
}
);
width = 1337;
},
{
anchors = (
{
name = bottom;
pos = (732,0);
},
{
name = top;
pos = (731,1443);
}
);
background = {
shapes = (
{
closed = 0;
nodes = (
(731,1443,l),
(731,0,l)
);
},
{
closed = 1;
nodes = (
(-120,0,l),
(1587,0,l),
(1587,1443,l),
(-120,1443,l)
);
},
{
closed = 0;
nodes = (
(1587,722,l),
(-120,722,l)
);
},
{
closed = 0;
nodes = (
(1587,0,l),
(-120,1443,l)
);
},
{
closed = 0;
nodes = (
(-121,0,l),
(1587,1443,l)
);
}
);
};
layerId = "0655DA90-B56F-496E-8077-C2A69D96FC98";
shapes = (
{
closed = 1;
nodes = (
(296,0,l),
(476,0,l),
(476,1118,l),
(525,1118,l),
(413,1382,l),
(651,305,l),
(811,305,l),
(1048,1382,l),
(928,1118,l),
(987,1118,l),
(987,0,l),
(1166,0,l),
(1166,1443,l),
(917,1443,l),
(735,526,l),
(728,526,l),
(546,1443,l),
(296,1443,l)
);
}
);
width = 1377;
},
{
anchors = (
{
name = bottom;
pos = (909,0);
},
{
name = top;
pos = (908,1443);
}
);
background = {
shapes = (
{
closed = 0;
nodes = (
(908,1443,l),
(908,0,l)
);
},
{
closed = 1;
nodes = (
(-10,0,l),
(1830,0,l),
(1830,1443,l),
(-10,1443,l)
);
},
{
closed = 0;
nodes = (
(1830,722,l),
(-10,722,l)
);
},
{
closed = 0;
nodes = (
(1830,0,l),
(-10,1443,l)
);
},
{
closed = 0;
nodes = (
(-11,0,l),
(1830,1443,l)
);
}
);
};
layerId = "F66262BA-5A1D-44F4-BFD7-97C08A9A14E5";
shapes = (
{
closed = 1;
nodes = (
(290,0,l),
(690,0,l),
(690,974,l),
(826,974,l),
(661,1278,l),
(788,425,l),
(1028,425,l),
(1155,1278,l),
(998,970,l),
(1126,970,l),
(1126,0,l),
(1526,0,l),
(1526,1443,l),
(1001,1443,l),
(910,896,l),
(906,896,l),
(810,1443,l),
(290,1443,l)
);
}
);
width = 1743;
},
{
anchors = (
{
name = bottom;
pos = (1012,0);
},
{
name = top;
pos = (1012,1393);
}
);
associatedMasterId = "B1815A28-7A99-448B-912A-F8CD41C6863A";
background = {
shapes = (
{
closed = 0;
nodes = (
(1012,1443,l),
(1012,0,l)
);
},
{
closed = 1;
nodes = (
(170,0,l),
(1859,0,l),
(1859,1443,l),
(170,1443,l)
);
},
{
closed = 0;
nodes = (
(1859,722,l),
(170,722,l)
);
},
{
closed = 0;
nodes = (
(1859,0,l),
(170,1443,l)
);
},
{
closed = 0;
nodes = (
(169,0,l),
(1859,1443,l)
);
}
);
};
layerId = "7DE7BCF3-949C-447B-AD0C-92B59DF47754";
name = "wght=100";
shapes = (
{
closed = 1;
nodes = (
(100,0,l),
(150,0,l),
(150,1385,l),
(169,1385,l),
(137,1412,l),
(1002,385,l),
(1022,385,l),
(1892,1412,l),
(1852,1385,l),
(1880,1385,l),
(1880,0,l),
(1930,0,l),
(1930,1443,l),
(1854,1443,l),
(1013,451,l),
(1011,451,l),
(175,1443,l),
(100,1443,l)
);
}
);
width = 2030;
},
{
anchors = (
{
name = bottom;
pos = (1036,0);
},
{
name = top;
pos = (1035,1383);
}
);
associatedMasterId = "B1815A28-7A99-448B-912A-F8CD41C6863A";
background = {
shapes = (
{
closed = 0;
nodes = (
(1035,1443,l),
(1035,0,l)
);
},
{
closed = 1;
nodes = (
(184,0,l),
(1891,0,l),
(1891,1443,l),
(184,1443,l)
);
},
{
closed = 0;
nodes = (
(1891,722,l),
(184,722,l)
);
},
{
closed = 0;
nodes = (
(1891,0,l),
(184,1443,l)
);
},
{
closed = 0;
nodes = (
(183,0,l),
(1891,1443,l)
);
}
);
};
layerId = "FDFC085D-FF36-47B0-851A-BD8C879DF7C5";
name = Regular;
shapes = (
{
closed = 1;
nodes = (
(100,0,l),
(280,0,l),
(280,1195,l),
(329,1195,l),
(137,1322,l),
(1025,355,l),
(1045,355,l),
(1932,1322,l),
(1732,1195,l),
(1791,1195,l),
(1791,0,l),
(1970,0,l),
(1970,1443,l),
(1791,1443,l),
(1039,616,l),
(1032,616,l),
(280,1443,l),
(100,1443,l)
);
}
);
width = 2070;
},
{
anchors = (
{
name = bottom;
pos = (1119,0);
},
{
name = top;
pos = (1118,1363);
}
);
associatedMasterId = "B1815A28-7A99-448B-912A-F8CD41C6863A";
background = {
shapes = (
{
closed = 0;
nodes = (
(1118,1443,l),
(1118,0,l)
);
},
{
closed = 1;
nodes = (
(200,0,l),
(2040,0,l),
(2040,1443,l),
(200,1443,l)
);
},
{
closed = 0;
nodes = (
(2040,722,l),
(200,722,l)
);
},
{
closed = 0;
nodes = (
(2040,0,l),
(200,1443,l)
);
},
{
closed = 0;
nodes = (
(199,0,l),
(2040,1443,l)
);
}
);
};
layerId = "CE5E8762-3CE4-4341-91B1-15078C500EF8";
name = "wght=1000";
shapes = (
{
closed = 1;
nodes = (
(100,0,l),
(500,0,l),
(500,948,l),
(636,948,l),
(251,1278,l),
(1078,225,l),
(1158,225,l),
(1985,1278,l),
(1608,944,l),
(1736,944,l),
(1736,0,l),
(2136,0,l),
(2136,1443,l),
(1711,1443,l),
(1120,706,l),
(1116,706,l),
(520,1443,l),
(100,1443,l)
);
}
);
width = 2236;
},
{
anchors = (
{
name = bottom;
pos = (372,0);
},
{
name = top;
pos = (674,1423);
}
);
associatedMasterId = "B1815A28-7A99-448B-912A-F8CD41C6863A";
background = {
shapes = (
{
closed = 0;
nodes = (
(525,1443,l),
(525,0,l)
);
},
{
closed = 1;
nodes = (
(-317,0,l),
(1372,0,l),
(1372,1443,l),
(-317,1443,l)
);
},
{
closed = 0;
nodes = (
(1372,722,l),
(-317,722,l)
);
},
{
closed = 0;
nodes = (
(1372,0,l),
(-317,1443,l)
);
},
{
closed = 0;
nodes = (
(-318,0,l),
(1372,1443,l)
);
}
);
};
layerId = "300C17E3-EA06-401F-867C-8F69B2DA68B5";
name = "wght=100, italic";
shapes = (
{
closed = 1;
nodes = (
(-40,0,l),
(10,0,l),
(306,1393,l),
(325,1393,l),
(301,1432,l),
(458,549,l),
(518,549,l),
(1052,1412,l),
(1004,1377,l),
(1032,1377,l),
(740,0,l),
(790,0,l),
(1096,1443,l),
(1017,1443,l),
(501,606,l),
(499,606,l),
(352,1443,l),
(266,1443,l)
);
}
);
width = 971;
},
{
anchors = (
{
name = bottom;
pos = (396,0);
},
{
name = top;
pos = (701,1443);
}
);
associatedMasterId = "B1815A28-7A99-448B-912A-F8CD41C6863A";
background = {
shapes = (
{
closed = 0;
nodes = (
(548,1443,l),
(548,0,l)
);
},
{
closed = 1;
nodes = (
(-303,0,l),
(1404,0,l),
(1404,1443,l),
(-303,1443,l)
);
},
{
closed = 0;
nodes = (
(1404,722,l),
(-303,722,l)
);
},
{
closed = 0;
nodes = (
(1404,0,l),
(-303,1443,l)
);
},
{
closed = 0;
nodes = (
(-304,0,l),
(1404,1443,l)
);
}
);
};
layerId = "EF892781-9B06-4D01-A3EC-01AF347AD647";
name = "Regular, italic";
shapes = (
{
closed = 1;
nodes = (
(-40,0,l),
(140,0,l),
(377,1118,l),
(426,1118,l),
(370,1382,l),
(422,505,l),
(582,505,l),
(1005,1382,l),
(829,1118,l),
(888,1118,l),
(651,0,l),
(830,0,l),
(1136,1443,l),
(887,1443,l),
(553,726,l),
(546,726,l),
(516,1443,l),
(266,1443,l)
);
}
);
width = 1011;
},
{
anchors = (
{
name = bottom;
pos = (573,0);
},
{
name = top;
pos = (878,1443);
}
);
associatedMasterId = "B1815A28-7A99-448B-912A-F8CD41C6863A";
background = {
shapes = (
{
closed = 0;
nodes = (
(725,1443,l),
(725,0,l)
);
},
{
closed = 1;
nodes = (
(-193,0,l),
(1647,0,l),
(1647,1443,l),
(-193,1443,l)
);
},
{
closed = 0;
nodes = (
(1647,722,l),
(-193,722,l)
);
},
{
closed = 0;
nodes = (
(1647,0,l),
(-193,1443,l)
);
},
{
closed = 0;
nodes = (
(-194,0,l),
(1647,1443,l)
);
}
);
};
layerId = "77632039-C6CA-48A4-B25B-65842203997B";
name = "wght=1000, italic";
shapes = (
{
closed = 1;
nodes = (
(-46,0,l),
(354,0,l),
(561,974,l),
(697,974,l),
(596,1278,l),
(542,425,l),
(782,425,l),
(1090,1278,l),
(868,970,l),
(996,970,l),
(790,0,l),
(1190,0,l),
(1496,1443,l),
(971,1443,l),
(764,896,l),
(760,896,l),
(780,1443,l),
(260,1443,l)
);
}
);
width = 1377;
},
{
anchors = (
{
name = bottom;
pos = (902,0);
},
{
name = top;
pos = (1198,1393);
}
);
associatedMasterId = "B1815A28-7A99-448B-912A-F8CD41C6863A";
background = {
shapes = (
{
closed = 0;
nodes = (
(1055,1443,l),
(1055,0,l)
);
},
{
closed = 1;
nodes = (
(213,0,l),
(1902,0,l),
(1902,1443,l),
(213,1443,l)
);
},
{
closed = 0;
nodes = (
(1902,722,l),
(213,722,l)
);
},
{
closed = 0;
nodes = (
(1902,0,l),
(213,1443,l)
);
},
{
closed = 0;
nodes = (
(212,0,l),
(1902,1443,l)
);
}
);
};
layerId = "1C1E573C-39A4-4FA7-B54E-DAD03913FDED";
name = "wght=100, italic";
shapes = (
{
closed = 1;
nodes = (
(-10,0,l),
(40,0,l),
(334,1385,l),
(353,1385,l),
(327,1412,l),
(1016,585,l),
(1036,585,l),
(2082,1412,l),
(2036,1385,l),
(2064,1385,l),
(1770,0,l),
(1820,0,l),
(2126,1443,l),
(2050,1443,l),
(1041,651,l),
(1039,651,l),
(371,1443,l),
(296,1443,l)
);
}
);
width = 2031;
},
{
anchors = (
{
name = bottom;
pos = (926,0);
},
{
name = top;
pos = (1219,1383);
}
);
associatedMasterId = "B1815A28-7A99-448B-912A-F8CD41C6863A";
background = {
shapes = (
{
closed = 0;
nodes = (
(1078,1443,l),
(1078,0,l)
);
},
{
closed = 1;
nodes = (
(227,0,l),
(1934,0,l),
(1934,1443,l),
(227,1443,l)
);
},
{
closed = 0;
nodes = (
(1934,722,l),
(227,722,l)
);
},
{
closed = 0;
nodes = (
(1934,0,l),
(227,1443,l)
);
},
{
closed = 0;
nodes = (
(226,0,l),
(1934,1443,l)
);
}
);
};
layerId = "04BDCAA3-7E10-4072-868D-58800A43E2F9";
name = "Regular, italic";
shapes = (
{
closed = 1;
nodes = (
(-10,0,l),
(170,0,l),
(434,1235,l),
(483,1235,l),
(318,1362,l),
(1059,585,l),
(1079,585,l),
(2099,1312,l),
(1872,1185,l),
(1931,1185,l),
(1681,0,l),
(1860,0,l),
(2166,1443,l),
(1987,1443,l),
(1102,816,l),
(1095,816,l),
(476,1443,l),
(296,1443,l)
);
}
);
width = 2071;
},
{
anchors = (
{
name = bottom;
pos = (1003,0);
},
{
name = top;
pos = (1291,1363);
}
);
associatedMasterId = "B1815A28-7A99-448B-912A-F8CD41C6863A";
background = {
shapes = (
{
closed = 0;
nodes = (
(1155,1443,l),
(1155,0,l)
);
},
{
closed = 1;
nodes = (
(237,0,l),
(2077,0,l),
(2077,1443,l),
(237,1443,l)
);
},
{
closed = 0;
nodes = (
(2077,722,l),
(237,722,l)
);
},
{
closed = 0;
nodes = (
(2077,0,l),
(237,1443,l)
);
},
{
closed = 0;
nodes = (
(236,0,l),
(2077,1443,l)
);
}
);
};
layerId = "0D58C4F1-387E-400B-B18C-0D263B9CAEE8";
name = "wght=1000, italic";
shapes = (
{
closed = 1;
nodes = (
(-16,0,l),
(384,0,l),
(598,1008,l),
(734,1008,l),
(406,1278,l),
(1052,425,l),
(1132,425,l),
(2140,1278,l),
(1705,1004,l),
(1833,1004,l),
(1620,0,l),
(2020,0,l),
(2326,1443,l),
(1901,1443,l),
(1179,826,l),
(1175,826,l),
(710,1443,l),
(290,1443,l)
);
}
);
width = 2237;
}
);
metricLeft = H;
metricRight = H;
unicode = 77;
},
{
glyphname = N;
kernLeft = N;
kernRight = N;
lastChange = "2025-04-30 03:00:35 +0000";
layers = (
{
anchors = (
{
name = bottom;
pos = (649,0);
},
{
name = hook;
pos = (1130,0);
},
{
name = top;
pos = (649,1423);
}
);
layerId = "B1815A28-7A99-448B-912A-F8CD41C6863A";
shapes = (
{
closed = 1;
nodes = (
(150,0,l),
(150,1365,l),
(190,1365,l),
(136,1402,l),
(1105,0,l),
(1155,0,l),
(1155,1443,l),
(1105,1443,l),
(1105,97,l),
(1071,97,l),
(1123,58,l),
(165,1443,l),
(101,1443,l),
(100,0,l)
);
}
);
width = 1255;
},
{
anchors = (
{
name = bottom;
pos = (686,30);
},
{
name = hook;
pos = (1145,0);
},
{
name = top;
pos = (696,1393);
}
);
layerId = "0A7ECE6A-DF67-46D8-8F43-1681A4AD540C";
shapes = (
{
closed = 1;
nodes = (
(280,0,l),
(280,1138,l),
(368,1138,l),
(176,1312,l),
(1075,0,l),
(1255,0,l),
(1255,1443,l),
(1075,1443,l),
(1075,326,l),
(1011,326,l),
(1150,192,l),
(295,1443,l),
(100,1443,l),
(100,0,l)
);
}
);
width = 1355;
},
{
anchors = (
{
name = bottom;
pos = (764,0);
},
{
name = hook;
pos = (1197,0);
},
{
name = top;
pos = (734,1433);
}
);
layerId = "0CA926B8-BF71-483F-A045-F233B587689B";
shapes = (
{
closed = 1;
nodes = (
(510,0,l),
(510,764,l),
(573,764,l),
(435,879,l),
(1050,0,l),
(1400,0,l),
(1400,1443,l),
(990,1443,l),
(990,683,l),
(926,683,l),
(1065,567,l),
(450,1443,l),
(101,1443,l),
(100,0,l)
);
}
);
width = 1500;
},
{
anchors = (
{
name = bottom;
pos = (538,0);
},
{
name = hook;
pos = (1019,0);
},
{
name = top;
pos = (840,1423);
}
);
layerId = "6871CC57-2503-4E31-BAA0-540E82C15514";
shapes = (
{
closed = 1;
nodes = (
(39,0,l),
(329,1365,l),
(369,1365,l),
(323,1402,l),
(994,0,l),
(1044,0,l),
(1350,1443,l),
(1300,1443,l),
(1014,97,l),
(980,97,l),
(1024,58,l),
(360,1443,l),
(296,1443,l),
(-11,0,l)
);
}
);
width = 1255;
},
{
anchors = (
{
name = bottom;
pos = (562,30);
},
{
name = hook;
pos = (1015,0);
},
{
name = top;
pos = (862,1393);
}
);
layerId = "0655DA90-B56F-496E-8077-C2A69D96FC98";
shapes = (
{
closed = 1;
nodes = (
(170,0,l),
(412,1138,l),
(500,1138,l),
(345,1312,l),
(925,0,l),
(1105,0,l),
(1411,1443,l),
(1231,1443,l),
(994,326,l),
(930,326,l),
(1040,192,l),
(491,1443,l),
(296,1443,l),
(-10,0,l)
);
}
);
width = 1316;
},
{
anchors = (
{
name = bottom;
pos = (650,0);
},
{
name = hook;
pos = (1067,0);
},
{
name = top;
pos = (930,1433);
}
);
layerId = "F66262BA-5A1D-44F4-BFD7-97C08A9A14E5";
shapes = (
{
closed = 1;
nodes = (
(393,0,l),
(555,764,l),
(618,764,l),
(504,879,l),
(933,0,l),
(1283,0,l),
(1589,1443,l),
(1179,1443,l),
(1018,683,l),
(954,683,l),
(1068,567,l),
(639,1443,l),
(290,1443,l),
(-17,0,l)
);
}
);
width = 1500;
}
);
metricLeft = H;
metricRight = H;
unicode = 78;
},
{
glyphname = O;
kernLeft = round;
kernRight = round;
lastChange = "2025-04-30 04:04:10 +0000";
layers = (
{
anchors = (
{
name = bottom;
pos = (768,0);
},
{
name = center;
pos = (768,722);
},
{
name = ogonek;
pos = (797,10);
},
{
name = top;
pos = (769,1463);
},
{
name = topleft;
pos = (74,1443);
},
{
name = topright;
pos = (1033,1463);
}
);
layerId = "B1815A28-7A99-448B-912A-F8CD41C6863A";
shapes = (
{
closed = 1;
nodes = (
(1172,-17,o),
(1466,295,o),
(1466,724,cs),
(1466,1152,o),
(1172,1463,o),
(769,1463,cs),
(359,1463,o),
(60,1152,o),
(60,724,cs),
(60,295,o),
(359,-17,o),
(769,-17,cs)
);
},
{
closed = 1;
nodes = (
(388,31,o),
(110,323,o),
(110,724,cs),
(110,1124,o),
(388,1415,o),
(769,1415,cs),
(1143,1415,o),
(1416,1124,o),
(1416,724,cs),
(1416,323,o),
(1143,31,o),
(769,31,cs)
);
}
);
width = 1526;
},
{
anchors = (
{
name = bottom;
pos = (791,0);
},
{
name = center;
pos = (791,722);
},
{
name = ogonek;
pos = (792,10);
},
{
name = top;
pos = (792,1463);
},
{
name = topleft;
pos = (17,1443);
},
{
name = topright;
pos = (1049,1463);
}
);
background = {
shapes = (
{
closed = 1;
nodes = (
(1573,-20,o),
(1573,-20,o),
(1573,722,cs),
(1573,1462,o),
(1573,1462,o),
(832,1462,cs),
(90,1462,o),
(90,1462,o),
(90,722,cs),
(90,-20,o),
(90,-20,o),
(832,-20,cs)
);
}
);
};
layerId = "0A7ECE6A-DF67-46D8-8F43-1681A4AD540C";
shapes = (
{
closed = 1;
nodes = (
(1221,-20,o),
(1532,292,o),
(1532,724,cs),
(1532,1153,o),
(1221,1463,o),
(792,1463,cs),
(367,1463,o),
(60,1153,o),
(60,724,cs),
(60,292,o),
(367,-20,o),
(792,-20,cs)
);
},
{
closed = 1;
nodes = (
(472,150,o),
(240,391,o),
(240,724,cs),
(240,1054,o),
(472,1293,o),
(792,1293,cs),
(1117,1293,o),
(1352,1054,o),
(1352,724,cs),
(1352,391,o),
(1117,150,o),
(792,150,cs)
);
}
);
width = 1592;
},
{
anchors = (
{
name = bottom;
pos = (841,-40);
},
{
name = center;
pos = (841,722);
},
{
name = ogonek;
pos = (842,-17);
},
{
name = top;
pos = (842,1480);
},
{
name = topleft;
pos = (-97,1443);
},
{
name = topright;
pos = (1246,1479);
}
);
layerId = "0CA926B8-BF71-483F-A045-F233B587689B";
shapes = (
{
closed = 1;
nodes = (
(1293,-37,o),
(1621,283,o),
(1621,723,cs),
(1621,1161,o),
(1293,1480,o),
(842,1480,cs),
(390,1480,o),
(60,1161,o),
(60,723,cs),
(60,283,o),
(390,-37,o),
(842,-37,cs)
);
},
{
closed = 1;
nodes = (
(627,303,o),
(470,480,o),
(470,723,cs),
(470,964,o),
(627,1140,o),
(842,1140,cs),
(1055,1140,o),
(1211,964,o),
(1211,723,cs),
(1211,480,o),
(1055,303,o),
(842,303,cs)
);
}
);
width = 1681;
},
{
anchors = (
{
name = bottom;
pos = (677,0);
},
{
name = center;
pos = (831,722);
},
{
name = ogonek;
pos = (708,10);
},
{
name = top;
pos = (989,1463);
},
{
name = topleft;
pos = (290,1443);
},
{
name = topright;
pos = (1253,1463);
}
);
layerId = "6871CC57-2503-4E31-BAA0-540E82C15514";
shapes = (
{
closed = 1;
nodes = (
(1103,-17,o),
(1478,294,o),
(1569,724,cs),
(1660,1153,o),
(1416,1463,o),
(989,1463,cs),
(566,1463,o),
(194,1153,o),
(103,724,cs),
(12,294,o),
(252,-17,o),
(675,-17,cs)
);
},
{
closed = 1;
nodes = (
(287,31,o),
(68,322,o),
(153,724,cs),
(238,1125,o),
(589,1415,o),
(989,1415,cs),
(1381,1415,o),
(1604,1125,o),
(1519,724,cs),
(1434,322,o),
(1080,31,o),
(675,31,cs)
);
}
);
width = 1586;
},
{
anchors = (
{
name = bottom;
pos = (680,0);
},
{
name = center;
pos = (833,722);
},
{
name = ogonek;
pos = (683,10);
},
{
name = top;
pos = (992,1463);
},
{
name = topleft;
pos = (212,1443);
},
{
name = topright;
pos = (1249,1463);
}
);
layerId = "0655DA90-B56F-496E-8077-C2A69D96FC98";
shapes = (
{
closed = 1;
nodes = (
(1106,-20,o),
(1483,292,o),
(1575,724,cs),
(1666,1153,o),
(1421,1463,o),
(992,1463,cs),
(567,1463,o),
(194,1153,o),
(103,724,cs),
(11,292,o),
(252,-20,o),
(676,-20,cs)
);
},
{
closed = 1;
nodes = (
(384,150,o),
(212,391,o),
(283,724,cs),
(353,1054,o),
(644,1293,o),
(975,1293,cs),
(1289,1293,o),
(1465,1054,o),
(1395,724,cs),
(1324,391,o),
(1029,150,o),
(693,150,cs)
);
}
);
width = 1592;
},
{
anchors = (
{
name = bottom;
pos = (716,-40);
},
{
name = center;
pos = (878,722);
},
{
name = ogonek;
pos = (722,-17);
},
{
name = top;
pos = (1040,1480);
},
{
name = topleft;
pos = (93,1443);
},
{
name = topright;
pos = (1444,1479);
}
);
layerId = "F66262BA-5A1D-44F4-BFD7-97C08A9A14E5";
shapes = (
{
closed = 1;
nodes = (
(1170,-37,o),
(1565,282,o),
(1658,723,cs),
(1752,1162,o),
(1492,1480,o),
(1040,1480,cs),
(587,1480,o),
(191,1162,o),
(97,723,cs),
(4,282,o),
(265,-37,o),
(718,-37,cs)
);
},
{
closed = 1;
nodes = (
(561,303,o),
(455,479,o),
(507,723,cs),
(559,965,o),
(765,1140,o),
(998,1140,cs),
(1195,1140,o),
(1300,965,o),
(1248,723,cs),
(1196,479,o),
(991,303,o),
(760,303,cs)
);
}
);
width = 1681;
}
);
unicode = 79;
},
{
glyphname = Oslash;
kernLeft = round;
kernRight = round;
lastChange = "2025-04-30 07:08:52 +0000";
layers = (
{
layerId = "B1815A28-7A99-448B-912A-F8CD41C6863A";
shapes = (
{
closed = 1;
nodes = (
(1318,1469,l),
(141,12,l),
(179,-20,l),
(1356,1437,l)
);
},
{
ref = O;
}
);
width = 1526;
},
{
layerId = "0A7ECE6A-DF67-46D8-8F43-1681A4AD540C";
shapes = (
{
closed = 1;
nodes = (
(1384,1459,l),
(127,87,l),
(244,-22,l),
(1501,1350,l)
);
},
{
ref = O;
}
);
width = 1592;
},
{
layerId = "0CA926B8-BF71-483F-A045-F233B587689B";
shapes = (
{
closed = 1;
nodes = (
(1455,1481,l),
(98,124,l),
(269,-35,l),
(1626,1322,l)
);
},
{
ref = O;
}
);
width = 1686;
},
{
layerId = "6871CC57-2503-4E31-BAA0-540E82C15514";
shapes = (
{
closed = 1;
nodes = (
(1586,1469,l),
(100,12,l),
(137,-20,l),
(1623,1437,l)
);
},
{
ref = O;
}
);
width = 1586;
},
{
layerId = "0655DA90-B56F-496E-8077-C2A69D96FC98";
shapes = (
{
closed = 1;
nodes = (
(1611,1459,l),
(63,87,l),
(157,-22,l),
(1705,1350,l)
);
},
{
ref = O;
}
);
width = 1592;
},
{
layerId = "F66262BA-5A1D-44F4-BFD7-97C08A9A14E5";
shapes = (
{
closed = 1;
nodes = (
(1696,1481,l),
(51,124,l),
(188,-35,l),
(1833,1322,l)
);
},
{
ref = O;
}
);
width = 1729;
}
);
metricLeft = O;
metricRight = O;
unicode = 216;
},
{
glyphname = OE;
kernLeft = round;
kernRight = E;
lastChange = "2025-04-30 03:00:35 +0000";
layers = (
{
layerId = "B1815A28-7A99-448B-912A-F8CD41C6863A";
shapes = (
{
closed = 1;
nodes = (
(1068,-17,o),
(1306,269,o),
(1306,724,cs),
(1306,1178,o),
(1068,1463,o),
(689,1463,cs),
(303,1463,o),
(60,1178,o),
(60,724,cs),
(60,269,o),
(303,-17,o),
(689,-17,cs)
);
},
{
closed = 1;
nodes = (
(333,31,o),
(110,298,o),
(110,724,cs),
(110,1148,o),
(333,1415,o),
(689,1415,cs),
(1037,1415,o),
(1256,1148,o),
(1256,724,cs),
(1256,298,o),
(1037,31,o),
(689,31,cs)
);
},
{
closed = 1;
nodes = (
(2127,0,l),
(2127,48,l),
(1309,48,l),
(1309,716,l),
(2063,716,l),
(2063,764,l),
(1309,764,l),
(1309,1395,l),
(2127,1395,l),
(2127,1443,l),
(1259,1443,l),
(1259,0,l)
);
}
);
width = 2167;
},
{
layerId = "0A7ECE6A-DF67-46D8-8F43-1681A4AD540C";
shapes = (
{
closed = 1;
nodes = (
(1083,-20,o),
(1306,267,o),
(1306,724,cs),
(1306,1178,o),
(1083,1463,o),
(729,1463,cs),
(318,1463,o),
(60,1178,o),
(60,724,cs),
(60,267,o),
(318,-20,o),
(729,-20,cs)
);
},
{
closed = 1;
nodes = (
(429,150,o),
(240,371,o),
(240,724,cs),
(240,1074,o),
(429,1293,o),
(729,1293,cs),
(1016,1293,o),
(1196,1074,o),
(1196,724,cs),
(1196,371,o),
(1016,150,o),
(729,150,cs)
);
},
{
closed = 1;
nodes = (
(2100,0,l),
(2100,170,l),
(1378,170,l),
(1378,650,l),
(2036,650,l),
(2036,810,l),
(1378,810,l),
(1378,1272,l),
(2100,1272,l),
(2100,1442,l),
(1198,1442,l),
(1198,0,l)
);
}
);
width = 2140;
},
{
layerId = "0CA926B8-BF71-483F-A045-F233B587689B";
shapes = (
{
closed = 1;
nodes = (
(1120,-37,o),
(1371,277,o),
(1371,723,cs),
(1371,1167,o),
(1120,1480,o),
(762,1480,cs),
(350,1480,o),
(60,1167,o),
(60,723,cs),
(60,277,o),
(350,-37,o),
(762,-37,cs)
);
},
{
closed = 1;
nodes = (
(615,303,o),
(470,476,o),
(470,723,cs),
(470,968,o),
(615,1140,o),
(822,1140,cs),
(1027,1140,o),
(1171,968,o),
(1171,723,cs),
(1171,476,o),
(1027,303,o),
(822,303,cs)
);
},
{
closed = 1;
nodes = (
(2200,0,l),
(2200,350,l),
(1606,350,l),
(1606,561,l),
(2124,561,l),
(2124,891,l),
(1606,891,l),
(1606,1092,l),
(2176,1092,l),
(2176,1443,l),
(1216,1443,l),
(1216,0,l)
);
}
);
width = 2240;
},
{
layerId = "6871CC57-2503-4E31-BAA0-540E82C15514";
shapes = (
{
closed = 1;
nodes = (
(954,-17,o),
(1252,269,o),
(1349,724,cs),
(1446,1178,o),
(1268,1463,o),
(889,1463,cs),
(503,1463,o),
(200,1178,o),
(103,724,cs),
(6,269,o),
(189,-17,o),
(575,-17,cs)
);
},
{
closed = 1;
nodes = (
(229,31,o),
(63,298,o),
(153,724,cs),
(243,1148,o),
(523,1415,o),
(879,1415,cs),
(1227,1415,o),
(1389,1148,o),
(1299,724,cs),
(1209,298,o),
(933,31,o),
(585,31,cs)
);
},
{
closed = 1;
nodes = (
(2016,0,l),
(2027,48,l),
(1209,48,l),
(1351,716,l),
(2105,716,l),
(2115,764,l),
(1361,764,l),
(1495,1395,l),
(2313,1395,l),
(2323,1443,l),
(1455,1443,l),
(1148,0,l)
);
}
);
width = 2247;
},
{
layerId = "0655DA90-B56F-496E-8077-C2A69D96FC98";
shapes = (
{
closed = 1;
nodes = (
(963,-20,o),
(1252,272,o),
(1349,724,cs),
(1444,1173,o),
(1279,1463,o),
(929,1463,cs),
(522,1463,o),
(198,1173,o),
(103,724,cs),
(6,272,o),
(206,-20,o),
(613,-20,cs)
);
},
{
closed = 1;
nodes = (
(352,150,o),
(208,376,o),
(283,724,cs),
(356,1069,o),
(595,1293,o),
(892,1293,cs),
(1176,1293,o),
(1312,1069,o),
(1239,724,cs),
(1164,376,o),
(933,150,o),
(650,150,cs)
);
},
{
closed = 1;
nodes = (
(1989,0,l),
(2025,170,l),
(1303,170,l),
(1405,650,l),
(2063,650,l),
(2097,810,l),
(1439,810,l),
(1537,1272,l),
(2259,1272,l),
(2295,1442,l),
(1393,1442,l),
(1087,0,l)
);
}
);
width = 2200;
},
{
layerId = "F66262BA-5A1D-44F4-BFD7-97C08A9A14E5";
shapes = (
{
closed = 1;
nodes = (
(996,-37,o),
(1314,277,o),
(1408,723,cs),
(1503,1167,o),
(1318,1480,o),
(960,1480,cs),
(548,1480,o),
(192,1167,o),
(97,723,cs),
(3,277,o),
(226,-37,o),
(638,-37,cs)
);
},
{
closed = 1;
nodes = (
(563,303,o),
(455,476,o),
(507,723,cs),
(559,968,o),
(741,1140,o),
(948,1140,cs),
(1153,1140,o),
(1260,968,o),
(1208,723,cs),
(1156,476,o),
(975,303,o),
(770,303,cs)
);
},
{
closed = 1;
nodes = (
(2084,0,l),
(2158,350,l),
(1564,350,l),
(1609,561,l),
(2127,561,l),
(2197,891,l),
(1679,891,l),
(1722,1092,l),
(2292,1092,l),
(2366,1443,l),
(1406,1443,l),
(1100,0,l)
);
}
);
width = 2321;
}
);
metricLeft = O;
metricRight = E;
unicode = 338;
},
{
glyphname = P;
kernLeft = flat;
kernRight = P;
lastChange = "2025-04-30 03:00:35 +0000";
layers = (
{
anchors = (
{
name = bottom;
pos = (472,0);
},
{
name = top;
pos = (472,1443);
}
);
layerId = "B1815A28-7A99-448B-912A-F8CD41C6863A";
shapes = (
{
closed = 1;
nodes = (
(100,1443,l),
(100,0,l),
(150,0,l),
(150,1443,l)
);
},
{
closed = 1;
nodes = (
(619,578,ls),
(901,578,o),
(1078,745,o),
(1078,1010,cs),
(1078,1276,o),
(901,1443,o),
(619,1443,cs),
(127,1443,l),
(127,1395,l),
(604,1395,ls),
(866,1395,o),
(1030,1247,o),
(1030,1010,cs),
(1030,774,o),
(867,626,o),
(608,626,cs),
(127,626,l),
(127,578,l)
);
}
);
width = 1138;
},
{
anchors = (
{
name = bottom;
pos = (522,0);
},
{
name = top;
pos = (522,1443);
}
);
layerId = "0A7ECE6A-DF67-46D8-8F43-1681A4AD540C";
shapes = (
{
closed = 1;
nodes = (
(100,1443,l),
(100,0,l),
(280,0,l),
(280,1443,l)
);
},
{
closed = 1;
nodes = (
(639,539,ls),
(941,539,o),
(1130,713,o),
(1130,990,cs),
(1130,1268,o),
(941,1443,o),
(639,1443,cs),
(191,1443,l),
(191,1283,l),
(634,1283,ls),
(828,1283,o),
(950,1170,o),
(950,990,cs),
(950,811,o),
(830,699,o),
(640,699,cs),
(191,699,l),
(191,539,l)
);
}
);
width = 1190;
},
{
anchors = (
{
name = bottom;
pos = (572,0);
},
{
name = top;
pos = (592,1443);
}
);
layerId = "0CA926B8-BF71-483F-A045-F233B587689B";
shapes = (
{
closed = 1;
nodes = (
(100,1443,l),
(100,0,l),
(510,0,l),
(510,1443,l)
);
},
{
closed = 1;
nodes = (
(730,434,ls),
(1058,434,o),
(1271,632,o),
(1271,939,cs),
(1271,1245,o),
(1058,1443,o),
(730,1443,cs),
(338,1443,l),
(338,1123,l),
(668,1123,ls),
(785,1123,o),
(861,1051,o),
(861,939,cs),
(861,827,o),
(785,754,o),
(668,754,cs),
(338,754,l),
(338,434,l)
);
}
);
width = 1331;
},
{
anchors = (
{
name = bottom;
pos = (362,0);
},
{
name = top;
pos = (668,1443);
}
);
layerId = "6871CC57-2503-4E31-BAA0-540E82C15514";
shapes = (
{
closed = 1;
nodes = (
(296,1443,l),
(-10,0,l),
(40,0,l),
(346,1443,l)
);
},
{
closed = 1;
nodes = (
(631,578,ls),
(915,578,o),
(1128,745,o),
(1184,1010,cs),
(1241,1276,o),
(1095,1443,o),
(805,1443,cs),
(323,1443,l),
(313,1395,l),
(810,1395,ls),
(1060,1395,o),
(1185,1247,o),
(1134,1010,cs),
(1084,774,o),
(886,626,o),
(621,626,cs),
(150,626,l),
(139,578,l)
);
}
);
width = 1140;
},
{
anchors = (
{
name = bottom;
pos = (412,0);
},
{
name = top;
pos = (718,1443);
}
);
layerId = "0655DA90-B56F-496E-8077-C2A69D96FC98";
shapes = (
{
closed = 1;
nodes = (
(296,1443,l),
(-10,0,l),
(170,0,l),
(476,1443,l)
);
},
{
closed = 1;
nodes = (
(663,539,ls),
(952,539,o),
(1171,713,o),
(1230,990,cs),
(1289,1268,o),
(1129,1443,o),
(815,1443,cs),
(387,1443,l),
(353,1283,l),
(816,1283,ls),
(998,1283,o),
(1088,1170,o),
(1050,990,cs),
(1012,811,o),
(861,699,o),
(658,699,cs),
(229,699,l),
(195,539,l)
);
}
);
width = 1190;
},
{
anchors = (
{
name = bottom;
pos = (456,0);
},
{
name = top;
pos = (782,1443);
}
);
layerId = "F66262BA-5A1D-44F4-BFD7-97C08A9A14E5";
shapes = (
{
closed = 1;
nodes = (
(290,1443,l),
(-16,0,l),
(394,0,l),
(700,1443,l)
);
},
{
closed = 1;
nodes = (
(736,434,ls),
(1050,434,o),
(1288,629,o),
(1354,939,cs),
(1420,1249,o),
(1241,1443,o),
(890,1443,cs),
(528,1443,l),
(460,1123,l),
(810,1123,ls),
(910,1123,o),
(958,1052,o),
(934,939,cs),
(910,825,o),
(817,754,o),
(692,754,cs),
(382,754,l),
(314,434,l)
);
}
);
width = 1331;
}
);
metricLeft = H;
metricRight = D;
unicode = 80;
},
{
glyphname = Thorn;
kernLeft = round;
kernRight = round;
lastChange = "2025-04-30 03:00:35 +0000";
layers = (
{
layerId = "B1815A28-7A99-448B-912A-F8CD41C6863A";
shapes = (
{
closed = 1;
nodes = (
(110,1443,l),
(110,0,l),
(160,0,l),
(160,1443,l)
);
},
{
closed = 1;
nodes = (
(579,346,ls),
(832,346,o),
(991,496,o),
(991,734,cs),
(991,973,o),
(832,1123,o),
(579,1123,cs),
(137,1123,l),
(137,1075,l),
(565,1075,ls),
(796,1075,o),
(941,943,o),
(941,734,cs),
(941,525,o),
(798,394,o),
(569,394,cs),
(137,394,l),
(137,346,l)
);
}
);
width = 1051;
},
{
layerId = "0A7ECE6A-DF67-46D8-8F43-1681A4AD540C";
shapes = (
{
closed = 1;
nodes = (
(110,1443,l),
(110,0,l),
(290,0,l),
(290,1443,l)
);
},
{
closed = 1;
nodes = (
(653,352,ls),
(901,352,o),
(1056,495,o),
(1056,722,cs),
(1056,951,o),
(901,1094,o),
(653,1094,cs),
(285,1094,l),
(285,934,l),
(649,934,ls),
(788,934,o),
(876,852,o),
(876,722,cs),
(876,593,o),
(790,512,o),
(654,512,cs),
(285,512,l),
(285,352,l)
);
}
);
width = 1116;
},
{
layerId = "0CA926B8-BF71-483F-A045-F233B587689B";
shapes = (
{
closed = 1;
nodes = (
(110,1443,l),
(110,0,l),
(530,0,l),
(530,1443,l)
);
},
{
closed = 1;
nodes = (
(730,264,ls),
(1062,264,o),
(1271,447,o),
(1271,739,cs),
(1271,1030,o),
(1062,1213,o),
(730,1213,cs),
(338,1213,l),
(338,903,l),
(668,903,ls),
(787,903,o),
(861,840,o),
(861,739,cs),
(861,638,o),
(787,574,o),
(668,574,cs),
(338,574,l),
(338,264,l)
);
}
);
width = 1331;
},
{
layerId = "6871CC57-2503-4E31-BAA0-540E82C15514";
shapes = (
{
closed = 1;
nodes = (
(306,1443,l),
(0,0,l),
(50,0,l),
(356,1443,l)
);
},
{
closed = 1;
nodes = (
(542,346,ls),
(795,346,o),
(986,496,o),
(1037,734,cs),
(1087,973,o),
(960,1123,o),
(707,1123,cs),
(265,1123,l),
(255,1075,l),
(693,1075,ls),
(924,1075,o),
(1031,943,o),
(987,734,cs),
(942,525,o),
(761,394,o),
(532,394,cs),
(110,394,l),
(100,346,l)
);
}
);
width = 1052;
},
{
layerId = "0655DA90-B56F-496E-8077-C2A69D96FC98";
shapes = (
{
closed = 1;
nodes = (
(306,1443,l),
(0,0,l),
(180,0,l),
(486,1443,l)
);
},
{
closed = 1;
nodes = (
(617,352,ls),
(862,352,o),
(1051,497,o),
(1099,722,cs),
(1147,948,o),
(1020,1094,o),
(775,1094,cs),
(407,1094,l),
(373,934,l),
(747,934,ls),
(879,934,o),
(947,851,o),
(919,722,cs),
(892,595,o),
(783,512,o),
(642,512,cs),
(283,512,l),
(249,352,l)
);
}
);
width = 1116;
},
{
layerId = "F66262BA-5A1D-44F4-BFD7-97C08A9A14E5";
shapes = (
{
closed = 1;
nodes = (
(300,1443,l),
(-6,0,l),
(414,0,l),
(720,1443,l)
);
},
{
closed = 1;
nodes = (
(670,264,ls),
(1002,264,o),
(1250,447,o),
(1312,739,cs),
(1374,1030,o),
(1203,1213,o),
(871,1213,cs),
(479,1213,l),
(414,903,l),
(764,903,ls),
(883,903,o),
(923,840,o),
(902,739,cs),
(880,638,o),
(773,574,o),
(654,574,cs),
(344,574,l),
(278,264,l)
);
}
);
width = 1332;
}
);
metricLeft = p;
metricRight = p;
unicode = 222;
},
{
glyphname = Q;
kernLeft = round;
kernRight = round;
lastChange = "2025-04-30 03:00:35 +0000";
layers = (
{
anchors = (
{
name = bottom;
pos = (759,0);
},
{
name = top;
pos = (759,1443);
}
);
layerId = "B1815A28-7A99-448B-912A-F8CD41C6863A";
shapes = (
{
closed = 1;
nodes = (
(1216,-17,o),
(1526,294,o),
(1526,724,cs),
(1526,1153,o),
(1216,1463,o),
(789,1463,cs),
(366,1463,o),
(60,1153,o),
(60,724,cs),
(60,294,o),
(366,-17,o),
(789,-17,cs)
);
},
{
closed = 1;
nodes = (
(395,31,o),
(110,322,o),
(110,724,cs),
(110,1125,o),
(395,1415,o),
(789,1415,cs),
(1187,1415,o),
(1476,1125,o),
(1476,724,cs),
(1476,322,o),
(1187,31,o),
(789,31,cs)
);
},
{
closed = 1;
nodes = (
(1440,-23,l),
(1475,13,l),
(1049,428,l),
(1013,392,l)
);
}
);
width = 1586;
},
{
anchors = (
{
name = bottom;
pos = (819,0);
},
{
name = top;
pos = (819,1443);
}
);
layerId = "0A7ECE6A-DF67-46D8-8F43-1681A4AD540C";
shapes = (
{
closed = 1;
nodes = (
(1237,-20,o),
(1552,292,o),
(1552,724,cs),
(1552,1153,o),
(1237,1463,o),
(802,1463,cs),
(372,1463,o),
(60,1153,o),
(60,724,cs),
(60,292,o),
(372,-20,o),
(802,-20,cs)
);
},
{
closed = 1;
nodes = (
(476,150,o),
(240,391,o),
(240,724,cs),
(240,1054,o),
(476,1293,o),
(802,1293,cs),
(1133,1293,o),
(1372,1054,o),
(1372,724,cs),
(1372,391,o),
(1133,150,o),
(802,150,cs)
);
},
{
closed = 1;
nodes = (
(1385,-29,l),
(1506,112,l),
(1028,535,l),
(897,406,l)
);
}
);
width = 1612;
},
{
anchors = (
{
name = bottom;
pos = (879,0);
},
{
name = top;
pos = (842,1542);
}
);
layerId = "0CA926B8-BF71-483F-A045-F233B587689B";
shapes = (
{
closed = 1;
nodes = (
(1294,-37,o),
(1621,282,o),
(1621,723,cs),
(1621,1162,o),
(1294,1480,o),
(842,1480,cs),
(388,1480,o),
(60,1162,o),
(60,723,cs),
(60,282,o),
(388,-37,o),
(842,-37,cs)
);
},
{
closed = 1;
nodes = (
(626,313,o),
(470,491,o),
(470,723,cs),
(470,953,o),
(626,1130,o),
(842,1130,cs),
(1056,1130,o),
(1211,953,o),
(1211,723,cs),
(1211,436,o),
(1100,313,o),
(842,313,cs)
);
},
{
closed = 1;
nodes = (
(1444,-53,l),
(1666,190,l),
(1008,730,l),
(796,496,l)
);
}
);
width = 1726;
},
{
anchors = (
{
name = bottom;
pos = (676,0);
},
{
name = top;
pos = (930,1443);
}
);
layerId = "6871CC57-2503-4E31-BAA0-540E82C15514";
shapes = (
{
closed = 1;
nodes = (
(1070,-20,o),
(1382,266,o),
(1462,722,cs),
(1543,1177,o),
(1331,1463,o),
(915,1463,cs),
(497,1463,o),
(185,1177,o),
(104,722,cs),
(24,266,o),
(236,-20,o),
(654,-20,cs)
);
},
{
closed = 1;
nodes = (
(269,29,o),
(79,296,o),
(154,722,cs),
(229,1147,o),
(525,1414,o),
(912,1414,cs),
(1298,1414,o),
(1487,1147,o),
(1412,722,cs),
(1337,296,o),
(1042,29,o),
(656,29,cs)
);
},
{
closed = 1;
nodes = (
(1293,-23,l),
(1330,9,l),
(978,424,l),
(939,392,l)
);
}
);
width = 1499;
},
{
anchors = (
{
name = bottom;
pos = (736,0);
},
{
name = top;
pos = (944,1463);
}
);
layerId = "0655DA90-B56F-496E-8077-C2A69D96FC98";
shapes = (
{
closed = 1;
nodes = (
(1143,-20,o),
(1460,267,o),
(1540,724,cs),
(1620,1178,o),
(1396,1463,o),
(944,1463,cs),
(502,1463,o),
(184,1178,o),
(104,724,cs),
(24,267,o),
(249,-20,o),
(702,-20,cs)
);
},
{
closed = 1;
nodes = (
(387,150,o),
(222,371,o),
(284,724,cs),
(346,1074,o),
(597,1293,o),
(934,1293,cs),
(1258,1293,o),
(1422,1074,o),
(1360,724,cs),
(1298,371,o),
(1048,150,o),
(712,150,cs)
);
},
{
closed = 1;
nodes = (
(1296,-29,l),
(1424,102,l),
(1021,525,l),
(885,406,l)
);
}
);
width = 1573;
},
{
anchors = (
{
name = bottom;
pos = (915,0);
},
{
name = top;
pos = (1004,1542);
}
);
layerId = "F66262BA-5A1D-44F4-BFD7-97C08A9A14E5";
shapes = (
{
closed = 1;
nodes = (
(1215,-37,o),
(1555,256,o),
(1638,723,cs),
(1720,1188,o),
(1467,1480,o),
(982,1480,cs),
(520,1480,o),
(179,1188,o),
(97,723,cs),
(14,256,o),
(268,-37,o),
(755,-37,cs)
);
},
{
closed = 1;
nodes = (
(551,283,o),
(449,453,o),
(497,723,cs),
(543,985,o),
(727,1150,o),
(974,1150,cs),
(1182,1150,o),
(1284,985,o),
(1238,723,cs),
(1182,417,o),
(1037,283,o),
(761,283,cs)
);
},
{
closed = 1;
nodes = (
(1356,-43,l),
(1559,138,l),
(1032,658,l),
(841,486,l)
);
}
);
width = 1707;
}
);
metricLeft = O;
metricRight = o;
unicode = 81;
},
{
glyphname = R;
kernLeft = flat;
kernRight = R;
lastChange = "2025-04-30 03:00:35 +0000";
layers = (
{
anchors = (
{
name = bottom;
pos = (533,0);
},
{
name = top;
pos = (533,1443);
}
);
layerId = "B1815A28-7A99-448B-912A-F8CD41C6863A";
shapes = (
{
closed = 1;
nodes = (
(100,1443,l),
(100,0,l),
(150,0,l),
(150,1443,l)
);
},
{
closed = 1;
nodes = (
(647,585,l),
(1057,0,l),
(1116,0,l),
(706,585,l)
);
},
{
closed = 1;
nodes = (
(629,558,ls),
(910,558,o),
(1098,735,o),
(1098,1000,cs),
(1098,1266,o),
(910,1443,o),
(629,1443,cs),
(126,1443,l),
(126,1395,l),
(616,1395,ls),
(876,1395,o),
(1050,1237,o),
(1050,1000,cs),
(1050,764,o),
(876,606,o),
(616,606,cs),
(126,606,l),
(126,558,l)
);
}
);
width = 1146;
},
{
anchors = (
{
name = bottom;
pos = (572,0);
},
{
name = top;
pos = (572,1443);
}
);
layerId = "0A7ECE6A-DF67-46D8-8F43-1681A4AD540C";
shapes = (
{
closed = 1;
nodes = (
(100,1443,l),
(100,0,l),
(280,0,l),
(280,1443,l)
);
},
{
closed = 1;
nodes = (
(585,595,l),
(1003,0,l),
(1206,0,l),
(786,595,l)
);
},
{
closed = 1;
nodes = (
(659,509,ls),
(954,509,o),
(1150,693,o),
(1150,970,cs),
(1150,1254,o),
(954,1443,o),
(659,1443,cs),
(195,1443,l),
(195,1273,l),
(657,1273,ls),
(845,1273,o),
(970,1152,o),
(970,970,cs),
(970,795,o),
(845,679,o),
(657,679,cs),
(195,679,l),
(195,509,l)
);
}
);
width = 1236;
},
{
anchors = (
{
name = bottom;
pos = (643,0);
},
{
name = top;
pos = (643,1443);
}
);
layerId = "0CA926B8-BF71-483F-A045-F233B587689B";
shapes = (
{
closed = 1;
nodes = (
(100,1443,l),
(100,0,l),
(510,0,l),
(510,1443,l)
);
},
{
closed = 1;
nodes = (
(635,505,l),
(923,0,l),
(1364,0,l),
(1037,505,l)
);
},
{
closed = 1;
nodes = (
(770,404,ls),
(1113,404,o),
(1341,622,o),
(1341,948,cs),
(1341,1245,o),
(1113,1443,o),
(770,1443,cs),
(318,1443,l),
(318,1133,l),
(728,1133,ls),
(844,1133,o),
(921,1055,o),
(921,939,cs),
(921,816,o),
(844,734,o),
(728,734,cs),
(318,734,l),
(318,404,l)
);
}
);
width = 1394;
},
{
anchors = (
{
name = bottom;
pos = (423,0);
},
{
name = top;
pos = (729,1443);
}
);
layerId = "6871CC57-2503-4E31-BAA0-540E82C15514";
shapes = (
{
closed = 1;
nodes = (
(296,1443,l),
(-10,0,l),
(40,0,l),
(346,1443,l)
);
},
{
closed = 1;
nodes = (
(664,585,l),
(950,0,l),
(1006,0,l),
(720,585,l)
);
},
{
closed = 1;
nodes = (
(637,558,ls),
(918,558,o),
(1144,735,o),
(1200,1000,cs),
(1257,1266,o),
(1106,1443,o),
(825,1443,cs),
(322,1443,l),
(312,1395,l),
(812,1395,ls),
(1072,1395,o),
(1203,1237,o),
(1152,1000,cs),
(1102,764,o),
(884,606,o),
(624,606,cs),
(144,606,l),
(134,558,l)
);
}
);
width = 1147;
},
{
anchors = (
{
name = bottom;
pos = (462,0);
},
{
name = top;
pos = (768,1443);
}
);
layerId = "0655DA90-B56F-496E-8077-C2A69D96FC98";
shapes = (
{
closed = 1;
nodes = (
(296,1443,l),
(-10,0,l),
(170,0,l),
(476,1443,l)
);
},
{
closed = 1;
nodes = (
(601,595,l),
(893,0,l),
(1096,0,l),
(802,595,l)
);
},
{
closed = 1;
nodes = (
(657,509,ls),
(952,509,o),
(1187,693,o),
(1246,970,cs),
(1306,1254,o),
(1150,1443,o),
(855,1443,cs),
(391,1443,l),
(355,1273,l),
(817,1273,ls),
(1005,1273,o),
(1105,1152,o),
(1066,970,cs),
(1029,795,o),
(879,679,o),
(691,679,cs),
(229,679,l),
(193,509,l)
);
}
);
width = 1237;
},
{
anchors = (
{
name = bottom;
pos = (527,0);
},
{
name = top;
pos = (833,1443);
}
);
layerId = "F66262BA-5A1D-44F4-BFD7-97C08A9A14E5";
shapes = (
{
closed = 1;
nodes = (
(290,1443,l),
(-16,0,l),
(394,0,l),
(700,1443,l)
);
},
{
closed = 1;
nodes = (
(626,505,l),
(807,0,l),
(1248,0,l),
(1028,505,l)
);
},
{
closed = 1;
nodes = (
(740,404,ls),
(1083,404,o),
(1357,622,o),
(1426,948,cs),
(1489,1245,o),
(1303,1443,o),
(960,1443,cs),
(508,1443,l),
(442,1133,l),
(852,1133,ls),
(968,1133,o),
(1029,1055,o),
(1004,939,cs),
(978,816,o),
(884,734,o),
(768,734,cs),
(358,734,l),
(288,404,l)
);
}
);
width = 1395;
}
);
metricLeft = H;
unicode = 82;
},
{
glyphname = S;
kernLeft = S;
kernRight = S;
lastChange = "2025-04-30 03:00:35 +0000";
layers = (
{
anchors = (
{
name = bottom;
pos = (595,0);
},
{
name = top;
pos = (526,1466);
}
);
layerId = "B1815A28-7A99-448B-912A-F8CD41C6863A";
shapes = (
{
closed = 1;
nodes = (
(809,-20,o),
(987,134,o),
(987,366,cs),
(987,543,o),
(855,693,o),
(658,742,cs),
(475,788,ls),
(276,838,o),
(144,967,o),
(144,1112,cs),
(144,1293,o),
(289,1416,o),
(506,1418,c),
(648,1416,o),
(795,1378,o),
(874,1324,c),
(893,1370,l),
(800,1428,o),
(645,1466,o),
(506,1466,cs),
(259,1466,o),
(95,1324,o),
(95,1112,cs),
(95,945,o),
(241,796,o),
(459,742,cs),
(648,695,ls),
(822,652,o),
(938,520,o),
(938,366,c),
(935,163,o),
(779,28,o),
(547,28,cs),
(386,28,o),
(204,97,o),
(92,200,c),
(60,162,l),
(189,53,o),
(382,-20,o),
(543,-20,c)
);
}
);
width = 1047;
},
{
anchors = (
{
name = bottom;
pos = (567,0);
},
{
name = top;
pos = (548,1466);
}
);
layerId = "0A7ECE6A-DF67-46D8-8F43-1681A4AD540C";
shapes = (
{
closed = 1;
nodes = (
(867,-20,o),
(1064,138,o),
(1064,386,cs),
(1064,599,o),
(920,764,o),
(693,813,cs),
(498,855,ls),
(357,886,o),
(268,974,o),
(268,1082,cs),
(268,1211,o),
(378,1294,o),
(550,1296,c),
(687,1294,o),
(823,1251,o),
(900,1187,c),
(986,1335,l),
(898,1415,o),
(728,1466,o),
(550,1466,cs),
(268,1466,o),
(89,1317,o),
(89,1082,cs),
(89,891,o),
(231,739,o),
(454,690,cs),
(641,649,ls),
(790,616,o),
(884,518,o),
(884,396,cs),
(884,246,o),
(755,150,o),
(552,150,cs),
(415,150,o),
(261,212,o),
(154,310,c),
(60,164,l),
(170,51,o),
(363,-20,o),
(558,-20,c)
);
}
);
width = 1124;
},
{
anchors = (
{
name = bottom;
pos = (598,-20);
},
{
name = top;
pos = (598,1479);
}
);
layerId = "0CA926B8-BF71-483F-A045-F233B587689B";
shapes = (
{
closed = 1;
nodes = (
(953,-25,o),
(1174,155,o),
(1174,426,cs),
(1174,618,o),
(1048,788,o),
(845,854,cs),
(628,925,ls),
(548,951,o),
(494,995,o),
(494,1048,cs),
(494,1110,o),
(568,1151,o),
(678,1151,cs),
(806,1151,o),
(939,1105,o),
(1011,1073,c),
(1131,1376,l),
(1006,1428,o),
(813,1479,o),
(614,1479,cs),
(297,1479,o),
(85,1308,o),
(85,1052,cs),
(85,860,o),
(213,690,o),
(405,626,cs),
(633,550,ls),
(718,522,o),
(774,486,o),
(774,422,cs),
(774,352,o),
(707,305,o),
(606,305,cs),
(469,305,o),
(290,358,o),
(173,438,c),
(60,122,l),
(209,34,o),
(433,-25,o),
(621,-25,c)
);
}
);
width = 1234;
},
{
anchors = (
{
name = bottom;
pos = (484,0);
},
{
name = top;
pos = (727,1466);
}
);
layerId = "6871CC57-2503-4E31-BAA0-540E82C15514";
shapes = (
{
closed = 1;
nodes = (
(694,-20,o),
(905,134,o),
(954,366,cs),
(992,543,o),
(892,693,o),
(705,742,cs),
(532,788,ls),
(343,838,o),
(239,967,o),
(270,1112,cs),
(308,1293,o),
(479,1416,o),
(697,1418,c),
(838,1416,o),
(977,1378,o),
(1045,1324,c),
(1074,1370,l),
(993,1428,o),
(846,1466,o),
(707,1466,cs),
(460,1466,o),
(266,1324,o),
(221,1112,cs),
(185,945,o),
(300,796,o),
(506,742,cs),
(685,695,ls),
(850,652,o),
(938,520,o),
(905,366,c),
(859,163,o),
(674,28,o),
(442,28,cs),
(281,28,o),
(114,97,o),
(24,200,c),
(-16,162,l),
(90,53,o),
(267,-20,o),
(428,-20,c)
);
}
);
width = 1047;
},
{
anchors = (
{
name = bottom;
pos = (456,0);
},
{
name = top;
pos = (749,1466);
}
);
layerId = "0655DA90-B56F-496E-8077-C2A69D96FC98";
shapes = (
{
closed = 1;
nodes = (
(752,-20,o),
(983,138,o),
(1035,386,cs),
(1081,599,o),
(972,764,o),
(755,813,cs),
(569,855,ls),
(435,886,o),
(364,974,o),
(387,1082,cs),
(415,1211,o),
(542,1294,o),
(715,1296,c),
(851,1294,o),
(978,1251,o),
(1042,1187,c),
(1159,1335,l),
(1088,1415,o),
(929,1466,o),
(751,1466,cs),
(469,1466,o),
(258,1317,o),
(208,1082,cs),
(168,891,o),
(277,739,o),
(490,690,cs),
(668,649,ls),
(810,616,o),
(883,518,o),
(857,396,cs),
(826,246,o),
(676,150,o),
(473,150,cs),
(336,150,o),
(195,212,o),
(109,310,c),
(-16,164,l),
(70,51,o),
(248,-20,o),
(443,-20,c)
);
}
);
width = 1123;
},
{
anchors = (
{
name = bottom;
pos = (477,-20);
},
{
name = top;
pos = (796,1479);
}
);
layerId = "F66262BA-5A1D-44F4-BFD7-97C08A9A14E5";
shapes = (
{
closed = 1;
nodes = (
(831,-25,o),
(1090,155,o),
(1148,426,cs),
(1189,618,o),
(1093,789,o),
(910,854,cs),
(708,925,ls),
(634,951,o),
(590,1001,o),
(600,1048,cs),
(613,1110,o),
(696,1151,o),
(806,1151,cs),
(934,1151,o),
(1061,1120,o),
(1123,1073,c),
(1307,1376,l),
(1209,1438,o),
(1011,1479,o),
(812,1479,cs),
(495,1479,o),
(246,1308,o),
(192,1052,cs),
(151,860,o),
(243,690,o),
(422,626,cs),
(633,550,ls),
(712,521,o),
(757,470,o),
(747,422,cs),
(732,352,o),
(655,305,o),
(554,305,cs),
(411,305,o),
(250,358,o),
(150,438,c),
(-31,122,l),
(100,34,o),
(311,-25,o),
(499,-25,c)
);
}
);
width = 1234;
}
);
metricLeft = O;
metricRight = O;
unicode = 83;
},
{
glyphname = Germandbls;
kernLeft = H;
kernRight = B;
lastChange = "2025-04-30 03:00:35 +0000";
layers = (
{
layerId = "B1815A28-7A99-448B-912A-F8CD41C6863A";
shapes = (
{
closed = 1;
nodes = (
(100,1395,l),
(877,1395,l),
(877,1389,l),
(340,858,l),
(340,807,l),
(401,807,l),
(737,869,o),
(973,708,o),
(973,417,cs),
(973,189,o),
(797,28,o),
(547,28,c),
(476,28,o),
(384,47,o),
(323,75,c),
(324,19,l),
(378,-4,o),
(469,-20,o),
(543,-20,c),
(825,-20,o),
(1023,159,o),
(1023,413,cs),
(1023,741,o),
(772,924,o),
(415,857,c),
(415,861,l),
(949,1391,l),
(949,1443,l),
(100,1443,l)
);
},
{
closed = 1;
nodes = (
(100,0,l),
(150,0,l),
(150,1419,l),
(100,1419,l)
);
}
);
width = 1083;
},
{
layerId = "0A7ECE6A-DF67-46D8-8F43-1681A4AD540C";
shapes = (
{
closed = 1;
nodes = (
(100,1283,l),
(781,1283,l),
(781,1277,l),
(390,870,l),
(390,712,l),
(461,718,l),
(777,773,o),
(978,665,o),
(983,437,cs),
(986,255,o),
(856,140,o),
(647,140,c),
(557,140,o),
(461,159,o),
(399,190,c),
(396,27,l),
(457,-2,o),
(552,-20,o),
(643,-20,c),
(962,-20,o),
(1163,154,o),
(1163,432,cs),
(1163,719,o),
(964,891,o),
(648,879,c),
(648,887,l),
(1029,1281,l),
(1029,1443,l),
(100,1443,l)
);
},
{
closed = 1;
nodes = (
(100,0,l),
(280,0,l),
(280,1365,l),
(100,1365,l)
);
}
);
width = 1223;
},
{
layerId = "0CA926B8-BF71-483F-A045-F233B587689B";
shapes = (
{
closed = 1;
nodes = (
(100,1123,l),
(817,1123,l),
(817,1111,l),
(587,816,l),
(587,631,l),
(804,631,ls),
(930,631,o),
(1020,566,o),
(1023,474,c),
(1024,368,o),
(943,293,o),
(826,293,c),
(745,293,o),
(644,313,o),
(581,342,c),
(577,19,l),
(697,-17,o),
(841,-40,o),
(926,-37,c),
(1224,-37,o),
(1433,168,o),
(1433,459,c),
(1430,718,o),
(1251,886,o),
(1000,867,c),
(1000,877,l),
(1270,1215,l),
(1272,1443,l),
(100,1443,l)
);
},
{
closed = 1;
nodes = (
(100,0,l),
(500,0,l),
(500,1310,l),
(100,1310,l)
);
}
);
width = 1493;
},
{
layerId = "6871CC57-2503-4E31-BAA0-540E82C15514";
shapes = (
{
closed = 1;
nodes = (
(286,1395,l),
(1063,1395,l),
(1062,1389,l),
(412,858,l),
(401,807,l),
(462,807,l),
(841,885,o),
(1019,743,o),
(951,417,cs),
(899,170,o),
(714,28,o),
(443,28,c),
(366,28,o),
(288,45,o),
(229,75,c),
(218,19,l),
(271,-6,o),
(355,-20,o),
(449,-20,c),
(741,-20,o),
(942,138,o),
(1001,413,cs),
(1076,768,o),
(888,929,o),
(487,857,c),
(488,861,l),
(1134,1391,l),
(1145,1443,l),
(296,1443,l)
);
},
{
closed = 1;
nodes = (
(-10,0,l),
(40,0,l),
(341,1419,l),
(291,1419,l)
);
}
);
width = 1084;
},
{
layerId = "0655DA90-B56F-496E-8077-C2A69D96FC98";
shapes = (
{
closed = 1;
nodes = (
(262,1283,l),
(943,1283,l),
(942,1277,l),
(465,870,l),
(431,712,l),
(503,718,l),
(852,777,o),
(1021,674,o),
(966,437,cs),
(923,248,o),
(777,140,o),
(567,140,c),
(472,140,o),
(386,158,o),
(329,190,c),
(292,27,l),
(348,-3,o),
(441,-20,o),
(549,-20,c),
(866,-20,o),
(1083,145,o),
(1145,432,cs),
(1208,728,o),
(1055,891,o),
(725,879,c),
(726,887,l),
(1191,1281,l),
(1225,1443,l),
(296,1443,l)
);
},
{
closed = 1;
nodes = (
(-10,0,l),
(170,0,l),
(460,1365,l),
(280,1365,l)
);
}
);
width = 1224;
},
{
layerId = "F66262BA-5A1D-44F4-BFD7-97C08A9A14E5";
shapes = (
{
closed = 1;
nodes = (
(222,1123,l),
(989,1123,l),
(987,1111,l),
(644,816,l),
(605,631,l),
(822,631,ls),
(958,631,o),
(1025,574,o),
(1007,474,c),
(984,359,o),
(899,293,o),
(772,293,c),
(684,293,o),
(598,311,o),
(537,342,c),
(465,19,l),
(586,-20,o),
(709,-40,o),
(802,-37,c),
(1124,-37,o),
(1347,144,o),
(1414,459,c),
(1470,739,o),
(1344,888,o),
(1068,867,c),
(1070,877,l),
(1462,1215,l),
(1512,1443,l),
(290,1443,l)
);
},
{
closed = 1;
nodes = (
(-16,0,l),
(384,0,l),
(662,1310,l),
(262,1310,l)
);
}
);
width = 1493;
}
);
metricLeft = B;
metricRight = B;
unicode = 7838;
},
{
glyphname = T;
kernLeft = T;
kernRight = T;
lastChange = "2025-04-30 03:00:35 +0000";
layers = (
{
anchors = (
{
name = bottom;
pos = (615,2);
},
{
name = center;
pos = (613,722);
},
{
name = top;
pos = (613,1443);
}
);
layerId = "B1815A28-7A99-448B-912A-F8CD41C6863A";
shapes = (
{
closed = 1;
nodes = (
(60,1395,l),
(588,1395,l),
(588,0,l),
(638,0,l),
(638,1395,l),
(1165,1395,l),
(1165,1443,l),
(60,1443,l)
);
}
);
width = 1225;
},
{
anchors = (
{
name = bottom;
pos = (623,1);
},
{
name = center;
pos = (623,722);
},
{
name = top;
pos = (623,1443);
}
);
layerId = "0A7ECE6A-DF67-46D8-8F43-1681A4AD540C";
shapes = (
{
closed = 1;
nodes = (
(60,1273,l),
(533,1273,l),
(533,0,l),
(713,0,l),
(713,1273,l),
(1185,1273,l),
(1185,1443,l),
(60,1443,l)
);
}
);
width = 1245;
},
{
anchors = (
{
name = bottom;
pos = (693,10);
},
{
name = center;
pos = (693,722);
},
{
name = top;
pos = (693,1442);
}
);
layerId = "0CA926B8-BF71-483F-A045-F233B587689B";
shapes = (
{
closed = 1;
nodes = (
(60,1092,l),
(488,1092,l),
(488,0,l),
(898,0,l),
(898,1092,l),
(1325,1092,l),
(1325,1442,l),
(60,1442,l)
);
}
);
width = 1385;
},
{
anchors = (
{
name = bottom;
pos = (505,2);
},
{
name = center;
pos = (656,722);
},
{
name = top;
pos = (809,1443);
}
);
layerId = "6871CC57-2503-4E31-BAA0-540E82C15514";
shapes = (
{
closed = 1;
nodes = (
(246,1395,l),
(774,1395,l),
(478,0,l),
(528,0,l),
(824,1395,l),
(1351,1395,l),
(1361,1443,l),
(256,1443,l)
);
}
);
width = 1225;
},
{
anchors = (
{
name = bottom;
pos = (503,1);
},
{
name = center;
pos = (656,722);
},
{
name = top;
pos = (809,1443);
}
);
layerId = "0655DA90-B56F-496E-8077-C2A69D96FC98";
shapes = (
{
closed = 1;
nodes = (
(220,1273,l),
(683,1273,l),
(413,0,l),
(593,0,l),
(863,1273,l),
(1325,1273,l),
(1361,1443,l),
(256,1443,l)
);
}
);
width = 1225;
},
{
anchors = (
{
name = bottom;
pos = (579,10);
},
{
name = center;
pos = (730,722);
},
{
name = top;
pos = (883,1442);
}
);
layerId = "F66262BA-5A1D-44F4-BFD7-97C08A9A14E5";
shapes = (
{
closed = 1;
nodes = (
(176,1092,l),
(605,1092,l),
(371,0,l),
(782,0,l),
(1015,1092,l),
(1441,1092,l),
(1515,1442,l),
(250,1442,l)
);
}
);
width = 1386;
}
);
metricLeft = O;
metricRight = O;
unicode = 84;
},
{
glyphname = Tbar;
kernLeft = T;
kernRight = T;
lastChange = "2025-04-30 03:00:35 +0000";
layers = (
{
layerId = "B1815A28-7A99-448B-912A-F8CD41C6863A";
shapes = (
{
closed = 1;
nodes = (
(255,752,l),
(990,752,l),
(990,799,l),
(255,799,l)
);
},
{
ref = T;
}
);
width = 1225;
},
{
layerId = "0A7ECE6A-DF67-46D8-8F43-1681A4AD540C";
shapes = (
{
closed = 1;
nodes = (
(166,649,l),
(1059,649,l),
(1059,799,l),
(166,799,l)
);
},
{
ref = T;
}
);
width = 1245;
},
{
layerId = "0CA926B8-BF71-483F-A045-F233B587689B";
shapes = (
{
closed = 1;
nodes = (
(188,566,l),
(1197,566,l),
(1197,818,l),
(188,818,l)
);
},
{
ref = T;
}
);
width = 1385;
},
{
layerId = "6871CC57-2503-4E31-BAA0-540E82C15514";
shapes = (
{
closed = 1;
nodes = (
(310,752,l),
(1045,752,l),
(1055,799,l),
(320,799,l)
);
},
{
ref = T;
}
);
width = 1225;
},
{
layerId = "0655DA90-B56F-496E-8077-C2A69D96FC98";
shapes = (
{
closed = 1;
nodes = (
(220,649,l),
(1113,649,l),
(1145,799,l),
(252,799,l)
);
},
{
ref = T;
}
);
width = 1225;
},
{
layerId = "F66262BA-5A1D-44F4-BFD7-97C08A9A14E5";
shapes = (
{
closed = 1;
nodes = (
(211,566,l),
(1220,566,l),
(1274,818,l),
(265,818,l)
);
},
{
ref = T;
}
);
width = 1386;
}
);
metricLeft = T;
metricRight = T;
tags = (
topbar
);
unicode = 358;
},
{
glyphname = U;
kernLeft = U;
kernRight = U;
lastChange = "2025-04-30 03:00:35 +0000";
layers = (
{
anchors = (
{
name = bottom;
pos = (628,0);
},
{
name = ogonek;
pos = (639,-10);
},
{
name = top;
pos = (628,1443);
},
{
name = topright;
pos = (1334,1443);
}
);
layerId = "B1815A28-7A99-448B-912A-F8CD41C6863A";
shapes = (
{
closed = 1;
nodes = (
(952,-19,o),
(1156,172,o),
(1156,477,c),
(1156,1443,l),
(1106,1443,l),
(1106,477,l),
(1106,202,o),
(921,30,o),
(627,30,c),
(334,30,o),
(150,202,o),
(150,477,c),
(150,1443,l),
(100,1443,l),
(100,477,l),
(100,172,o),
(303,-19,o),
(627,-19,c)
);
}
);
width = 1256;
},
{
anchors = (
{
name = bottom;
pos = (668,0);
},
{
name = ogonek;
pos = (680,-7);
},
{
name = top;
pos = (668,1443);
},
{
name = topright;
pos = (1284,1443);
}
);
layerId = "0A7ECE6A-DF67-46D8-8F43-1681A4AD540C";
shapes = (
{
closed = 1;
nodes = (
(1017,-20,o),
(1236,179,o),
(1236,497,c),
(1236,1443,l),
(1056,1443,l),
(1056,497,l),
(1056,284,o),
(906,150,o),
(667,150,c),
(429,150,o),
(280,284,o),
(280,497,c),
(280,1443,l),
(100,1443,l),
(100,497,l),
(100,179,o),
(319,-20,o),
(667,-20,c)
);
}
);
width = 1336;
},
{
anchors = (
{
name = bottom;
pos = (756,-20);
},
{
name = ogonek;
pos = (759,-20);
},
{
name = top;
pos = (756,1443);
},
{
name = topright;
pos = (1444,1443);
}
);
layerId = "0CA926B8-BF71-483F-A045-F233B587689B";
shapes = (
{
closed = 1;
nodes = (
(1136,-37,o),
(1412,190,o),
(1412,503,c),
(1412,1443,l),
(1002,1443,l),
(1002,550,l),
(1002,407,o),
(898,303,o),
(755,303,c),
(613,303,o),
(510,411,o),
(510,560,c),
(510,1443,l),
(100,1443,l),
(100,493,l),
(100,186,o),
(375,-37,o),
(755,-37,c)
);
}
);
width = 1512;
},
{
anchors = (
{
name = bottom;
pos = (518,0);
},
{
name = ogonek;
pos = (527,-10);
},
{
name = top;
pos = (824,1443);
},
{
name = topright;
pos = (1530,1443);
}
);
layerId = "6871CC57-2503-4E31-BAA0-540E82C15514";
shapes = (
{
closed = 1;
nodes = (
(841,-19,o),
(1082,172,o),
(1147,477,c),
(1352,1443,l),
(1302,1443,l),
(1097,477,l),
(1039,202,o),
(808,30,o),
(513,30,c),
(220,30,o),
(83,202,o),
(141,477,c),
(346,1443,l),
(296,1443,l),
(91,477,l),
(26,172,o),
(193,-19,o),
(523,-19,c)
);
}
);
width = 1256;
},
{
anchors = (
{
name = bottom;
pos = (558,0);
},
{
name = ogonek;
pos = (568,-7);
},
{
name = top;
pos = (864,1443);
},
{
name = topright;
pos = (1480,1443);
}
);
layerId = "0655DA90-B56F-496E-8077-C2A69D96FC98";
shapes = (
{
closed = 1;
nodes = (
(910,-20,o),
(1164,179,o),
(1231,497,c),
(1432,1443,l),
(1252,1443,l),
(1051,497,l),
(1006,284,o),
(816,150,o),
(559,150,c),
(340,150,o),
(230,284,o),
(275,497,c),
(476,1443,l),
(296,1443,l),
(95,497,l),
(28,179,o),
(212,-20,o),
(573,-20,c)
);
}
);
width = 1336;
},
{
anchors = (
{
name = bottom;
pos = (635,-20);
},
{
name = ogonek;
pos = (638,-20);
},
{
name = top;
pos = (946,1443);
},
{
name = topright;
pos = (1634,1443);
}
);
layerId = "F66262BA-5A1D-44F4-BFD7-97C08A9A14E5";
shapes = (
{
closed = 1;
nodes = (
(1046,-37,o),
(1335,187,o),
(1411,543,c),
(1602,1443,l),
(1192,1443,l),
(998,530,l),
(969,391,o),
(847,303,o),
(683,303,c),
(545,303,o),
(477,394,o),
(508,540,c),
(700,1443,l),
(290,1443,l),
(97,533,l),
(22,183,o),
(240,-37,o),
(661,-37,c)
);
}
);
width = 1512;
}
);
metricLeft = H;
metricRight = H;
unicode = 85;
},
{
glyphname = V;
kernLeft = V;
kernRight = V;
lastChange = "2025-04-30 03:00:35 +0000";
layers = (
{
anchors = (
{
name = bottom;
pos = (629,0);
},
{
name = top;
pos = (629,1443);
}
);
layerId = "B1815A28-7A99-448B-912A-F8CD41C6863A";
shapes = (
{
closed = 1;
nodes = (
(658,0,l),
(1266,1443,l),
(1213,1443,l),
(635,75,l),
(631,75,l),
(63,1443,l),
(10,1443,l),
(608,0,l)
);
}
);
width = 1276;
},
{
anchors = (
{
name = bottom;
pos = (717,0);
},
{
name = top;
pos = (709,1443);
}
);
background = {
shapes = (
{
closed = 0;
nodes = (
(716,1443,l),
(716,0,l)
);
},
{
closed = 1;
nodes = (
(31,0,l),
(1405,0,l),
(1405,1443,l),
(31,1443,l)
);
},
{
closed = 0;
nodes = (
(1405,722,l),
(31,722,l)
);
},
{
closed = 0;
nodes = (
(1405,0,l),
(31,1443,l)
);
},
{
closed = 0;
nodes = (
(30,0,l),
(1405,1443,l)
);
}
);
};
layerId = "0A7ECE6A-DF67-46D8-8F43-1681A4AD540C";
shapes = (
{
closed = 1;
nodes = (
(814,0,l),
(1422,1443,l),
(1226,1443,l),
(722,220,l),
(712,220,l),
(206,1443,l),
(10,1443,l),
(620,0,l)
);
}
);
width = 1432;
},
{
anchors = (
{
name = bottom;
pos = (794,0);
},
{
name = top;
pos = (794,1443);
}
);
background = {
shapes = (
{
closed = 0;
nodes = (
(792,1443,l),
(792,0,l)
);
},
{
closed = 1;
nodes = (
(20,0,l),
(1567,0,l),
(1567,1443,l),
(20,1443,l)
);
},
{
closed = 0;
nodes = (
(1567,722,l),
(20,722,l)
);
},
{
closed = 0;
nodes = (
(1567,0,l),
(20,1443,l)
);
},
{
closed = 0;
nodes = (
(19,0,l),
(1567,1443,l)
);
}
);
};
layerId = "0CA926B8-BF71-483F-A045-F233B587689B";
shapes = (
{
closed = 1;
nodes = (
(985,0,l),
(1576,1443,l),
(1100,1443,l),
(802,534,l),
(784,534,l),
(486,1443,l),
(10,1443,l),
(602,0,l)
);
}
);
width = 1586;
},
{
anchors = (
{
name = bottom;
pos = (519,0);
},
{
name = top;
pos = (825,1443);
}
);
layerId = "6871CC57-2503-4E31-BAA0-540E82C15514";
shapes = (
{
closed = 1;
nodes = (
(549,0,l),
(1462,1443,l),
(1404,1443,l),
(538,75,l),
(534,75,l),
(257,1443,l),
(206,1443,l),
(498,0,l)
);
}
);
width = 1276;
},
{
anchors = (
{
name = bottom;
pos = (607,0);
},
{
name = top;
pos = (905,1443);
}
);
background = {
shapes = (
{
closed = 0;
nodes = (
(762,1443,l),
(762,0,l)
);
},
{
closed = 1;
nodes = (
(77,0,l),
(1451,0,l),
(1451,1443,l),
(77,1443,l)
);
},
{
closed = 0;
nodes = (
(1451,722,l),
(77,722,l)
);
},
{
closed = 0;
nodes = (
(1451,0,l),
(77,1443,l)
);
},
{
closed = 0;
nodes = (
(76,0,l),
(1451,1443,l)
);
}
);
};
layerId = "0655DA90-B56F-496E-8077-C2A69D96FC98";
shapes = (
{
closed = 1;
nodes = (
(704,0,l),
(1618,1443,l),
(1419,1443,l),
(648,220,l),
(638,220,l),
(392,1443,l),
(206,1443,l),
(510,0,l)
);
}
);
width = 1432;
},
{
anchors = (
{
name = bottom;
pos = (688,0);
},
{
name = top;
pos = (994,1443);
}
);
background = {
shapes = (
{
closed = 0;
nodes = (
(882,1443,l),
(882,0,l)
);
},
{
closed = 1;
nodes = (
(110,0,l),
(1657,0,l),
(1657,1443,l),
(110,1443,l)
);
},
{
closed = 0;
nodes = (
(1657,722,l),
(110,722,l)
);
},
{
closed = 0;
nodes = (
(1657,0,l),
(110,1443,l)
);
},
{
closed = 0;
nodes = (
(109,0,l),
(1657,1443,l)
);
}
);
};
layerId = "F66262BA-5A1D-44F4-BFD7-97C08A9A14E5";
shapes = (
{
closed = 1;
nodes = (
(879,0,l),
(1776,1443,l),
(1300,1443,l),
(809,534,l),
(791,534,l),
(686,1443,l),
(210,1443,l),
(496,0,l)
);
}
);
width = 1606;
}
);
unicode = 86;
},
{
glyphname = W;
kernLeft = V;
kernRight = V;
lastChange = "2025-04-30 03:00:35 +0000";
layers = (
{
anchors = (
{
name = bottom;
pos = (993,0);
},
{
name = top;
pos = (1029,1443);
}
);
layerId = "0A7ECE6A-DF67-46D8-8F43-1681A4AD540C";
shapes = (
{
closed = 1;
nodes = (
(517,0,l),
(746,0,l),
(1039,890,l),
(943,1120,l),
(633,195,l),
(623,195,l),
(205,1443,l),
(10,1443,l)
);
},
{
closed = 1;
nodes = (
(1295,0,l),
(1533,0,l),
(1976,1443,l),
(1786,1443,l),
(1416,195,l),
(1406,195,l),
(1022,1443,l),
(828,1443,l)
);
}
);
width = 1986;
},
{
anchors = (
{
name = bottom;
pos = (1173,0);
},
{
name = top;
pos = (1269,1443);
}
);
layerId = "0CA926B8-BF71-483F-A045-F233B587689B";
shapes = (
{
closed = 1;
nodes = (
(524,0,l),
(993,0,l),
(1246,817,l),
(1045,1234,l),
(789,376,l),
(769,376,l),
(475,1443,l),
(10,1443,l)
);
},
{
closed = 1;
nodes = (
(1426,0,l),
(1866,0,l),
(2277,1443,l),
(1816,1443,l),
(1619,376,l),
(1599,376,l),
(1317,1443,l),
(940,1443,l)
);
}
);
width = 2287;
},
{
anchors = (
{
name = bottom;
pos = (978,0);
},
{
name = top;
pos = (897,1443);
}
);
layerId = "B1815A28-7A99-448B-912A-F8CD41C6863A";
shapes = (
{
closed = 1;
nodes = (
(527,0,l),
(587,0,l),
(960,1080,l),
(934,1148,l),
(560,65,l),
(554,65,l),
(64,1443,l),
(10,1443,l)
);
},
{
closed = 1;
nodes = (
(1332,0,l),
(1401,0,l),
(1791,1443,l),
(1739,1443,l),
(1368,65,l),
(1362,65,l),
(864,1443,l),
(812,1443,l)
);
}
);
width = 1801;
},
{
anchors = (
{
name = bottom;
pos = (887,0);
},
{
name = top;
pos = (1193,1443);
}
);
layerId = "6871CC57-2503-4E31-BAA0-540E82C15514";
shapes = (
{
closed = 1;
nodes = (
(467,0,l),
(533,0,l),
(1155,1270,l),
(1141,1345,l),
(513,65,l),
(507,65,l),
(260,1443,l),
(206,1443,l)
);
},
{
closed = 1;
nodes = (
(1302,0,l),
(1371,0,l),
(2157,1443,l),
(2105,1443,l),
(1351,65,l),
(1345,65,l),
(1160,1443,l),
(1108,1443,l)
);
}
);
width = 1971;
},
{
anchors = (
{
name = bottom;
pos = (973,0);
},
{
name = top;
pos = (1315,1443);
}
);
layerId = "0655DA90-B56F-496E-8077-C2A69D96FC98";
shapes = (
{
closed = 1;
nodes = (
(427,0,l),
(656,0,l),
(1306,1374,l),
(1134,1374,l),
(584,195,l),
(574,195,l),
(401,1443,l),
(206,1443,l)
);
},
{
closed = 1;
nodes = (
(1255,0,l),
(1493,0,l),
(2262,1443,l),
(2072,1443,l),
(1417,195,l),
(1407,195,l),
(1308,1443,l),
(1118,1443,l)
);
}
);
width = 2076;
},
{
anchors = (
{
name = bottom;
pos = (1117,0);
},
{
name = top;
pos = (1519,1443);
}
);
layerId = "F66262BA-5A1D-44F4-BFD7-97C08A9A14E5";
shapes = (
{
closed = 1;
nodes = (
(428,0,l),
(897,0,l),
(1565,1342,l),
(1210,1342,l),
(794,476,l),
(774,476,l),
(675,1443,l),
(210,1443,l)
);
},
{
closed = 1;
nodes = (
(1350,0,l),
(1790,0,l),
(2527,1443,l),
(2066,1443,l),
(1644,476,l),
(1624,476,l),
(1567,1443,l),
(1190,1443,l)
);
}
);
width = 2357;
}
);
metricLeft = V;
metricRight = V;
unicode = 87;
},
{
glyphname = X;
kernLeft = X;
kernRight = X;
lastChange = "2025-04-30 03:00:35 +0000";
layers = (
{
anchors = (
{
name = bottom;
pos = (640,0);
},
{
name = top;
pos = (640,1443);
}
);
background = {
shapes = (
{
closed = 0;
nodes = (
(641,1443,l),
(641,0,l)
);
},
{
closed = 1;
nodes = (
(-121,0,l),
(1406,0,l),
(1406,1443,l),
(-121,1443,l)
);
},
{
closed = 0;
nodes = (
(1406,722,l),
(-121,722,l)
);
},
{
closed = 0;
nodes = (
(1406,0,l),
(-121,1443,l)
);
},
{
closed = 0;
nodes = (
(-122,0,l),
(1406,1443,l)
);
}
);
};
layerId = "B1815A28-7A99-448B-912A-F8CD41C6863A";
shapes = (
{
closed = 1;
nodes = (
(604,727,l),
(20,0,l),
(82,0,l),
(640,692,l),
(642,692,l),
(1201,0,l),
(1263,0,l),
(678,727,l),
(1242,1443,l),
(1180,1443,l),
(642,762,l),
(640,762,l),
(101,1443,l),
(39,1443,l)
);
}
);
width = 1283;
},
{
anchors = (
{
name = bottom;
pos = (692,0);
},
{
name = top;
pos = (692,1443);
}
);
background = {
shapes = (
{
closed = 0;
nodes = (
(700,1443,l),
(700,0,l)
);
},
{
closed = 1;
nodes = (
(-62,0,l),
(1465,0,l),
(1465,1443,l),
(-62,1443,l)
);
},
{
closed = 0;
nodes = (
(1465,722,l),
(-62,722,l)
);
},
{
closed = 0;
nodes = (
(1465,0,l),
(-62,1443,l)
);
},
{
closed = 0;
nodes = (
(-63,0,l),
(1465,1443,l)
);
}
);
};
layerId = "0A7ECE6A-DF67-46D8-8F43-1681A4AD540C";
shapes = (
{
closed = 1;
nodes = (
(572,731,l),
(20,0,l),
(252,0,l),
(697,606,l),
(703,606,l),
(1136,0,l),
(1368,0,l),
(827,731,l),
(1368,1443,l),
(1136,1443,l),
(703,846,l),
(697,846,l),
(272,1443,l),
(40,1443,l)
);
}
);
width = 1388;
},
{
anchors = (
{
name = bottom;
pos = (816,0);
},
{
name = top;
pos = (816,1443);
}
);
background = {
shapes = (
{
closed = 0;
nodes = (
(814,1443,l),
(814,0,l)
);
},
{
closed = 1;
nodes = (
(-49,0,l),
(1681,0,l),
(1681,1443,l),
(-49,1443,l)
);
},
{
closed = 0;
nodes = (
(1681,722,l),
(-49,722,l)
);
},
{
closed = 0;
nodes = (
(1681,0,l),
(-49,1443,l)
);
},
{
closed = 0;
nodes = (
(-50,0,l),
(1681,1443,l)
);
}
);
};
layerId = "0CA926B8-BF71-483F-A045-F233B587689B";
shapes = (
{
closed = 1;
nodes = (
(504,736,l),
(20,0,l),
(535,0,l),
(808,463,l),
(820,463,l),
(1093,0,l),
(1608,0,l),
(1125,736,l),
(1574,1443,l),
(1062,1443,l),
(821,985,l),
(807,985,l),
(566,1443,l),
(54,1443,l)
);
}
);
width = 1628;
},
{
anchors = (
{
name = bottom;
pos = (559,0);
},
{
name = top;
pos = (813,1443);
}
);
background = {
shapes = (
{
closed = 0;
nodes = (
(687,1443,l),
(687,0,l)
);
},
{
closed = 1;
nodes = (
(-75,0,l),
(1452,0,l),
(1452,1443,l),
(-75,1443,l)
);
},
{
closed = 0;
nodes = (
(1452,722,l),
(-75,722,l)
);
},
{
closed = 0;
nodes = (
(1452,0,l),
(-75,1443,l)
);
},
{
closed = 0;
nodes = (
(-76,0,l),
(1452,1443,l)
);
}
);
};
layerId = "6871CC57-2503-4E31-BAA0-540E82C15514";
shapes = (
{
closed = 1;
nodes = (
(653,729,l),
(-64,0,l),
(5,0,l),
(685,692,l),
(691,692,l),
(1124,0,l),
(1182,0,l),
(729,727,l),
(1419,1443,l),
(1353,1443,l),
(695,762,l),
(693,762,l),
(274,1443,l),
(216,1443,l)
);
}
);
width = 1313;
},
{
anchors = (
{
name = bottom;
pos = (597,0);
},
{
name = top;
pos = (851,1443);
}
);
background = {
shapes = (
{
closed = 0;
nodes = (
(732,1443,l),
(732,0,l)
);
},
{
closed = 1;
nodes = (
(-30,0,l),
(1497,0,l),
(1497,1443,l),
(-30,1443,l)
);
},
{
closed = 0;
nodes = (
(1497,722,l),
(-30,722,l)
);
},
{
closed = 0;
nodes = (
(1497,0,l),
(-30,1443,l)
);
},
{
closed = 0;
nodes = (
(-31,0,l),
(1497,1443,l)
);
}
);
};
layerId = "0655DA90-B56F-496E-8077-C2A69D96FC98";
shapes = (
{
closed = 1;
nodes = (
(613,731,l),
(-65,0,l),
(187,0,l),
(729,606,l),
(745,606,l),
(1041,0,l),
(1260,0,l),
(878,731,l),
(1537,1443,l),
(1285,1443,l),
(757,846,l),
(741,846,l),
(431,1443,l),
(216,1443,l)
);
}
);
width = 1391;
},
{
anchors = (
{
name = bottom;
pos = (718,0);
},
{
name = top;
pos = (972,1443);
}
);
background = {
shapes = (
{
closed = 0;
nodes = (
(843,1443,l),
(843,0,l)
);
},
{
closed = 1;
nodes = (
(-20,0,l),
(1710,0,l),
(1710,1443,l),
(-20,1443,l)
);
},
{
closed = 0;
nodes = (
(1710,722,l),
(-20,722,l)
);
},
{
closed = 0;
nodes = (
(1710,0,l),
(-20,1443,l)
);
},
{
closed = 0;
nodes = (
(-21,0,l),
(1710,1443,l)
);
}
);
};
layerId = "F66262BA-5A1D-44F4-BFD7-97C08A9A14E5";
shapes = (
{
closed = 1;
nodes = (
(576,736,l),
(-78,0,l),
(487,0,l),
(841,463,l),
(853,463,l),
(1015,0,l),
(1510,0,l),
(1167,736,l),
(1780,1443,l),
(1218,1443,l),
(896,985,l),
(882,985,l),
(722,1443,l),
(210,1443,l)
);
}
);
width = 1647;
}
);
unicode = 88;
},
{
glyphname = Y;
kernLeft = Y;
kernRight = Y;
lastChange = "2025-04-30 03:00:35 +0000";
layers = (
{
anchors = (
{
name = bottom;
pos = (575,0);
},
{
name = top;
pos = (606,1393);
},
{
name = topleft;
pos = (-137,1443);
}
);
layerId = "B1815A28-7A99-448B-912A-F8CD41C6863A";
shapes = (
{
closed = 1;
nodes = (
(581,511,l),
(581,0,l),
(631,0,l),
(631,511,l),
(1202,1443,l),
(1146,1443,l),
(607,564,l),
(605,564,l),
(66,1443,l),
(10,1443,l)
);
}
);
width = 1212;
},
{
anchors = (
{
name = bottom;
pos = (669,0);
},
{
name = top;
pos = (666,1403);
},
{
name = topleft;
pos = (-247,1443);
}
);
background = {
shapes = (
{
closed = 0;
nodes = (
(666,1443,l),
(666,0,l)
);
},
{
closed = 1;
nodes = (
(1,0,l),
(1335,0,l),
(1335,1443,l),
(1,1443,l)
);
},
{
closed = 0;
nodes = (
(1335,722,l),
(1,722,l)
);
},
{
closed = 0;
nodes = (
(1335,0,l),
(1,1443,l)
);
},
{
closed = 0;
nodes = (
(0,0,l),
(1335,1443,l)
);
}
);
};
layerId = "0A7ECE6A-DF67-46D8-8F43-1681A4AD540C";
shapes = (
{
closed = 1;
nodes = (
(576,521,l),
(576,0,l),
(756,0,l),
(756,521,l),
(1322,1443,l),
(1112,1443,l),
(672,705,l),
(662,705,l),
(220,1443,l),
(10,1443,l)
);
}
);
width = 1332;
},
{
anchors = (
{
name = bottom;
pos = (747,0);
},
{
name = top;
pos = (746,1443);
},
{
name = topleft;
pos = (-302,1443);
}
);
background = {
shapes = (
{
closed = 0;
nodes = (
(746,1443,l),
(746,0,l)
);
},
{
closed = 1;
nodes = (
(20,0,l),
(1476,0,l),
(1476,1443,l),
(20,1443,l)
);
},
{
closed = 0;
nodes = (
(1476,722,l),
(20,722,l)
);
},
{
closed = 0;
nodes = (
(1476,0,l),
(20,1443,l)
);
},
{
closed = 0;
nodes = (
(19,0,l),
(1476,1443,l)
);
}
);
};
layerId = "0CA926B8-BF71-483F-A045-F233B587689B";
shapes = (
{
closed = 1;
nodes = (
(540,458,l),
(540,0,l),
(950,0,l),
(950,464,l),
(1484,1443,l),
(1008,1443,l),
(755,851,l),
(737,851,l),
(485,1443,l),
(10,1443,l)
);
}
);
width = 1494;
},
{
anchors = (
{
name = bottom;
pos = (465,0);
},
{
name = top;
pos = (792,1393);
},
{
name = topleft;
pos = (-231,1443);
}
);
layerId = "6871CC57-2503-4E31-BAA0-540E82C15514";
shapes = (
{
closed = 1;
nodes = (
(579,511,l),
(471,0,l),
(521,0,l),
(629,511,l),
(1398,1443,l),
(1334,1443,l),
(617,568,l),
(611,568,l),
(258,1443,l),
(206,1443,l)
);
}
);
width = 1212;
},
{
anchors = (
{
name = bottom;
pos = (559,0);
},
{
name = top;
pos = (854,1403);
},
{
name = topleft;
pos = (-301,1443);
}
);
background = {
shapes = (
{
closed = 0;
nodes = (
(709,1443,l),
(709,0,l)
);
},
{
closed = 1;
nodes = (
(44,0,l),
(1378,0,l),
(1378,1443,l),
(44,1443,l)
);
},
{
closed = 0;
nodes = (
(1378,722,l),
(44,722,l)
);
},
{
closed = 0;
nodes = (
(1378,0,l),
(44,1443,l)
);
},
{
closed = 0;
nodes = (
(43,0,l),
(1378,1443,l)
);
}
);
};
layerId = "0655DA90-B56F-496E-8077-C2A69D96FC98";
shapes = (
{
closed = 1;
nodes = (
(576,521,l),
(466,0,l),
(646,0,l),
(756,521,l),
(1518,1443,l),
(1308,1443,l),
(711,705,l),
(701,705,l),
(416,1443,l),
(206,1443,l)
);
}
);
width = 1332;
},
{
anchors = (
{
name = bottom;
pos = (641,0);
},
{
name = top;
pos = (946,1443);
},
{
name = topleft;
pos = (-462,1443);
}
);
background = {
shapes = (
{
closed = 0;
nodes = (
(793,1443,l),
(793,0,l)
);
},
{
closed = 1;
nodes = (
(67,0,l),
(1523,0,l),
(1523,1443,l),
(67,1443,l)
);
},
{
closed = 0;
nodes = (
(1523,722,l),
(67,722,l)
);
},
{
closed = 0;
nodes = (
(1523,0,l),
(67,1443,l)
);
},
{
closed = 0;
nodes = (
(66,0,l),
(1523,1443,l)
);
}
);
};
layerId = "F66262BA-5A1D-44F4-BFD7-97C08A9A14E5";
shapes = (
{
closed = 1;
nodes = (
(531,458,l),
(434,0,l),
(844,0,l),
(942,464,l),
(1684,1443,l),
(1208,1443,l),
(819,801,l),
(801,801,l),
(685,1443,l),
(210,1443,l)
);
}
);
width = 1514;
}
);
metricLeft = V;
metricRight = V;
unicode = 89;
},
{
glyphname = Z;
kernLeft = Z;
kernRight = Z;
lastChange = "2025-04-30 03:00:35 +0000";
layers = (
{
anchors = (
{
name = bottom;
pos = (666,0);
},
{
name = center;
pos = (596,722);
},
{
name = top;
pos = (582,1443);
}
);
layerId = "B1815A28-7A99-448B-912A-F8CD41C6863A";
shapes = (
{
closed = 1;
nodes = (
(1159,0,l),
(1159,49,l),
(132,49,l),
(132,69,l),
(113,26,l),
(1132,1406,l),
(1132,1443,l),
(72,1443,l),
(72,1395,l),
(1064,1395,l),
(1064,1374,l),
(1083,1419,l),
(60,37,l),
(60,-1,l)
);
}
);
width = 1219;
},
{
anchors = (
{
name = bottom;
pos = (664,0);
},
{
name = center;
pos = (594,722);
},
{
name = top;
pos = (574,1443);
}
);
layerId = "0A7ECE6A-DF67-46D8-8F43-1681A4AD540C";
shapes = (
{
closed = 1;
nodes = (
(1177,0,l),
(1177,169,l),
(317,169,l),
(317,219,l),
(269,115,l),
(1130,1326,l),
(1130,1443,l),
(60,1443,l),
(60,1273,l),
(862,1273,l),
(862,1218,l),
(922,1338,l),
(68,137,l),
(68,-1,l)
);
}
);
width = 1237;
},
{
anchors = (
{
name = bottom;
pos = (733,0);
},
{
name = center;
pos = (639,722);
},
{
name = top;
pos = (633,1443);
}
);
layerId = "0CA926B8-BF71-483F-A045-F233B587689B";
shapes = (
{
closed = 1;
nodes = (
(1289,0,l),
(1289,350,l),
(583,350,l),
(583,443,l),
(467,218,l),
(1242,1166,l),
(1242,1443,l),
(62,1443,l),
(62,1093,l),
(760,1093,l),
(760,992,l),
(877,1214,l),
(60,258,l),
(60,-1,l)
);
}
);
width = 1349;
},
{
anchors = (
{
name = bottom;
pos = (575,0);
},
{
name = center;
pos = (638,722);
},
{
name = top;
pos = (777,1443);
}
);
layerId = "6871CC57-2503-4E31-BAA0-540E82C15514";
shapes = (
{
closed = 1;
nodes = (
(1048,0,l),
(1058,49,l),
(37,49,l),
(41,69,l),
(13,26,l),
(1320,1406,l),
(1327,1443,l),
(267,1443,l),
(257,1395,l),
(1243,1395,l),
(1239,1374,l),
(1267,1419,l),
(-43,37,l),
(-51,-1,l)
);
}
);
width = 1219;
},
{
anchors = (
{
name = bottom;
pos = (574,0);
},
{
name = center;
pos = (637,722);
},
{
name = top;
pos = (770,1443);
}
);
layerId = "0655DA90-B56F-496E-8077-C2A69D96FC98";
shapes = (
{
closed = 1;
nodes = (
(1067,0,l),
(1103,169,l),
(263,169,l),
(273,219,l),
(203,115,l),
(1302,1326,l),
(1326,1443,l),
(256,1443,l),
(220,1273,l),
(1002,1273,l),
(991,1218,l),
(1076,1338,l),
(-13,137,l),
(-42,-1,l)
);
}
);
width = 1238;
},
{
anchors = (
{
name = bottom;
pos = (596,0);
},
{
name = center;
pos = (675,722);
},
{
name = top;
pos = (822,1443);
}
);
layerId = "F66262BA-5A1D-44F4-BFD7-97C08A9A14E5";
shapes = (
{
closed = 1;
nodes = (
(1172,0,l),
(1246,350,l),
(580,350,l),
(600,443,l),
(436,218,l),
(1373,1166,l),
(1431,1443,l),
(251,1443,l),
(177,1093,l),
(835,1093,l),
(814,992,l),
(978,1214,l),
(-2,258,l),
(-57,-1,l)
);
}
);
width = 1349;
}
);
metricLeft = O;
metricRight = O;
unicode = 90;
},
{
glyphname = a;
kernLeft = sround;
kernRight = a;
lastChange = "2025-04-30 03:00:35 +0000";
layers = (
{
anchors = (
{
name = bottom;
pos = (494,-11);
},
{
name = ogonek;
pos = (870,1);
},
{
name = top;
pos = (494,1052);
}
);
associatedMasterId = "B1815A28-7A99-448B-912A-F8CD41C6863A";
layerId = "E5EA7542-6A1C-43F6-8149-DAE2CDF6E452";
name = "Dec 16, 24 at 08:46";
shapes = (
{
closed = 1;
nodes = (
(627,-22,o),
(780,72,o),
(841,217,c),
(847,217,l),
(847,0,l),
(897,0,l),
(897,679,ls),
(897,906,o),
(736,1053,o),
(488,1053,cs),
(352,1053,o),
(217,1017,o),
(144,961,c),
(172,914,l),
(243,969,o),
(367,1005,o),
(488,1005,cs),
(706,1005,o),
(847,877,o),
(847,679,cs),
(847,335,l),
(788,147,o),
(633,26,o),
(452,26,cs),
(244,26,o),
(110,144,o),
(110,326,cs),
(108,503,o),
(248,617,o),
(466,617,cs),
(660,617,o),
(809,507,o),
(847,338,c),
(847,452,l),
(841,452,l),
(795,583,o),
(647,668,o),
(466,668,cs),
(219,668,o),
(60,534,o),
(60,326,cs),
(60,115,o),
(214,-22,o),
(452,-22,cs)
);
}
);
width = 1007;
},
{
anchors = (
{
name = bottom;
pos = (494,-11);
},
{
name = ogonek;
pos = (870,1);
},
{
name = top;
pos = (494,1052);
}
);
layerId = "B1815A28-7A99-448B-912A-F8CD41C6863A";
name = "wght=100";
shapes = (
{
closed = 1;
nodes = (
(611,-22,o),
(783,78,o),
(841,217,c),
(847,217,l),
(847,0,l),
(897,0,l),
(897,679,ls),
(897,896,o),
(725,1053,o),
(488,1053,cs),
(357,1053,o),
(213,1014,o),
(144,961,c),
(172,914,l),
(240,967,o),
(373,1005,o),
(488,1005,cs),
(696,1005,o),
(847,868,o),
(847,679,cs),
(847,335,l),
(791,156,o),
(617,26,o),
(432,26,cs),
(245,26,o),
(110,127,o),
(110,266,cs),
(108,405,o),
(249,519,o),
(446,537,cs),
(541,547,o),
(718,539,o),
(869,518,c),
(869,569,l),
(769,589,o),
(591,597,o),
(446,588,cs),
(222,574,o),
(60,438,o),
(60,266,cs),
(60,99,o),
(216,-22,o),
(432,-22,cs)
);
}
);
width = 1007;
},
{
anchors = (
{
name = bottom;
pos = (554,-11);
},
{
name = ogonek;
pos = (902,1);
},
{
name = top;
pos = (554,1054);
}
);
associatedMasterId = "0A7ECE6A-DF67-46D8-8F43-1681A4AD540C";
layerId = "7F3EABB1-D34C-4EDD-9399-451E48DC4245";
name = "Dec 16, 24 at 08:46";
shapes = (
{
closed = 1;
nodes = (
(621,-22,o),
(737,38,o),
(785,130,c),
(797,130,l),
(797,0,l),
(977,0,l),
(977,661,ls),
(977,900,o),
(788,1055,o),
(496,1055,cs),
(374,1055,o),
(244,1028,o),
(166,985,c),
(225,836,l),
(301,872,o),
(407,895,o),
(496,895,cs),
(679,895,o),
(797,798,o),
(797,649,cs),
(797,351,l),
(754,222,o),
(637,138,o),
(500,138,cs),
(342,138,o),
(240,215,o),
(240,334,cs),
(239,455,o),
(331,533,o),
(474,533,cs),
(636,533,o),
(764,462,o),
(799,353,c),
(799,563,l),
(785,563,l),
(726,639,o),
(604,688,o),
(474,688,cs),
(223,688,o),
(60,549,o),
(60,334,cs),
(60,118,o),
(229,-22,o),
(490,-22,cs)
);
}
);
width = 1087;
},
{
anchors = (
{
name = bottom;
pos = (554,-11);
},
{
name = ogonek;
pos = (902,1);
},
{
name = top;
pos = (554,1054);
}
);
layerId = "0A7ECE6A-DF67-46D8-8F43-1681A4AD540C";
name = Regular;
shapes = (
{
closed = 1;
nodes = (
(608,-22,o),
(738,39,o),
(785,130,c),
(797,130,l),
(797,0,l),
(977,0,l),
(977,661,ls),
(977,897,o),
(785,1055,o),
(496,1055,cs),
(374,1055,o),
(226,1023,o),
(126,975,c),
(185,826,l),
(272,867,o),
(396,895,o),
(496,895,cs),
(677,895,o),
(797,797,o),
(797,649,cs),
(797,351,l),
(754,223,o),
(623,138,o),
(470,138,cs),
(332,138,o),
(240,198,o),
(240,304,cs),
(239,397,o),
(345,475,o),
(504,484,cs),
(630,487,o),
(756,475,o),
(819,455,c),
(819,613,l),
(737,633,o),
(611,644,o),
(504,641,cs),
(238,629,o),
(60,488,o),
(60,304,cs),
(60,102,o),
(220,-22,o),
(460,-22,cs)
);
}
);
width = 1087;
},
{
anchors = (
{
name = bottom;
pos = (662,4);
},
{
name = ogonek;
pos = (943,4);
},
{
name = top;
pos = (607,1123);
}
);
associatedMasterId = "0CA926B8-BF71-483F-A045-F233B587689B";
layerId = "1C71C2B3-27C6-4DC5-B994-52F042ABAD46";
name = "Dec 16, 24 at 08:46";
shapes = (
{
closed = 1;
nodes = (
(567,-39,o),
(681,13,o),
(719,94,c),
(739,94,l),
(739,1,l),
(1139,1,l),
(1139,692,ls),
(1139,954,o),
(945,1123,o),
(645,1123,cs),
(470,1123,o),
(294,1097,o),
(195,1056,c),
(257,752,l),
(340,782,o),
(445,801,o),
(526,801,cs),
(655,801,o),
(739,750,o),
(739,670,cs),
(739,397,l),
(737,277,o),
(674,200,o),
(579,200,cs),
(506,200,o),
(459,241,o),
(459,304,cs),
(459,369,o),
(511,415,o),
(592,422,cs),
(662,426,o),
(730,390,o),
(766,331,c),
(766,561,l),
(716,561,l),
(656,619,o),
(546,657,o),
(436,657,cs),
(210,657,o),
(62,522,o),
(60,314,cs),
(58,100,o),
(203,-39,o),
(429,-39,cs)
);
}
);
width = 1249;
},
{
anchors = (
{
name = bottom;
pos = (662,4);
},
{
name = ogonek;
pos = (943,4);
},
{
name = top;
pos = (607,1123);
}
);
layerId = "0CA926B8-BF71-483F-A045-F233B587689B";
name = "wght=1000";
shapes = (
{
closed = 1;
nodes = (
(557,-39,o),
(681,14,o),
(719,94,c),
(739,94,l),
(739,1,l),
(1139,1,l),
(1139,692,ls),
(1139,951,o),
(941,1123,o),
(645,1123,cs),
(478,1123,o),
(290,1092,o),
(175,1046,c),
(237,742,l),
(335,777,o),
(450,801,o),
(526,801,cs),
(654,801,o),
(739,749,o),
(739,670,cs),
(739,397,l),
(737,279,o),
(673,200,o),
(579,200,cs),
(507,200,o),
(459,242,o),
(459,304,cs),
(459,368,o),
(512,415,o),
(592,422,cs),
(665,426,o),
(734,410,o),
(766,381,c),
(766,631,l),
(643,662,o),
(503,672,o),
(416,657,cs),
(204,623,o),
(62,486,o),
(60,314,cs),
(58,102,o),
(198,-39,o),
(409,-39,cs)
);
}
);
width = 1249;
},
{
anchors = (
{
name = bottom;
pos = (381,-11);
},
{
name = ogonek;
pos = (760,1);
},
{
name = top;
pos = (607,1052);
}
);
associatedMasterId = "6871CC57-2503-4E31-BAA0-540E82C15514";
layerId = "41F90CF7-11AA-468D-8091-A6C237A5ED0E";
name = "Dec 16, 24 at 08:46";
shapes = (
{
closed = 1;
nodes = (
(512,-22,o),
(685,72,o),
(777,217,c),
(783,217,l),
(736,0,l),
(786,0,l),
(931,679,ls),
(979,906,o),
(849,1053,o),
(601,1053,cs),
(465,1053,o),
(323,1017,o),
(238,961,c),
(256,914,l),
(338,969,o),
(470,1005,o),
(591,1005,cs),
(809,1005,o),
(923,877,o),
(881,679,cs),
(808,335,l),
(709,147,o),
(528,26,o),
(347,26,cs),
(139,26,o),
(30,144,o),
(69,326,cs),
(104,503,o),
(269,617,o),
(487,617,cs),
(681,617,o),
(806,507,o),
(808,338,c),
(833,452,l),
(827,452,l),
(808,583,o),
(678,668,o),
(497,668,cs),
(250,668,o),
(63,534,o),
(19,326,cs),
(-26,115,o),
(99,-22,o),
(337,-22,cs)
);
}
);
width = 1007;
},
{
anchors = (
{
name = bottom;
pos = (381,-11);
},
{
name = ogonek;
pos = (760,1);
},
{
name = top;
pos = (607,1052);
}
);
layerId = "6871CC57-2503-4E31-BAA0-540E82C15514";
name = "wght=100, italic";
shapes = (
{
closed = 1;
nodes = (
(496,-22,o),
(689,78,o),
(777,217,c),
(783,217,l),
(736,0,l),
(786,0,l),
(931,679,ls),
(977,896,o),
(838,1053,o),
(601,1053,cs),
(470,1053,o),
(318,1014,o),
(238,961,c),
(256,914,l),
(335,967,o),
(486,1005,o),
(601,1005,cs),
(809,1005,o),
(921,868,o),
(881,679,cs),
(808,335,l),
(714,156,o),
(502,26,o),
(317,26,cs),
(130,26,o),
(26,127,o),
(56,266,cs),
(84,405,o),
(249,519,o),
(450,537,cs),
(547,547,o),
(722,539,o),
(869,518,c),
(879,569,l),
(784,589,o),
(607,597,o),
(460,588,cs),
(233,574,o),
(43,438,o),
(6,266,cs),
(-30,99,o),
(101,-22,o),
(317,-22,cs)
);
}
);
width = 1007;
},
{
anchors = (
{
name = bottom;
pos = (441,-11);
},
{
name = ogonek;
pos = (791,1);
},
{
name = top;
pos = (667,1054);
}
);
associatedMasterId = "0655DA90-B56F-496E-8077-C2A69D96FC98";
layerId = "B678B2A2-EEEF-4A9B-8D7D-DB57F28B46CB";
name = "Dec 16, 24 at 08:46";
shapes = (
{
closed = 1;
nodes = (
(506,-22,o),
(634,38,o),
(702,130,c),
(714,130,l),
(686,0,l),
(866,0,l),
(1007,661,ls),
(1058,900,o),
(901,1055,o),
(609,1055,cs),
(487,1055,o),
(352,1028,o),
(265,985,c),
(292,836,l),
(376,872,o),
(486,895,o),
(575,895,cs),
(758,895,o),
(856,798,o),
(824,649,cs),
(761,351,l),
(690,222,o),
(556,138,o),
(419,138,cs),
(261,138,o),
(175,215,o),
(200,334,cs),
(225,455,o),
(334,533,o),
(477,533,cs),
(639,533,o),
(751,462,o),
(763,353,c),
(808,563,l),
(794,563,l),
(751,639,o),
(639,688,o),
(509,688,cs),
(258,688,o),
(66,549,o),
(20,334,cs),
(-26,118,o),
(114,-22,o),
(375,-22,cs)
);
}
);
width = 1087;
},
{
anchors = (
{
name = bottom;
pos = (441,-11);
},
{
name = ogonek;
pos = (791,1);
},
{
name = top;
pos = (667,1054);
}
);
layerId = "0655DA90-B56F-496E-8077-C2A69D96FC98";
name = "Regular, italic";
shapes = (
{
closed = 1;
nodes = (
(493,-22,o),
(636,39,o),
(702,130,c),
(714,130,l),
(686,0,l),
(866,0,l),
(1007,661,ls),
(1057,897,o),
(898,1055,o),
(609,1055,cs),
(487,1055,o),
(333,1023,o),
(222,975,c),
(250,826,l),
(346,867,o),
(475,895,o),
(575,895,cs),
(756,895,o),
(856,797,o),
(824,649,cs),
(761,351,l),
(691,223,o),
(542,138,o),
(389,138,cs),
(251,138,o),
(173,208,o),
(196,314,cs),
(215,407,o),
(335,475,o),
(496,484,cs),
(623,487,o),
(746,475,o),
(805,455,c),
(839,613,l),
(761,633,o),
(637,644,o),
(529,641,cs),
(261,629,o),
(55,498,o),
(16,314,cs),
(-27,112,o),
(105,-22,o),
(345,-22,cs)
);
}
);
width = 1087;
},
{
anchors = (
{
name = bottom;
pos = (546,4);
},
{
name = ogonek;
pos = (827,4);
},
{
name = top;
pos = (728,1123);
}
);
associatedMasterId = "F66262BA-5A1D-44F4-BFD7-97C08A9A14E5";
layerId = "A2D628AB-5DB7-4875-9EF6-85B8AD5055F3";
name = "Dec 16, 24 at 08:46";
shapes = (
{
closed = 1;
nodes = (
(442,-39,o),
(567,13,o),
(622,94,c),
(642,94,l),
(622,1,l),
(1022,1,l),
(1169,692,ls),
(1225,954,o),
(1066,1123,o),
(766,1123,cs),
(591,1123,o),
(410,1097,o),
(302,1056,c),
(300,752,l),
(389,782,o),
(498,801,o),
(579,801,cs),
(708,801,o),
(781,750,o),
(764,670,cs),
(706,397,l),
(679,277,o),
(599,200,o),
(504,200,cs),
(431,200,o),
(393,241,o),
(406,304,cs),
(420,369,o),
(482,415,o),
(564,422,cs),
(635,426,o),
(696,390,o),
(719,331,c),
(768,561,l),
(718,561,l),
(670,619,o),
(568,657,o),
(458,657,cs),
(232,657,o),
(56,522,o),
(10,314,cs),
(-38,100,o),
(78,-39,o),
(304,-39,cs)
);
}
);
width = 1249;
},
{
anchors = (
{
name = bottom;
pos = (546,4);
},
{
name = ogonek;
pos = (827,4);
},
{
name = top;
pos = (728,1123);
}
);
layerId = "F66262BA-5A1D-44F4-BFD7-97C08A9A14E5";
name = "wght=1000, italic";
shapes = (
{
closed = 1;
nodes = (
(432,-39,o),
(567,14,o),
(622,94,c),
(642,94,l),
(622,1,l),
(1022,1,l),
(1169,692,ls),
(1224,951,o),
(1062,1123,o),
(766,1123,cs),
(599,1123,o),
(405,1092,o),
(280,1046,c),
(278,742,l),
(383,777,o),
(503,801,o),
(579,801,cs),
(707,801,o),
(781,749,o),
(764,670,cs),
(706,397,l),
(679,279,o),
(598,200,o),
(504,200,cs),
(432,200,o),
(393,242,o),
(406,304,cs),
(420,368,o),
(483,415,o),
(564,422,cs),
(638,426,o),
(704,410,o),
(730,381,c),
(783,631,l),
(667,662,o),
(529,672,o),
(438,657,cs),
(219,623,o),
(48,486,o),
(10,314,cs),
(-38,102,o),
(73,-39,o),
(284,-39,cs)
);
}
);
width = 1249;
}
);
metricLeft = o;
metricRight = i;
unicode = 97;
},
{
glyphname = ae;
kernLeft = sround;
kernRight = sround;
lastChange = "2025-04-30 03:00:35 +0000";
layers = (
{
layerId = "B1815A28-7A99-448B-912A-F8CD41C6863A";
shapes = (
{
closed = 1;
nodes = (
(709,-22,o),
(891,138,o),
(891,392,c),
(889,658,l),
(889,900,o),
(725,1052,o),
(465,1052,cs),
(329,1052,o),
(184,1012,o),
(91,949,c),
(119,899,l),
(191,964,o),
(325,1004,o),
(465,1004,cs),
(698,1004,o),
(844,871,o),
(844,658,cs),
(844,389,l),
(844,166,o),
(680,26,o),
(420,26,cs),
(230,26,o),
(110,122,o),
(110,276,cs),
(108,412,o),
(233,506,o),
(435,520,cs),
(507,527,o),
(674,531,o),
(866,531,c),
(866,580,l),
(705,580,o),
(538,576,o),
(435,569,cs),
(205,554,o),
(60,441,o),
(60,276,cs),
(60,93,o),
(199,-22,o),
(420,-22,cs)
);
},
{
closed = 1;
nodes = (
(892,528,l),
(1768,528,l),
(1768,576,l),
(1768,868,o),
(1597,1051,o),
(1324,1051,cs),
(1032,1051,o),
(849,857,o),
(849,547,cs),
(849,199,o),
(1038,-19,o),
(1338,-19,cs),
(1496,-19,o),
(1646,43,o),
(1727,141,c),
(1695,188,l),
(1620,90,o),
(1483,29,o),
(1338,29,cs),
(1069,29,o),
(900,224,o),
(900,535,c),
(900,569,l),
(900,836,o),
(1064,1003,o),
(1325,1003,cs),
(1566,1003,o),
(1718,838,o),
(1718,576,c),
(1718,540,l),
(1737,576,l),
(892,576,l)
);
}
);
width = 1828;
},
{
layerId = "0A7ECE6A-DF67-46D8-8F43-1681A4AD540C";
shapes = (
{
closed = 1;
nodes = (
(714,-22,o),
(901,159,o),
(901,446,c),
(912,660,l),
(912,903,o),
(743,1055,o),
(473,1055,cs),
(340,1055,o),
(194,1024,o),
(94,975,c),
(159,827,l),
(246,869,o),
(367,895,o),
(473,895,cs),
(652,895,o),
(764,804,o),
(764,660,cs),
(764,375,l),
(719,229,o),
(590,138,o),
(428,138,cs),
(313,138,o),
(240,193,o),
(240,281,cs),
(239,370,o),
(317,431,o),
(442,440,cs),
(484,440,o),
(617,444,o),
(786,451,c),
(786,607,l),
(692,606,o),
(559,602,o),
(442,596,cs),
(207,586,o),
(60,469,o),
(60,292,cs),
(60,99,o),
(198,-22,o),
(417,-22,cs)
);
},
{
closed = 1;
nodes = (
(952,438,l),
(1711,438,l),
(1711,577,l),
(1711,870,o),
(1535,1054,o),
(1254,1054,cs),
(970,1054,o),
(794,851,o),
(797,528,cs),
(798,192,o),
(989,-19,o),
(1291,-19,cs),
(1419,-19,o),
(1564,30,o),
(1669,109,c),
(1587,246,l),
(1516,181,o),
(1404,141,o),
(1297,141,cs),
(1087,141,o),
(955,257,o),
(955,441,c),
(955,601,l),
(955,780,o),
(1072,892,o),
(1258,892,cs),
(1429,892,o),
(1536,778,o),
(1536,596,c),
(1536,473,l),
(1644,598,l),
(949,598,l)
);
}
);
width = 1771;
},
{
layerId = "0CA926B8-BF71-483F-A045-F233B587689B";
shapes = (
{
closed = 1;
nodes = (
(806,-39,o),
(998,167,o),
(989,496,c),
(989,663,l),
(989,947,o),
(805,1125,o),
(511,1125,cs),
(396,1125,o),
(251,1100,o),
(134,1060,c),
(196,790,l),
(308,819,o),
(422,837,o),
(493,837,cs),
(644,837,o),
(738,759,o),
(738,635,cs),
(738,417,l),
(744,296,o),
(678,220,o),
(567,220,cs),
(480,220,o),
(425,260,o),
(425,325,cs),
(425,385,o),
(477,430,o),
(560,442,cs),
(648,449,o),
(728,450,o),
(769,446,c),
(757,676,l),
(599,675,o),
(451,666,o),
(374,652,cs),
(183,623,o),
(62,493,o),
(60,315,cs),
(58,98,o),
(224,-39,o),
(491,-39,cs)
);
},
{
closed = 1;
nodes = (
(1034,429,l),
(1798,429,l),
(1798,545,l),
(1798,901,o),
(1589,1125,o),
(1255,1125,cs),
(950,1125,o),
(760,899,o),
(762,540,cs),
(764,187,o),
(977,-35,o),
(1315,-35,cs),
(1500,-35,o),
(1672,30,o),
(1762,134,c),
(1577,373,l),
(1511,294,o),
(1411,245,o),
(1317,245,cs),
(1156,245,o),
(1055,323,o),
(1055,448,c),
(1055,649,l),
(1055,769,o),
(1133,845,o),
(1258,845,cs),
(1374,845,o),
(1447,767,o),
(1447,642,c),
(1447,513,l),
(1575,656,l),
(1033,656,l)
);
}
);
width = 1858;
},
{
layerId = "6871CC57-2503-4E31-BAA0-540E82C15514";
shapes = (
{
closed = 1;
nodes = (
(604,-22,o),
(815,138,o),
(859,392,c),
(904,658,l),
(947,900,o),
(810,1052,o),
(550,1052,cs),
(414,1052,o),
(262,1012,o),
(158,949,c),
(177,899,l),
(260,964,o),
(401,1004,o),
(541,1004,cs),
(774,1004,o),
(896,871,o),
(859,658,cs),
(812,389,l),
(772,166,o),
(574,26,o),
(314,26,cs),
(124,26,o),
(31,122,o),
(58,276,cs),
(80,412,o),
(221,506,o),
(426,520,cs),
(499,527,o),
(667,531,o),
(859,531,c),
(867,580,l),
(706,580,o),
(539,576,o),
(435,569,cs),
(202,554,o),
(37,441,o),
(8,276,cs),
(-24,93,o),
(94,-22,o),
(315,-22,cs)
);
},
{
closed = 1;
nodes = (
(884,528,l),
(1760,528,l),
(1769,576,l),
(1820,868,o),
(1682,1051,o),
(1409,1051,cs),
(1117,1051,o),
(899,857,o),
(845,547,cs),
(783,199,o),
(934,-19,o),
(1234,-19,cs),
(1392,-19,o),
(1553,43,o),
(1651,141,c),
(1627,188,l),
(1535,90,o),
(1387,29,o),
(1242,29,cs),
(973,29,o),
(839,224,o),
(894,535,c),
(900,569,l),
(947,836,o),
(1150,1003,o),
(1411,1003,cs),
(1652,1003,o),
(1765,838,o),
(1719,576,c),
(1712,540,l),
(1738,576,l),
(893,576,l)
);
}
);
width = 1818;
},
{
layerId = "0655DA90-B56F-496E-8077-C2A69D96FC98";
shapes = (
{
closed = 1;
nodes = (
(622,-22,o),
(828,148,o),
(881,446,c),
(929,660,l),
(973,911,o),
(839,1055,o),
(560,1055,cs),
(422,1055,o),
(279,1026,o),
(167,975,c),
(206,827,l),
(303,870,o),
(425,895,o),
(542,895,cs),
(720,895,o),
(807,809,o),
(781,660,cs),
(731,375,l),
(658,224,o),
(516,138,o),
(343,138,cs),
(230,138,o),
(175,190,o),
(190,281,cs),
(205,373,o),
(290,431,o),
(421,440,cs),
(470,440,o),
(596,444,o),
(766,451,c),
(794,607,l),
(690,606,o),
(564,602,o),
(448,596,cs),
(204,586,o),
(45,475,o),
(12,292,cs),
(-23,92,o),
(87,-22,o),
(314,-22,cs)
);
},
{
closed = 1;
nodes = (
(930,438,l),
(1689,438,l),
(1714,577,l),
(1767,880,o),
(1631,1054,o),
(1341,1054,cs),
(1047,1054,o),
(847,862,o),
(791,528,cs),
(731,180,o),
(876,-19,o),
(1189,-19,cs),
(1321,-19,o),
(1466,28,o),
(1589,109,c),
(1531,246,l),
(1447,179,o),
(1327,141,o),
(1203,141,cs),
(998,141,o),
(900,250,o),
(934,441,c),
(962,601,l),
(994,786,o),
(1130,892,o),
(1336,892,cs),
(1500,892,o),
(1575,784,o),
(1542,596,c),
(1520,473,l),
(1650,598,l),
(955,598,l)
);
}
);
width = 1766;
},
{
layerId = "F66262BA-5A1D-44F4-BFD7-97C08A9A14E5";
shapes = (
{
closed = 1;
nodes = (
(704,-39,o),
(920,156,o),
(971,496,c),
(1000,663,l),
(1052,957,o),
(908,1125,o),
(604,1125,cs),
(486,1125,o),
(344,1101,o),
(215,1060,c),
(230,790,l),
(351,820,o),
(462,837,o),
(535,837,cs),
(690,837,o),
(766,763,o),
(744,635,cs),
(706,417,l),
(689,292,o),
(607,220,o),
(480,220,cs),
(403,220,o),
(365,258,o),
(377,325,cs),
(387,387,o),
(444,430,o),
(532,442,cs),
(618,449,o),
(695,450,o),
(742,446,c),
(770,676,l),
(607,675,o),
(466,666,o),
(383,652,cs),
(180,622,o),
(44,499,o),
(10,315,cs),
(-31,90,o),
(103,-39,o),
(378,-39,cs)
);
},
{
closed = 1;
nodes = (
(1004,429,l),
(1768,429,l),
(1788,545,l),
(1853,914,o),
(1693,1125,o),
(1348,1125,cs),
(1032,1125,o),
(815,912,o),
(751,540,cs),
(689,174,o),
(854,-35,o),
(1203,-35,cs),
(1394,-35,o),
(1568,27,o),
(1680,134,c),
(1547,353,l),
(1477,284,o),
(1371,245,o),
(1254,245,cs),
(1087,245,o),
(1005,319,o),
(1028,448,c),
(1064,649,l),
(1086,774,o),
(1180,845,o),
(1321,845,cs),
(1429,845,o),
(1477,771,o),
(1454,642,c),
(1432,513,l),
(1585,656,l),
(1043,656,l)
);
}
);
width = 1854;
}
);
metricLeft = a;
metricRight = e;
unicode = 230;
},
{
glyphname = c;
kernLeft = sround;
kernRight = sround;
lastChange = "2025-04-30 03:00:35 +0000";
layers = (
{
anchors = (
{
name = bottom;
pos = (582,1);
},
{
name = top;
pos = (572,1054);
}
);
layerId = "B1815A28-7A99-448B-912A-F8CD41C6863A";
shapes = (
{
closed = 1;
nodes = (
(64,186,o),
(262,-20,o),
(572,-20,cs),
(759,-20,o),
(921,73,o),
(991,220,c),
(949,247,l),
(886,112,o),
(741,28,o),
(572,28,cs),
(292,28,o),
(114,215,o),
(110,513,cs),
(114,816,o),
(292,1006,o),
(572,1006,cs),
(736,1006,o),
(882,923,o),
(951,791,c),
(991,816,l),
(914,962,o),
(752,1054,o),
(572,1054,cs),
(262,1054,o),
(64,845,o),
(60,513,cs)
);
}
);
width = 1051;
},
{
anchors = (
{
name = bottom;
pos = (605,1);
},
{
name = top;
pos = (627,1055);
}
);
layerId = "0A7ECE6A-DF67-46D8-8F43-1681A4AD540C";
shapes = (
{
closed = 1;
nodes = (
(65,193,o),
(285,-20,o),
(609,-20,cs),
(816,-20,o),
(1000,94,o),
(1068,265,c),
(926,350,l),
(878,223,o),
(751,139,o),
(609,139,cs),
(391,139,o),
(243,289,o),
(240,513,cs),
(243,742,o),
(391,895,o),
(609,895,cs),
(751,895,o),
(878,809,o),
(926,681,c),
(1068,775,l),
(1001,943,o),
(817,1055,o),
(609,1055,cs),
(285,1055,o),
(65,838,o),
(60,513,cs)
);
}
);
width = 1128;
},
{
anchors = (
{
name = bottom;
pos = (694,9);
},
{
name = top;
pos = (692,1124);
}
);
layerId = "0CA926B8-BF71-483F-A045-F233B587689B";
shapes = (
{
closed = 1;
nodes = (
(64,198,o),
(305,-37,o),
(662,-37,cs),
(864,-37,o),
(1061,63,o),
(1154,213,c),
(918,419,l),
(883,345,o),
(799,295,o),
(708,295,cs),
(559,295,o),
(460,397,o),
(460,550,cs),
(460,696,o),
(559,794,o),
(708,794,cs),
(794,794,o),
(878,740,o),
(918,658,c),
(1154,843,l),
(1061,1012,o),
(864,1124,o),
(662,1124,cs),
(301,1124,o),
(60,894,o),
(60,550,cs)
);
}
);
width = 1214;
},
{
anchors = (
{
name = bottom;
pos = (491,1);
},
{
name = top;
pos = (667,1054);
}
);
layerId = "6871CC57-2503-4E31-BAA0-540E82C15514";
shapes = (
{
closed = 1;
nodes = (
(6,186,o),
(167,-20,o),
(477,-20,cs),
(665,-20,o),
(843,73,o),
(939,220,c),
(901,247,l),
(815,112,o),
(651,28,o),
(476,28,cs),
(203,28,o),
(61,215,o),
(109,513,cs),
(167,816,o),
(383,1006,o),
(668,1006,cs),
(826,1006,o),
(954,923,o),
(999,791,c),
(1044,816,l),
(992,962,o),
(847,1054,o),
(667,1054,cs),
(357,1054,o),
(122,845,o),
(59,513,cs)
);
}
);
width = 1063;
},
{
anchors = (
{
name = bottom;
pos = (474,1);
},
{
name = top;
pos = (682,1055);
}
);
layerId = "0655DA90-B56F-496E-8077-C2A69D96FC98";
shapes = (
{
closed = 1;
nodes = (
(7,186,o),
(171,-20,o),
(484,-20,cs),
(690,-20,o),
(883,90,o),
(983,265,c),
(856,350,l),
(785,220,o),
(645,139,o),
(492,139,cs),
(300,139,o),
(202,283,o),
(239,513,cs),
(284,748,o),
(449,895,o),
(666,895,cs),
(793,895,o),
(889,812,o),
(915,681,c),
(1073,775,l),
(1035,947,o),
(881,1055,o),
(674,1055,cs),
(360,1055,o),
(123,846,o),
(59,513,cs)
);
}
);
width = 1097;
},
{
anchors = (
{
name = bottom;
pos = (600,9);
},
{
name = top;
pos = (794,1124);
}
);
layerId = "F66262BA-5A1D-44F4-BFD7-97C08A9A14E5";
shapes = (
{
closed = 1;
nodes = (
(1,189,o),
(206,-37,o),
(590,-37,cs),
(789,-37,o),
(984,59,o),
(1096,213,c),
(893,399,l),
(836,311,o),
(745,255,o),
(657,255,cs),
(505,255,o),
(429,369,o),
(461,550,cs),
(492,724,o),
(607,834,o),
(759,834,cs),
(841,834,o),
(912,774,o),
(942,678,c),
(1207,843,l),
(1152,1016,o),
(993,1124,o),
(794,1124,cs),
(406,1124,o),
(123,903,o),
(61,550,cs)
);
}
);
width = 1228;
}
);
metricLeft = o;
metricRight = o;
unicode = 99;
},
{
glyphname = d;
kernLeft = sround;
kernRight = sflat;
lastChange = "2025-05-09 07:45:18 +0000";
layers = (
{
anchors = (
{
name = bottom;
pos = (627,-20);
},
{
name = center;
pos = (502,520);
},
{
name = hook;
pos = (1019,0);
},
{
name = hookup;
pos = (1019,1443);
},
{
name = top;
pos = (1023,1443);
},
{
name = topbar;
pos = (969,1171);
},
{
name = topright;
pos = (1350,1443);
}
);
layerId = "0A7ECE6A-DF67-46D8-8F43-1681A4AD540C";
shapes = (
{
closed = 1;
nodes = (
(60,193,o),
(251,-20,o),
(538,-20,cs),
(704,-20,o),
(856,53,o),
(917,162,c),
(929,162,l),
(929,-1,l),
(1109,-1,l),
(1109,1443,l),
(929,1443,l),
(929,882,l),
(917,882,l),
(845,986,o),
(694,1055,o),
(540,1055,cs),
(252,1055,o),
(60,838,o),
(60,513,cs)
);
},
{
closed = 1;
nodes = (
(929,289,o),
(790,138,o),
(581,138,cs),
(376,138,o),
(240,288,o),
(240,513,cs),
(240,742,o),
(377,895,o),
(583,895,cs),
(787,895,o),
(925,743,o),
(929,515,cs)
);
}
);
width = 1219;
},
{
anchors = (
{
name = bottom;
pos = (768,-20);
},
{
name = center;
pos = (758,550);
},
{
name = hook;
pos = (1135,2);
},
{
name = hookup;
pos = (1153,1443);
},
{
name = top;
pos = (1156,1443);
},
{
name = topbar;
pos = (1086,1119);
},
{
name = topright;
pos = (1514,1660);
}
);
layerId = "0CA926B8-BF71-483F-A045-F233B587689B";
shapes = (
{
closed = 1;
nodes = (
(60,192,o),
(264,-36,o),
(570,-36,cs),
(743,-36,o),
(886,28,o),
(928,124,c),
(946,124,l),
(946,0,l),
(1346,0,l),
(1346,1443,l),
(946,1443,l),
(946,951,l),
(928,951,l),
(874,1055,o),
(731,1125,o),
(570,1125,cs),
(264,1125,o),
(60,889,o),
(60,534,cs)
);
},
{
closed = 1;
nodes = (
(946,359,o),
(852,240,o),
(711,240,cs),
(560,240,o),
(460,359,o),
(460,538,cs),
(460,716,o),
(560,834,o),
(711,834,cs),
(852,834,o),
(946,716,o),
(946,538,cs)
);
}
);
width = 1456;
},
{
anchors = (
{
name = bottom;
pos = (621,-16);
},
{
name = center;
pos = (516,544);
},
{
name = hook;
pos = (1025,0);
},
{
name = hookup;
pos = (1025,1443);
},
{
name = top;
pos = (1026,1443);
},
{
name = topbar;
pos = (972,1251);
},
{
name = topright;
pos = (1245,1520);
}
);
layerId = "B1815A28-7A99-448B-912A-F8CD41C6863A";
shapes = (
{
closed = 1;
nodes = (
(60,197,o),
(265,-20,o),
(558,-20,cs),
(764,-20,o),
(938,90,o),
(993,256,c),
(1000,256,l),
(1000,-1,l),
(1050,-1,l),
(1050,1443,l),
(1000,1443,l),
(1000,771,l),
(994,771,l),
(934,941,o),
(760,1055,o),
(560,1055,cs),
(266,1055,o),
(60,842,o),
(60,523,cs)
);
},
{
closed = 1;
nodes = (
(1000,219,o),
(823,28,o),
(558,28,cs),
(295,28,o),
(110,226,o),
(110,523,cs),
(110,813,o),
(296,1007,o),
(560,1007,cs),
(824,1007,o),
(1000,806,o),
(1000,505,cs)
);
}
);
width = 1160;
},
{
anchors = (
{
name = bottom;
pos = (497,-16);
},
{
name = center;
pos = (511,544);
},
{
name = hook;
pos = (908,0);
},
{
name = hookup;
pos = (1214,1443);
},
{
name = top;
pos = (1215,1443);
},
{
name = topbar;
pos = (1117,1251);
},
{
name = topright;
pos = (1491,1520);
}
);
layerId = "6871CC57-2503-4E31-BAA0-540E82C15514";
shapes = (
{
closed = 1;
nodes = (
(-10,189,o),
(133,-20,o),
(433,-20,cs),
(642,-20,o),
(834,90,o),
(929,266,c),
(936,266,l),
(879,-1,l),
(929,-1,l),
(1239,1443,l),
(1189,1443,l),
(1041,761,l),
(1035,761,l),
(1010,942,o),
(867,1055,o),
(664,1055,cs),
(363,1055,o),
(130,850,o),
(61,523,cs)
);
},
{
closed = 1;
nodes = (
(925,212,o),
(716,28,o),
(444,28,cs),
(175,28,o),
(46,219,o),
(111,523,cs),
(174,820,o),
(384,1007,o),
(654,1007,cs),
(924,1007,o),
(1052,813,o),
(987,505,cs)
);
}
);
width = 1153;
},
{
anchors = (
{
name = bottom;
pos = (492,-20);
},
{
name = center;
pos = (482,520);
},
{
name = hook;
pos = (889,0);
},
{
name = hookup;
pos = (1197,1443);
},
{
name = top;
pos = (1201,1443);
},
{
name = topbar;
pos = (1097,1171);
},
{
name = topright;
pos = (1595,1519);
}
);
layerId = "0655DA90-B56F-496E-8077-C2A69D96FC98";
shapes = (
{
closed = 1;
nodes = (
(-11,186,o),
(133,-20,o),
(433,-20,cs),
(603,-20,o),
(757,66,o),
(830,202,c),
(842,202,l),
(798,-1,l),
(978,-1,l),
(1287,1443,l),
(1107,1443,l),
(978,842,l),
(966,842,l),
(957,973,o),
(842,1055,o),
(664,1055,cs),
(363,1055,o),
(129,846,o),
(59,513,cs)
);
},
{
closed = 1;
nodes = (
(859,283,o),
(701,138,o),
(500,138,cs),
(291,138,o),
(190,283,o),
(239,513,cs),
(289,748,o),
(452,895,o),
(663,895,cs),
(859,895,o),
(954,748,o),
(908,515,cs)
);
}
);
width = 1201;
},
{
anchors = (
{
name = bottom;
pos = (597,-20);
},
{
name = center;
pos = (708,550);
},
{
name = hook;
pos = (984,2);
},
{
name = hookup;
pos = (1292,1443);
},
{
name = top;
pos = (1287,1443);
},
{
name = topbar;
pos = (1166,1159);
},
{
name = topright;
pos = (1692,1633);
}
);
layerId = "F66262BA-5A1D-44F4-BFD7-97C08A9A14E5";
shapes = (
{
closed = 1;
nodes = (
(-18,184,o),
(129,-36,o),
(436,-36,cs),
(594,-36,o),
(730,33,o),
(792,144,c),
(810,144,l),
(779,0,l),
(1178,0,l),
(1484,1443,l),
(1085,1443,l),
(971,901,l),
(953,901,l),
(931,1039,o),
(826,1125,o),
(682,1125,cs),
(375,1125,o),
(134,897,o),
(57,534,cs)
);
},
{
closed = 1;
nodes = (
(855,355,o),
(747,240,o),
(615,240,cs),
(479,240,o),
(419,355,o),
(458,538,cs),
(496,720,o),
(606,834,o),
(742,834,cs),
(874,834,o),
(932,720,o),
(894,538,cs)
);
}
);
width = 1405;
}
);
metricLeft = o;
metricRight = i;
unicode = 100;
},
{
glyphname = eth;
kernLeft = round;
kernRight = round;
lastChange = "2025-04-30 03:00:35 +0000";
layers = (
{
layerId = "B1815A28-7A99-448B-912A-F8CD41C6863A";
shapes = (
{
closed = 1;
nodes = (
(825,-20,o),
(1007,167,o),
(1007,464,cs),
(1007,692,o),
(951,951,o),
(862,1136,cs),
(780,1307,o),
(613,1471,o),
(429,1561,c),
(428,1505,l),
(589,1430,o),
(739,1280,o),
(817,1115,cs),
(875,992,o),
(921,841,o),
(935,723,c),
(931,719,l),
(860,855,o),
(699,939,o),
(512,938,cs),
(234,935,o),
(60,753,o),
(60,467,cs),
(60,168,o),
(243,-20,o),
(535,-20,cs)
);
},
{
closed = 1;
nodes = (
(958,194,o),
(793,28,o),
(529,28,cs),
(270,28,o),
(108,197,o),
(108,466,cs),
(108,727,o),
(264,891,o),
(512,891,cs),
(786,891,o),
(958,724,o),
(958,458,cs)
);
},
{
closed = 1;
nodes = (
(991,1301,l),
(991,1350,l),
(123,1113,l),
(119,1061,l)
);
}
);
width = 1067;
},
{
layerId = "0A7ECE6A-DF67-46D8-8F43-1681A4AD540C";
shapes = (
{
closed = 1;
nodes = (
(919,-20,o),
(1123,181,o),
(1123,501,cs),
(1123,770,o),
(1058,1046,o),
(955,1216,cs),
(841,1409,o),
(627,1545,o),
(399,1569,c),
(399,1416,l),
(572,1390,o),
(725,1292,o),
(796,1161,cs),
(843,1079,o),
(880,962,o),
(892,860,c),
(880,856,l),
(818,945,o),
(685,1000,o),
(535,999,cs),
(243,996,o),
(60,805,o),
(60,504,cs),
(60,182,o),
(266,-20,o),
(593,-20,cs)
);
},
{
closed = 1;
nodes = (
(943,277,o),
(806,140,o),
(587,140,cs),
(374,140,o),
(240,277,o),
(240,495,cs),
(240,705,o),
(374,837,o),
(587,837,cs),
(806,837,o),
(943,705,o),
(943,495,cs)
);
},
{
closed = 1;
nodes = (
(1151,1269,l),
(1151,1424,l),
(200,1224,l),
(196,1054,l)
);
}
);
width = 1211;
},
{
layerId = "0CA926B8-BF71-483F-A045-F233B587689B";
shapes = (
{
closed = 1;
nodes = (
(1028,-36,o),
(1256,188,o),
(1256,546,cs),
(1256,793,o),
(1194,1052,o),
(1094,1216,cs),
(937,1481,o),
(643,1647,o),
(332,1647,c),
(332,1413,l),
(493,1413,o),
(640,1324,o),
(714,1183,cs),
(784,1064,o),
(828,931,o),
(828,839,c),
(810,836,l),
(759,942,o),
(628,1002,o),
(469,994,cs),
(218,981,o),
(60,794,o),
(60,511,cs),
(60,175,o),
(293,-36,o),
(665,-36,cs)
);
},
{
closed = 1;
nodes = (
(538,328,o),
(460,403,o),
(460,522,cs),
(460,641,o),
(538,716,o),
(661,716,cs),
(781,716,o),
(857,641,o),
(857,522,cs),
(857,403,o),
(781,328,o),
(661,328,cs)
);
},
{
closed = 1;
nodes = (
(1231,1252,l),
(1231,1475,l),
(198,1275,l),
(194,1038,l)
);
}
);
width = 1316;
},
{
layerId = "6871CC57-2503-4E31-BAA0-540E82C15514";
shapes = (
{
closed = 1;
nodes = (
(729,-20,o),
(944,167,o),
(996,464,cs),
(1036,692,o),
(1026,951,o),
(969,1136,cs),
(918,1307,o),
(780,1471,o),
(611,1561,c),
(601,1505,l),
(748,1430,o),
(872,1280,o),
(921,1115,cs),
(957,992,o),
(976,841,o),
(970,723,c),
(965,719,l),
(918,855,o),
(772,939,o),
(585,938,cs),
(306,935,o),
(100,753,o),
(49,467,cs),
(-3,168,o),
(147,-20,o),
(439,-20,cs)
);
},
{
closed = 1;
nodes = (
(899,194,o),
(705,28,o),
(441,28,cs),
(182,28,o),
(50,197,o),
(97,466,cs),
(143,727,o),
(328,891,o),
(576,891,cs),
(850,891,o),
(993,724,o),
(946,458,cs)
);
},
{
closed = 1;
nodes = (
(1128,1301,l),
(1136,1350,l),
(226,1113,l),
(213,1061,l)
);
}
);
width = 1068;
},
{
layerId = "0655DA90-B56F-496E-8077-C2A69D96FC98";
shapes = (
{
closed = 1;
nodes = (
(824,-20,o),
(1063,181,o),
(1120,501,cs),
(1167,770,o),
(1151,1046,o),
(1078,1216,cs),
(998,1409,o),
(808,1545,o),
(584,1569,c),
(557,1416,l),
(726,1390,o),
(861,1292,o),
(909,1161,cs),
(942,1079,o),
(958,962,o),
(952,860,c),
(939,856,l),
(893,945,o),
(770,1000,o),
(620,999,cs),
(327,996,o),
(110,805,o),
(57,504,cs),
(1,182,o),
(171,-20,o),
(498,-20,cs)
);
},
{
closed = 1;
nodes = (
(900,277,o),
(739,140,o),
(520,140,cs),
(307,140,o),
(197,277,o),
(236,495,cs),
(273,705,o),
(430,837,o),
(643,837,cs),
(862,837,o),
(976,705,o),
(939,495,cs)
);
},
{
closed = 1;
nodes = (
(1283,1269,l),
(1311,1424,l),
(324,1224,l),
(290,1054,l)
);
}
);
width = 1184;
},
{
layerId = "F66262BA-5A1D-44F4-BFD7-97C08A9A14E5";
shapes = (
{
closed = 1;
nodes = (
(924,-36,o),
(1191,188,o),
(1254,546,cs),
(1298,793,o),
(1281,1052,o),
(1210,1216,cs),
(1100,1481,o),
(835,1647,o),
(524,1647,c),
(483,1413,l),
(644,1413,o),
(775,1324,o),
(825,1183,cs),
(874,1064,o),
(894,931,o),
(878,839,c),
(859,836,l),
(827,942,o),
(707,1002,o),
(546,994,cs),
(293,981,o),
(102,794,o),
(52,511,cs),
(-7,175,o),
(189,-36,o),
(561,-36,cs)
);
},
{
closed = 1;
nodes = (
(498,328,o),
(433,403,o),
(454,522,cs),
(475,641,o),
(566,716,o),
(689,716,cs),
(809,716,o),
(872,641,o),
(851,522,cs),
(830,403,o),
(741,328,o),
(621,328,cs)
);
},
{
closed = 1;
nodes = (
(1354,1252,l),
(1393,1475,l),
(325,1275,l),
(279,1038,l)
);
}
);
width = 1315;
}
);
metricLeft = o;
metricRight = o;
unicode = 240;
},
{
glyphname = e;
kernLeft = sround;
kernRight = sround;
lastChange = "2025-04-30 03:00:35 +0000";
layers = (
{
anchors = (
{
name = bottom;
pos = (539,2);
},
{
name = ogonek;
pos = (566,-9);
},
{
name = top;
pos = (537,1056);
}
);
layerId = "B1815A28-7A99-448B-912A-F8CD41C6863A";
shapes = (
{
closed = 1;
nodes = (
(103,502,l),
(986,502,l),
(986,536,l),
(986,841,o),
(801,1056,o),
(537,1056,cs),
(257,1056,o),
(60,838,o),
(60,528,cs),
(60,207,o),
(262,-19,o),
(549,-19,cs),
(707,-19,o),
(870,45,o),
(944,137,c),
(915,179,l),
(848,91,o),
(697,29,o),
(549,29,cs),
(291,29,o),
(110,231,o),
(110,518,c),
(110,539,l),
(110,814,o),
(287,1008,o),
(538,1008,cs),
(772,1008,o),
(936,817,o),
(936,546,c),
(936,513,l),
(953,550,l),
(103,550,l)
);
}
);
width = 1046;
},
{
anchors = (
{
name = bottom;
pos = (562,0);
},
{
name = ogonek;
pos = (599,-6);
},
{
name = top;
pos = (562,1056);
}
);
layerId = "0A7ECE6A-DF67-46D8-8F43-1681A4AD540C";
shapes = (
{
closed = 1;
nodes = (
(228,445,l),
(1017,445,l),
(1017,511,l),
(1017,831,o),
(825,1056,o),
(552,1056,cs),
(261,1056,o),
(58,834,o),
(60,518,cs),
(61,203,o),
(274,-19,o),
(576,-19,cs),
(712,-19,o),
(878,37,o),
(979,117,c),
(894,256,l),
(815,188,o),
(686,141,o),
(582,141,cs),
(384,141,o),
(245,274,o),
(245,462,c),
(245,593,l),
(245,771,o),
(373,896,o),
(555,896,cs),
(722,896,o),
(840,769,o),
(840,588,c),
(840,477,l),
(938,600,l),
(226,600,l)
);
}
);
width = 1077;
},
{
anchors = (
{
name = bottom;
pos = (642,-10);
},
{
name = ogonek;
pos = (654,-19);
},
{
name = top;
pos = (616,1124);
}
);
background = {
shapes = (
{
closed = 1;
nodes = (
(968,-36,o),
(1214,186,o),
(1214,501,cs),
(1214,808,o),
(968,1024,o),
(617,1024,cs),
(275,1024,o),
(34,808,o),
(34,501,cs),
(34,186,o),
(275,-36,o),
(617,-36,cs)
);
},
{
closed = 1;
nodes = (
(510,254,o),
(434,356,o),
(434,501,cs),
(434,638,o),
(510,734,o),
(617,734,cs),
(733,734,o),
(814,638,o),
(814,501,cs),
(814,356,o),
(733,254,o),
(617,254,cs)
);
}
);
};
layerId = "0CA926B8-BF71-483F-A045-F233B587689B";
shapes = (
{
closed = 1;
nodes = (
(420,438,l),
(1154,438,l),
(1154,534,l),
(1154,880,o),
(932,1124,o),
(616,1124,cs),
(288,1124,o),
(58,883,o),
(60,540,cs),
(62,202,o),
(307,-35,o),
(654,-35,cs),
(832,-35,o),
(1021,37,o),
(1111,139,c),
(942,357,l),
(873,281,o),
(783,246,o),
(692,246,cs),
(543,246,o),
(439,333,o),
(439,456,c),
(439,639,l),
(439,748,o),
(513,825,o),
(619,825,cs),
(728,825,o),
(804,746,o),
(804,633,c),
(804,515,l),
(921,665,l),
(419,665,l)
);
}
);
width = 1214;
},
{
anchors = (
{
name = bottom;
pos = (448,2);
},
{
name = ogonek;
pos = (473,-9);
},
{
name = top;
pos = (632,1056);
}
);
layerId = "6871CC57-2503-4E31-BAA0-540E82C15514";
shapes = (
{
closed = 1;
nodes = (
(100,502,l),
(983,502,l),
(987,526,l),
(1042,837,o),
(895,1056,o),
(632,1056,cs),
(352,1056,o),
(117,838,o),
(62,528,cs),
(5,207,o),
(166,-19,o),
(454,-19,cs),
(612,-19,o),
(786,45,o),
(877,137,c),
(855,179,l),
(773,91,o),
(611,29,o),
(463,29,cs),
(205,29,o),
(59,231,o),
(110,518,c),
(114,539,l),
(162,814,o),
(381,1008,o),
(644,1008,cs),
(866,1008,o),
(989,817,o),
(941,546,c),
(935,513,l),
(959,550,l),
(109,550,l)
);
}
);
width = 1047;
},
{
anchors = (
{
name = bottom;
pos = (490,0);
},
{
name = ogonek;
pos = (525,-6);
},
{
name = top;
pos = (631,1056);
}
);
layerId = "0655DA90-B56F-496E-8077-C2A69D96FC98";
shapes = (
{
closed = 1;
nodes = (
(219,435,l),
(1002,435,l),
(1014,493,l),
(1072,824,o),
(912,1056,o),
(627,1056,cs),
(348,1056,o),
(113,830,o),
(58,508,cs),
(5,199,o),
(179,-19,o),
(481,-19,cs),
(611,-19,o),
(784,37,o),
(898,117,c),
(838,256,l),
(746,188,o),
(605,141,o),
(495,141,cs),
(313,141,o),
(207,269,o),
(239,452,c),
(262,583,l),
(295,767,o),
(452,896,o),
(642,896,cs),
(798,896,o),
(884,765,o),
(850,578,c),
(831,467,l),
(951,590,l),
(245,590,l)
);
}
);
width = 1080;
},
{
anchors = (
{
name = bottom;
pos = (574,-10);
},
{
name = ogonek;
pos = (585,-19);
},
{
name = top;
pos = (698,1124);
}
);
background = {
shapes = (
{
closed = 1;
nodes = (
(978,-36,o),
(1224,186,o),
(1224,501,cs),
(1224,808,o),
(978,1024,o),
(627,1024,cs),
(285,1024,o),
(44,808,o),
(44,501,cs),
(44,186,o),
(285,-36,o),
(627,-36,cs)
);
},
{
closed = 1;
nodes = (
(520,254,o),
(444,356,o),
(444,501,cs),
(444,638,o),
(520,734,o),
(627,734,cs),
(743,734,o),
(824,638,o),
(824,501,cs),
(824,356,o),
(743,254,o),
(627,254,cs)
);
}
);
};
layerId = "F66262BA-5A1D-44F4-BFD7-97C08A9A14E5";
shapes = (
{
closed = 1;
nodes = (
(391,438,l),
(1165,438,l),
(1180,505,l),
(1244,868,o),
(1045,1124,o),
(698,1124,cs),
(382,1124,o),
(118,883,o),
(59,540,cs),
(2,202,o),
(226,-35,o),
(602,-35,cs),
(769,-35,o),
(962,37,o),
(1069,139,c),
(939,357,l),
(872,292,o),
(736,246,o),
(609,246,cs),
(473,246,o),
(392,333,o),
(413,456,c),
(446,639,l),
(467,760,o),
(580,845,o),
(720,845,cs),
(818,845,o),
(872,757,o),
(850,633,c),
(829,515,l),
(972,665,l),
(430,665,l)
);
}
);
width = 1250;
}
);
metricLeft = o;
metricRight = o;
unicode = 101;
},
{
glyphname = f;
kernLeft = f;
kernRight = f;
lastChange = "2025-04-30 03:00:35 +0000";
layers = (
{
anchors = (
{
name = bottom;
pos = (368,0);
},
{
name = top;
pos = (368,1950);
}
);
layerId = "B1815A28-7A99-448B-912A-F8CD41C6863A";
shapes = (
{
closed = 1;
nodes = (
(257,0,l),
(308,0,l),
(308,1221,ls),
(308,1341,o),
(392,1421,o),
(517,1421,cs),
(570,1421,o),
(646,1399,o),
(709,1367,c),
(709,1419,l),
(661,1449,o),
(585,1469,o),
(520,1469,cs),
(367,1469,o),
(262,1372,o),
(257,1226,c)
);
},
{
closed = 1;
nodes = (
(60,991,l),
(716,991,l),
(716,1041,l),
(60,1041,l)
);
}
);
width = 776;
},
{
anchors = (
{
name = bottom;
pos = (368,0);
},
{
name = top;
pos = (368,1950);
}
);
layerId = "0A7ECE6A-DF67-46D8-8F43-1681A4AD540C";
shapes = (
{
closed = 1;
nodes = (
(227,0,l),
(408,0,l),
(408,1183,ls),
(408,1268,o),
(468,1325,o),
(557,1325,cs),
(620,1325,o),
(692,1313,o),
(737,1294,c),
(737,1445,l),
(688,1469,o),
(617,1485,o),
(560,1485,cs),
(365,1485,o),
(232,1380,o),
(227,1222,c)
);
},
{
closed = 1;
nodes = (
(20,880,l),
(736,880,l),
(736,1040,l),
(20,1040,l)
);
}
);
width = 797;
},
{
anchors = (
{
name = bottom;
pos = (512,0);
},
{
name = top;
pos = (512,1950);
}
);
layerId = "0CA926B8-BF71-483F-A045-F233B587689B";
shapes = (
{
closed = 1;
nodes = (
(241,2,l),
(641,2,l),
(641,1162,ls),
(641,1220,o),
(688,1259,o),
(758,1259,cs),
(792,1259,o),
(849,1253,o),
(899,1245,c),
(899,1519,l),
(851,1538,o),
(737,1550,o),
(613,1550,cs),
(393,1550,o),
(245,1409,o),
(241,1198,c)
);
},
{
closed = 1;
nodes = (
(60,780,l),
(900,780,l),
(900,1100,l),
(60,1100,l)
);
}
);
width = 960;
},
{
anchors = (
{
name = bottom;
pos = (203,0);
},
{
name = top;
pos = (618,1950);
}
);
layerId = "6871CC57-2503-4E31-BAA0-540E82C15514";
shapes = (
{
closed = 1;
nodes = (
(142,0,l),
(193,0,l),
(473,1321,ls),
(497,1432,o),
(573,1501,o),
(671,1501,cs),
(746,1501,o),
(818,1483,o),
(854,1454,c),
(882,1499,l),
(847,1530,o),
(771,1549,o),
(685,1549,cs),
(558,1549,o),
(457,1463,o),
(424,1326,c)
);
},
{
closed = 1;
nodes = (
(106,991,l),
(762,991,l),
(773,1041,l),
(117,1041,l)
);
}
);
width = 734;
},
{
anchors = (
{
name = bottom;
pos = (243,0);
},
{
name = top;
pos = (658,1950);
}
);
layerId = "0655DA90-B56F-496E-8077-C2A69D96FC98";
shapes = (
{
closed = 1;
nodes = (
(102,0,l),
(283,0,l),
(552,1266,ls),
(568,1341,o),
(620,1388,o),
(688,1388,cs),
(725,1388,o),
(813,1380,o),
(852,1367,c),
(926,1518,l),
(882,1536,o),
(781,1548,o),
(725,1548,cs),
(550,1548,o),
(414,1443,o),
(373,1275,c)
);
},
{
closed = 1;
nodes = (
(83,880,l),
(789,880,l),
(823,1040,l),
(117,1040,l)
);
}
);
width = 774;
},
{
anchors = (
{
name = bottom;
pos = (512,0);
},
{
name = top;
pos = (512,1950);
}
);
layerId = "F66262BA-5A1D-44F4-BFD7-97C08A9A14E5";
shapes = (
{
closed = 1;
nodes = (
(74,2,l),
(474,2,l),
(732,1222,ls),
(740,1263,o),
(772,1289,o),
(814,1289,cs),
(842,1289,o),
(912,1284,o),
(947,1275,c),
(1037,1559,l),
(983,1572,o),
(856,1580,o),
(771,1580,cs),
(558,1580,o),
(383,1440,o),
(331,1218,c)
);
},
{
closed = 1;
nodes = (
(62,800,l),
(862,800,l),
(926,1100,l),
(126,1100,l)
);
}
);
width = 883;
}
);
metricRight = o;
unicode = 102;
},
{
glyphname = g;
kernLeft = sround;
kernRight = ssflat;
lastChange = "2025-04-30 03:00:35 +0000";
layers = (
{
anchors = (
{
name = bottom;
pos = (594,-494);
},
{
name = hook;
pos = (1022,1040);
},
{
name = top;
pos = (508,1058);
}
);
layerId = "B1815A28-7A99-448B-912A-F8CD41C6863A";
shapes = (
{
closed = 1;
nodes = (
(764,50,o),
(936,154,o),
(993,311,c),
(997,311,l),
(997,34,ls),
(997,-176,o),
(821,-316,o),
(556,-316,cs),
(411,-316,o),
(246,-261,o),
(145,-178,c),
(116,-218,l),
(223,-306,o),
(399,-364,o),
(556,-364,cs),
(851,-364,o),
(1047,-205,o),
(1047,34,cs),
(1047,1040,l),
(997,1040,l),
(997,777,l),
(993,777,l),
(933,944,o),
(761,1055,o),
(563,1055,cs),
(261,1055,o),
(60,852,o),
(60,547,cs),
(60,249,o),
(261,50,o),
(563,50,cs)
);
},
{
closed = 1;
nodes = (
(110,823,o),
(290,1006,o),
(560,1007,cs),
(822,1009,o),
(997,826,o),
(997,549,cs),
(997,278,o),
(822,98,o),
(560,98,cs),
(290,98,o),
(110,278,o),
(110,549,cs)
);
}
);
width = 1157;
},
{
anchors = (
{
name = bottom;
pos = (620,-494);
},
{
name = hook;
pos = (999,1040);
},
{
name = top;
pos = (578,1053);
}
);
layerId = "0A7ECE6A-DF67-46D8-8F43-1681A4AD540C";
shapes = (
{
closed = 1;
nodes = (
(691,60,o),
(838,127,o),
(897,219,c),
(909,219,l),
(909,93,ls),
(909,-80,o),
(771,-207,o),
(580,-209,cs),
(449,-213,o),
(289,-166,o),
(201,-98,c),
(137,-248,l),
(243,-323,o),
(432,-374,o),
(588,-370,cs),
(879,-366,o),
(1089,-180,o),
(1089,74,cs),
(1089,1040,l),
(909,1040,l),
(909,905,l),
(897,905,l),
(835,992,o),
(689,1055,o),
(548,1055,cs),
(265,1055,o),
(60,845,o),
(60,555,cs),
(60,268,o),
(265,60,o),
(548,60,cs)
);
},
{
closed = 1;
nodes = (
(240,751,o),
(384,894,o),
(583,895,cs),
(772,897,o),
(909,754,o),
(909,555,cs),
(909,361,o),
(772,220,o),
(583,220,cs),
(384,220,o),
(240,361,o),
(240,555,cs)
);
}
);
width = 1199;
},
{
anchors = (
{
name = bottom;
pos = (720,-494);
},
{
name = hook;
pos = (1079,1100);
},
{
name = top;
pos = (682,1122);
}
);
layerId = "0CA926B8-BF71-483F-A045-F233B587689B";
shapes = (
{
closed = 1;
nodes = (
(678,91,o),
(814,154,o),
(857,242,c),
(875,242,l),
(875,134,ls),
(875,10,o),
(761,-81,o),
(603,-83,cs),
(491,-87,o),
(344,-48,o),
(253,9,c),
(126,-261,l),
(250,-339,o),
(493,-391,o),
(705,-385,cs),
(1041,-379,o),
(1285,-190,o),
(1285,64,cs),
(1285,1100,l),
(875,1100,l),
(875,979,l),
(857,979,l),
(816,1062,o),
(680,1122,o),
(532,1122,cs),
(258,1122,o),
(60,904,o),
(60,604,cs),
(60,306,o),
(258,91,o),
(532,91,cs)
);
},
{
closed = 1;
nodes = (
(435,739,o),
(528,839,o),
(657,840,cs),
(783,841,o),
(875,741,o),
(875,601,cs),
(875,466,o),
(783,369,o),
(657,369,cs),
(528,369,o),
(435,466,o),
(435,601,cs)
);
}
);
width = 1395;
},
{
anchors = (
{
name = bottom;
pos = (379,-494);
},
{
name = hook;
pos = (1133,1040);
},
{
name = top;
pos = (682,1058);
}
);
layerId = "6871CC57-2503-4E31-BAA0-540E82C15514";
shapes = (
{
closed = 1;
nodes = (
(660,30,o),
(849,138,o),
(949,311,c),
(953,311,l),
(894,34,ls),
(848,-181,o),
(649,-316,o),
(378,-316,cs),
(229,-316,o),
(83,-263,o),
(-3,-178,c),
(-41,-218,l),
(50,-308,o),
(207,-364,o),
(368,-364,cs),
(670,-364,o),
(892,-210,o),
(944,34,cs),
(1158,1040,l),
(1108,1040,l),
(1052,777,l),
(1048,777,l),
(1023,948,o),
(880,1055,o),
(677,1055,cs),
(368,1055,o),
(132,859,o),
(66,547,cs),
(-2,229,o),
(150,30,o),
(459,30,cs)
);
},
{
closed = 1;
nodes = (
(176,829,o),
(387,1006,o),
(664,1007,cs),
(932,1009,o),
(1063,832,o),
(1003,549,cs),
(942,260,o),
(734,78,o),
(466,78,cs),
(190,78,o),
(55,260,o),
(116,549,cs)
);
}
);
width = 1157;
},
{
anchors = (
{
name = bottom;
pos = (404,-494);
},
{
name = hook;
pos = (1109,1040);
},
{
name = top;
pos = (671,1053);
}
);
layerId = "0655DA90-B56F-496E-8077-C2A69D96FC98";
shapes = (
{
closed = 1;
nodes = (
(622,40,o),
(769,105,o),
(837,209,c),
(843,209,l),
(812,63,ls),
(777,-102,o),
(627,-207,o),
(425,-209,cs),
(287,-213,o),
(149,-170,o),
(69,-98,c),
(-26,-248,l),
(69,-327,o),
(233,-374,o),
(399,-370,cs),
(707,-366,o),
(935,-206,o),
(988,44,cs),
(1199,1040,l),
(1019,1040,l),
(986,885,l),
(980,885,l),
(949,989,o),
(830,1055,o),
(671,1055,cs),
(365,1055,o),
(132,860,o),
(66,550,cs),
(0,237,o),
(150,40,o),
(456,40,cs)
);
},
{
closed = 1;
nodes = (
(291,761,o),
(455,894,o),
(672,895,cs),
(867,897,o),
(961,764,o),
(915,550,cs),
(869,335,o),
(719,200,o),
(525,200,cs),
(308,200,o),
(200,335,o),
(246,550,cs)
);
}
);
width = 1199;
},
{
anchors = (
{
name = bottom;
pos = (498,-494);
},
{
name = hook;
pos = (1196,1100);
},
{
name = top;
pos = (699,1122);
}
);
layerId = "F66262BA-5A1D-44F4-BFD7-97C08A9A14E5";
shapes = (
{
closed = 1;
nodes = (
(590,51,o),
(722,117,o),
(787,222,c),
(805,222,l),
(780,104,ls),
(753,-21,o),
(631,-101,o),
(464,-103,cs),
(320,-108,o),
(176,-73,o),
(93,-11,c),
(-47,-261,l),
(56,-342,o),
(246,-390,o),
(446,-385,cs),
(840,-378,o),
(1124,-201,o),
(1183,74,cs),
(1402,1100,l),
(992,1100,l),
(957,939,l),
(939,939,l),
(925,1051,o),
(823,1122,o),
(673,1122,cs),
(371,1122,o),
(138,918,o),
(69,594,cs),
(-2,260,o),
(144,51,o),
(446,51,cs)
);
},
{
closed = 1;
nodes = (
(478,755,o),
(586,859,o),
(723,860,cs),
(857,861,o),
(919,757,o),
(883,591,cs),
(845,412,o),
(737,299,o),
(603,299,cs),
(467,299,o),
(405,412,o),
(443,591,cs)
);
}
);
width = 1395;
}
);
metricLeft = o;
metricRight = i;
unicode = 103;
},
{
glyphname = h;
kernLeft = sflat;
kernRight = n;
lastChange = "2025-05-09 07:46:03 +0000";
layers = (
{
anchors = (
{
name = bottom;
pos = (531,0);
},
{
name = center;
pos = (531,975);
},
{
name = hook;
pos = (921,0);
},
{
name = top;
pos = (116,1443);
},
{
name = topbar;
pos = (110,1231);
}
);
layerId = "B1815A28-7A99-448B-912A-F8CD41C6863A";
shapes = (
{
closed = 1;
nodes = (
(141,859,o),
(290,1007,o),
(526,1007,cs),
(753,1007,o),
(896,863,o),
(896,633,cs),
(896,0,l),
(946,0,l),
(946,633,ls),
(946,892,o),
(784,1055,o),
(526,1055,cs),
(333,1055,o),
(186,966,o),
(144,825,c),
(140,825,l),
(140,1443,l),
(90,1443,l),
(90,0,l),
(140,0,l),
(140,624,l)
);
}
);
width = 1026;
},
{
anchors = (
{
name = bottom;
pos = (547,0);
},
{
name = center;
pos = (547,975);
},
{
name = hook;
pos = (926,0);
},
{
name = top;
pos = (181,1443);
},
{
name = topbar;
pos = (170,1161);
}
);
layerId = "0A7ECE6A-DF67-46D8-8F43-1681A4AD540C";
shapes = (
{
closed = 1;
nodes = (
(276,777,o),
(396,894,o),
(571,895,cs),
(726,896,o),
(830,781,o),
(830,607,cs),
(830,0,l),
(1010,0,l),
(1010,648,ls),
(1010,892,o),
(854,1055,o),
(620,1055,cs),
(469,1055,o),
(334,987,o),
(282,885,c),
(270,885,l),
(270,1443,l),
(90,1443,l),
(90,0,l),
(270,0,l),
(270,602,l)
);
}
);
width = 1090;
},
{
anchors = (
{
name = bottom;
pos = (659,0);
},
{
name = center;
pos = (669,975);
},
{
name = hook;
pos = (1022,0);
},
{
name = top;
pos = (301,1443);
},
{
name = topbar;
pos = (267,1130);
}
);
layerId = "0CA926B8-BF71-483F-A045-F233B587689B";
shapes = (
{
closed = 1;
nodes = (
(490,726,o),
(536,799,o),
(650,798,cs),
(764,798,o),
(810,725,o),
(810,616,cs),
(810,0,l),
(1210,0,l),
(1210,744,ls),
(1210,972,o),
(1066,1124,o),
(804,1124,cs),
(643,1124,o),
(543,1053,o),
(508,947,c),
(490,947,l),
(490,1443,l),
(90,1443,l),
(90,0,l),
(490,0,l),
(490,616,ls)
);
}
);
width = 1290;
},
{
anchors = (
{
name = bottom;
pos = (471,0);
},
{
name = center;
pos = (679,975);
},
{
name = hook;
pos = (861,0);
},
{
name = top;
pos = (362,1443);
},
{
name = topbar;
pos = (336,1251);
}
);
layerId = "6871CC57-2503-4E31-BAA0-540E82C15514";
shapes = (
{
closed = 1;
nodes = (
(264,859,o),
(445,1007,o),
(681,1007,cs),
(908,1007,o),
(1020,863,o),
(971,633,cs),
(836,0,l),
(886,0,l),
(1021,633,ls),
(1076,892,o),
(949,1055,o),
(691,1055,cs),
(498,1055,o),
(332,966,o),
(260,825,c),
(256,825,l),
(386,1443,l),
(336,1443,l),
(30,0,l),
(80,0,l),
(213,624,l)
);
}
);
width = 1127;
},
{
anchors = (
{
name = bottom;
pos = (486,0);
},
{
name = center;
pos = (694,975);
},
{
name = hook;
pos = (861,0);
},
{
name = top;
pos = (428,1443);
},
{
name = topbar;
pos = (388,1171);
}
);
layerId = "0655DA90-B56F-496E-8077-C2A69D96FC98";
shapes = (
{
closed = 1;
nodes = (
(393,797,o),
(530,895,o),
(701,895,cs),
(860,895,o),
(939,795,o),
(905,637,cs),
(769,0,l),
(949,0,l),
(1087,648,ls),
(1140,898,o),
(1000,1055,o),
(724,1055,cs),
(589,1055,o),
(464,982,o),
(400,865,c),
(393,865,l),
(517,1443,l),
(337,1443,l),
(29,0,l),
(209,0,l),
(346,642,l)
);
}
);
width = 1190;
},
{
anchors = (
{
name = bottom;
pos = (582,0);
},
{
name = center;
pos = (800,975);
},
{
name = hook;
pos = (987,0);
},
{
name = top;
pos = (531,1443);
},
{
name = topbar;
pos = (477,1160);
}
);
layerId = "F66262BA-5A1D-44F4-BFD7-97C08A9A14E5";
shapes = (
{
closed = 1;
nodes = (
(589,779,o),
(685,849,o),
(814,848,cs),
(918,848,o),
(969,778,o),
(945,666,cs),
(803,0,l),
(1203,0,l),
(1362,744,ls),
(1412,977,o),
(1263,1124,o),
(976,1124,cs),
(827,1124,o),
(696,1056,o),
(637,947,c),
(625,947,l),
(730,1443,l),
(330,1443,l),
(23,0,l),
(423,0,l),
(565,666,ls)
);
}
);
width = 1441;
}
);
metricLeft = n;
metricRight = n;
unicode = 104;
},
{
glyphname = i;
kernLeft = sflat;
kernRight = sflat;
lastChange = "2025-04-30 03:00:35 +0000";
layers = (
{
anchors = (
{
name = bottom;
pos = (145,0);
}
);
layerId = "B1815A28-7A99-448B-912A-F8CD41C6863A";
shapes = (
{
closed = 1;
nodes = (
(170,0,l),
(170,1040,l),
(120,1040,l),
(120,0,l)
);
},
{
closed = 1;
nodes = (
(180,1374,l),
(180,1444,l),
(110,1444,l),
(110,1374,l)
);
}
);
width = 290;
},
{
anchors = (
{
name = bottom;
pos = (216,0);
}
);
layerId = "0A7ECE6A-DF67-46D8-8F43-1681A4AD540C";
shapes = (
{
closed = 1;
nodes = (
(306,0,l),
(306,1040,l),
(126,1040,l),
(126,0,l)
);
},
{
closed = 1;
nodes = (
(322,1236,l),
(322,1443,l),
(110,1443,l),
(110,1236,l)
);
}
);
width = 432;
},
{
anchors = (
{
name = bottom;
pos = (310,0);
}
);
layerId = "0CA926B8-BF71-483F-A045-F233B587689B";
shapes = (
{
closed = 1;
nodes = (
(510,0,l),
(510,1100,l),
(110,1100,l),
(110,0,l)
);
},
{
closed = 1;
nodes = (
(510,1210,l),
(510,1571,l),
(110,1571,l),
(110,1210,l)
);
}
);
width = 620;
},
{
anchors = (
{
name = bottom;
pos = (34,0);
}
);
layerId = "6871CC57-2503-4E31-BAA0-540E82C15514";
shapes = (
{
closed = 1;
nodes = (
(60,0,l),
(281,1040,l),
(231,1040,l),
(10,0,l)
);
},
{
closed = 1;
nodes = (
(347,1304,l),
(362,1374,l),
(292,1374,l),
(277,1304,l)
);
}
);
width = 290;
},
{
anchors = (
{
name = bottom;
pos = (106,0);
}
);
layerId = "0655DA90-B56F-496E-8077-C2A69D96FC98";
shapes = (
{
closed = 1;
nodes = (
(190,0,l),
(411,1040,l),
(231,1040,l),
(10,0,l)
);
},
{
closed = 1;
nodes = (
(466,1246,l),
(508,1443,l),
(306,1443,l),
(264,1246,l)
);
}
);
width = 422;
},
{
anchors = (
{
name = bottom;
pos = (205,0);
}
);
layerId = "F66262BA-5A1D-44F4-BFD7-97C08A9A14E5";
shapes = (
{
closed = 1;
nodes = (
(393,0,l),
(627,1100,l),
(227,1100,l),
(-7,0,l)
);
},
{
closed = 1;
nodes = (
(661,1210,l),
(737,1571,l),
(337,1571,l),
(261,1210,l)
);
}
);
width = 631;
}
);
unicode = 105;
},
{
glyphname = idotless;
kernLeft = sflat;
kernRight = sflat;
lastChange = "2025-04-30 03:00:35 +0000";
layers = (
{
anchors = (
{
name = bottom;
pos = (134,0);
},
{
name = ogonek;
pos = (130,0);
},
{
name = top;
pos = (134,1147);
}
);
layerId = "B1815A28-7A99-448B-912A-F8CD41C6863A";
shapes = (
{
closed = 1;
nodes = (
(160,0,l),
(160,1040,l),
(110,1040,l),
(110,0,l)
);
}
);
width = 270;
},
{
anchors = (
{
name = bottom;
pos = (209,0);
},
{
name = ogonek;
pos = (195,0);
},
{
name = top;
pos = (199,1130);
}
);
layerId = "0A7ECE6A-DF67-46D8-8F43-1681A4AD540C";
shapes = (
{
closed = 1;
nodes = (
(290,0,l),
(290,1040,l),
(110,1040,l),
(110,0,l)
);
}
);
width = 400;
},
{
anchors = (
{
name = bottom;
pos = (320,0);
},
{
name = ogonek;
pos = (324,5);
},
{
name = top;
pos = (320,1150);
}
);
layerId = "0CA926B8-BF71-483F-A045-F233B587689B";
shapes = (
{
closed = 1;
nodes = (
(520,0,l),
(520,1100,l),
(110,1100,l),
(110,0,l)
);
}
);
width = 630;
},
{
anchors = (
{
name = bottom;
pos = (23,0);
},
{
name = ogonek;
pos = (19,0);
},
{
name = top;
pos = (267,1147);
}
);
layerId = "6871CC57-2503-4E31-BAA0-540E82C15514";
shapes = (
{
closed = 1;
nodes = (
(49,0,l),
(271,1040,l),
(221,1040,l),
(-1,0,l)
);
}
);
width = 270;
},
{
anchors = (
{
name = bottom;
pos = (98,0);
},
{
name = ogonek;
pos = (84,0);
},
{
name = top;
pos = (329,1130);
}
);
layerId = "0655DA90-B56F-496E-8077-C2A69D96FC98";
shapes = (
{
closed = 1;
nodes = (
(179,0,l),
(401,1040,l),
(221,1040,l),
(-1,0,l)
);
}
);
width = 400;
},
{
anchors = (
{
name = bottom;
pos = (203,0);
},
{
name = ogonek;
pos = (208,5);
},
{
name = top;
pos = (448,1150);
}
);
layerId = "F66262BA-5A1D-44F4-BFD7-97C08A9A14E5";
shapes = (
{
closed = 1;
nodes = (
(403,0,l),
(637,1100,l),
(227,1100,l),
(-7,0,l)
);
}
);
width = 630;
}
);
metricLeft = i;
metricRight = i;
unicode = 305;
},
{
glyphname = j;
kernLeft = j;
kernRight = j;
lastChange = "2025-04-30 03:53:36 +0000";
layers = (
{
layerId = "B1815A28-7A99-448B-912A-F8CD41C6863A";
shapes = (
{
closed = 1;
nodes = (
(145,1040,l),
(145,-222,ls),
(145,-273,o),
(118,-308,o),
(75,-312,cs),
(40,-313,o),
(-9,-304,o),
(-52,-287,c),
(-60,-335,l),
(-25,-350,o),
(28,-360,o),
(77,-360,cs),
(149,-360,o),
(195,-306,o),
(195,-221,cs),
(195,1040,l)
);
},
{
closed = 1;
nodes = (
(206,1343,l),
(206,1413,l),
(136,1413,l),
(136,1343,l)
);
}
);
width = 316;
},
{
layerId = "0A7ECE6A-DF67-46D8-8F43-1681A4AD540C";
shapes = (
{
closed = 1;
nodes = (
(135,1041,l),
(135,-111,ls),
(135,-163,o),
(99,-200,o),
(44,-203,cs),
(-3,-204,o),
(-64,-196,o),
(-109,-182,c),
(-109,-339,l),
(-72,-354,o),
(7,-364,o),
(88,-364,cs),
(224,-364,o),
(315,-273,o),
(315,-137,cs),
(315,1041,l)
);
},
{
closed = 1;
nodes = (
(333,1241,l),
(333,1448,l),
(121,1448,l),
(121,1241,l)
);
}
);
width = 443;
},
{
background = {
shapes = (
{
closed = 1;
nodes = (
(442,1099,l),
(150,1099,l),
(150,-7,l),
(442,-7,l)
);
},
{
closed = 1;
nodes = (
(320,-367,o),
(442,-241,o),
(442,-7,c),
(150,29,l),
(150,-91,o),
(112,-142,o),
(23,-142,c),
(93,-367,l)
);
},
{
closed = 1;
nodes = (
(13,-142,l),
(13,-367,l),
(95,-367,l),
(95,-142,l)
);
},
{
closed = 1;
nodes = (
(149,1268,l),
(445,1268,l),
(445,1564,l),
(149,1564,l)
);
}
);
};
layerId = "0CA926B8-BF71-483F-A045-F233B587689B";
shapes = (
{
closed = 1;
nodes = (
(128,1100,l),
(128,13,ls),
(128,-45,o),
(94,-80,o),
(41,-79,cs),
(18,-79,o),
(-13,-78,o),
(-40,-76,c),
(-90,-373,l),
(-16,-383,o),
(67,-390,o),
(141,-390,cs),
(379,-390,o),
(528,-252,o),
(528,-33,cs),
(528,1100,l)
);
},
{
closed = 1;
nodes = (
(528,1240,l),
(528,1601,l),
(128,1601,l),
(128,1240,l)
);
}
);
width = 638;
},
{
layerId = "6871CC57-2503-4E31-BAA0-540E82C15514";
shapes = (
{
closed = 1;
nodes = (
(105,1040,l),
(105,-252,ls),
(105,-290,o),
(92,-310,o),
(65,-312,cs),
(42,-313,o),
(13,-308,o),
(-22,-297,c),
(-30,-345,l),
(1,-355,o),
(34,-360,o),
(67,-360,cs),
(125,-360,o),
(155,-323,o),
(155,-251,cs),
(155,1040,l)
);
},
{
closed = 1;
nodes = (
(166,1334,l),
(166,1404,l),
(96,1404,l),
(96,1334,l)
);
}
);
width = 434;
},
{
layerId = "0655DA90-B56F-496E-8077-C2A69D96FC98";
shapes = (
{
closed = 1;
nodes = (
(48,1040,l),
(48,-137,ls),
(48,-164,o),
(40,-178,o),
(23,-179,cs),
(9,-180,o),
(-5,-178,o),
(-20,-174,c),
(-30,-331,l),
(-3,-337,o),
(24,-340,o),
(51,-340,cs),
(169,-340,o),
(228,-277,o),
(228,-153,cs),
(228,1040,l)
);
},
{
closed = 1;
nodes = (
(238,1250,l),
(238,1447,l),
(36,1447,l),
(36,1250,l)
);
}
);
width = 488;
},
{
background = {
shapes = (
{
closed = 1;
nodes = (
(432,1099,l),
(140,1099,l),
(140,-7,l),
(432,-7,l)
);
},
{
closed = 1;
nodes = (
(310,-367,o),
(432,-241,o),
(432,-7,c),
(140,29,l),
(140,-91,o),
(102,-142,o),
(13,-142,c),
(83,-367,l)
);
},
{
closed = 1;
nodes = (
(3,-142,l),
(3,-367,l),
(85,-367,l),
(85,-142,l)
);
},
{
closed = 1;
nodes = (
(139,1268,l),
(435,1268,l),
(435,1564,l),
(139,1564,l)
);
}
);
};
layerId = "F66262BA-5A1D-44F4-BFD7-97C08A9A14E5";
shapes = (
{
closed = 1;
nodes = (
(118,1100,l),
(118,-17,ls),
(118,-59,o),
(102,-80,o),
(71,-79,cs),
(44,-79,o),
(17,-78,o),
(-10,-76,c),
(-30,-373,l),
(54,-384,o),
(108,-390,o),
(131,-390,cs),
(388,-390,o),
(518,-270,o),
(518,-33,cs),
(518,1100,l)
);
},
{
closed = 1;
nodes = (
(518,1240,l),
(518,1601,l),
(118,1601,l),
(118,1240,l)
);
}
);
width = 764;
},
{
associatedMasterId = "B1815A28-7A99-448B-912A-F8CD41C6863A";
layerId = "7DE7BCF3-949C-447B-AD0C-92B59DF47754";
name = "wght=100";
shapes = (
{
closed = 1;
nodes = (
(585,1040,l),
(585,-142,ls),
(585,-254,o),
(494,-311,o),
(315,-312,cs),
(177,-313,o),
(67,-298,o),
(-12,-267,c),
(-20,-315,l),
(49,-345,o),
(162,-360,o),
(317,-360,cs),
(528,-360,o),
(635,-286,o),
(635,-141,cs),
(635,1040,l)
);
},
{
closed = 1;
nodes = (
(646,1304,l),
(646,1374,l),
(576,1374,l),
(576,1304,l)
);
}
);
width = 736;
},
{
associatedMasterId = "B1815A28-7A99-448B-912A-F8CD41C6863A";
layerId = "FDFC085D-FF36-47B0-851A-BD8C879DF7C5";
name = Regular;
shapes = (
{
closed = 1;
nodes = (
(578,1040,l),
(578,-67,ls),
(578,-156,o),
(492,-200,o),
(323,-199,cs),
(188,-198,o),
(79,-186,o),
(0,-164,c),
(-20,-321,l),
(101,-347,o),
(225,-360,o),
(351,-360,cs),
(621,-360,o),
(758,-267,o),
(758,-83,cs),
(758,1040,l)
);
},
{
closed = 1;
nodes = (
(768,1230,l),
(768,1427,l),
(566,1427,l),
(566,1230,l)
);
}
);
width = 858;
},
{
associatedMasterId = "B1815A28-7A99-448B-912A-F8CD41C6863A";
background = {
shapes = (
{
closed = 1;
nodes = (
(892,1099,l),
(600,1099,l),
(600,-7,l),
(892,-7,l)
);
},
{
closed = 1;
nodes = (
(770,-367,o),
(892,-241,o),
(892,-7,c),
(600,29,l),
(600,-91,o),
(562,-142,o),
(473,-142,c),
(543,-367,l)
);
},
{
closed = 1;
nodes = (
(463,-142,l),
(463,-367,l),
(545,-367,l),
(545,-142,l)
);
},
{
closed = 1;
nodes = (
(599,1268,l),
(895,1268,l),
(895,1564,l),
(599,1564,l)
);
}
);
};
layerId = "CE5E8762-3CE4-4341-91B1-15078C500EF8";
name = "wght=1000";
shapes = (
{
closed = 1;
nodes = (
(578,1100,l),
(578,73,ls),
(578,-28,o),
(495,-79,o),
(331,-79,cs),
(224,-79,o),
(116,-69,o),
(10,-50,c),
(-20,-353,l),
(140,-378,o),
(278,-390,o),
(391,-390,cs),
(781,-390,o),
(978,-250,o),
(978,27,cs),
(978,1100,l)
);
},
{
closed = 1;
nodes = (
(978,1260,l),
(978,1621,l),
(578,1621,l),
(578,1260,l)
);
}
);
width = 1068;
},
{
associatedMasterId = "B1815A28-7A99-448B-912A-F8CD41C6863A";
layerId = "300C17E3-EA06-401F-867C-8F69B2DA68B5";
name = "wght=100, italic";
shapes = (
{
closed = 1;
nodes = (
(235,1040,l),
(-39,-252,ls),
(-47,-290,o),
(-65,-310,o),
(-92,-312,cs),
(-115,-313,o),
(-143,-308,o),
(-176,-297,c),
(-194,-345,l),
(-165,-355,o),
(-133,-360,o),
(-100,-360,cs),
(-42,-360,o),
(-4,-323,o),
(11,-251,cs),
(285,1040,l)
);
},
{
closed = 1;
nodes = (
(352,1304,l),
(367,1374,l),
(297,1374,l),
(282,1304,l)
);
}
);
width = 275;
},
{
associatedMasterId = "B1815A28-7A99-448B-912A-F8CD41C6863A";
layerId = "EF892781-9B06-4D01-A3EC-01AF347AD647";
name = "Regular, italic";
shapes = (
{
closed = 1;
nodes = (
(179,1040,l),
(-76,-157,ls),
(-82,-184,o),
(-92,-198,o),
(-110,-199,cs),
(-124,-200,o),
(-137,-198,o),
(-152,-194,c),
(-195,-351,l),
(-169,-357,o),
(-143,-360,o),
(-116,-360,cs),
(2,-360,o),
(74,-297,o),
(101,-173,cs),
(359,1040,l)
);
},
{
closed = 1;
nodes = (
(409,1230,l),
(451,1427,l),
(249,1427,l),
(207,1230,l)
);
}
);
width = 338;
},
{
associatedMasterId = "B1815A28-7A99-448B-912A-F8CD41C6863A";
background = {
shapes = (
{
closed = 1;
nodes = (
(466,1099,l),
(174,1099,l),
(174,-7,l),
(466,-7,l)
);
},
{
closed = 1;
nodes = (
(344,-367,o),
(466,-241,o),
(466,-7,c),
(174,29,l),
(174,-91,o),
(136,-142,o),
(47,-142,c),
(117,-367,l)
);
},
{
closed = 1;
nodes = (
(37,-142,l),
(37,-367,l),
(119,-367,l),
(119,-142,l)
);
},
{
closed = 1;
nodes = (
(173,1268,l),
(469,1268,l),
(469,1564,l),
(173,1564,l)
);
}
);
};
layerId = "77632039-C6CA-48A4-B25B-65842203997B";
name = "wght=1000, italic";
shapes = (
{
closed = 1;
nodes = (
(255,1100,l),
(18,-17,ls),
(9,-59,o),
(-12,-80,o),
(-43,-79,cs),
(-70,-79,o),
(-96,-78,o),
(-123,-76,c),
(-206,-373,l),
(-124,-384,o),
(-72,-390,o),
(-49,-390,cs),
(208,-390,o),
(364,-270,o),
(414,-33,cs),
(655,1100,l)
);
},
{
closed = 1;
nodes = (
(689,1260,l),
(766,1621,l),
(366,1621,l),
(289,1260,l)
);
}
);
width = 608;
},
{
associatedMasterId = "B1815A28-7A99-448B-912A-F8CD41C6863A";
layerId = "1C1E573C-39A4-4FA7-B54E-DAD03913FDED";
name = "wght=100, italic";
shapes = (
{
closed = 1;
nodes = (
(698,1040,l),
(447,-142,ls),
(423,-254,o),
(320,-311,o),
(141,-312,cs),
(3,-313,o),
(-104,-298,o),
(-177,-267,c),
(-195,-315,l),
(-132,-345,o),
(-22,-360,o),
(133,-360,cs),
(344,-360,o),
(466,-286,o),
(497,-141,cs),
(748,1040,l)
);
},
{
closed = 1;
nodes = (
(815,1304,l),
(830,1374,l),
(760,1374,l),
(745,1304,l)
);
}
);
width = 738;
},
{
associatedMasterId = "B1815A28-7A99-448B-912A-F8CD41C6863A";
layerId = "04BDCAA3-7E10-4072-868D-58800A43E2F9";
name = "Regular, italic";
shapes = (
{
closed = 1;
nodes = (
(686,1040,l),
(450,-67,ls),
(431,-156,o),
(336,-200,o),
(167,-199,cs),
(33,-198,o),
(-74,-186,o),
(-148,-164,c),
(-202,-321,l),
(-86,-347,o),
(35,-360,o),
(161,-360,cs),
(431,-360,o),
(588,-267,o),
(627,-83,cs),
(866,1040,l)
);
},
{
closed = 1;
nodes = (
(916,1230,l),
(958,1427,l),
(756,1427,l),
(714,1230,l)
);
}
);
width = 855;
},
{
associatedMasterId = "B1815A28-7A99-448B-912A-F8CD41C6863A";
background = {
shapes = (
{
closed = 1;
nodes = (
(892,1099,l),
(600,1099,l),
(600,-7,l),
(892,-7,l)
);
},
{
closed = 1;
nodes = (
(770,-367,o),
(892,-241,o),
(892,-7,c),
(600,29,l),
(600,-91,o),
(562,-142,o),
(473,-142,c),
(543,-367,l)
);
},
{
closed = 1;
nodes = (
(463,-142,l),
(463,-367,l),
(545,-367,l),
(545,-142,l)
);
},
{
closed = 1;
nodes = (
(599,1268,l),
(895,1268,l),
(895,1564,l),
(599,1564,l)
);
}
);
};
layerId = "0D58C4F1-387E-400B-B18C-0D263B9CAEE8";
name = "wght=1000, italic";
shapes = (
{
closed = 1;
nodes = (
(681,1100,l),
(463,73,ls),
(441,-28,o),
(347,-79,o),
(183,-79,cs),
(76,-79,o),
(-29,-69,o),
(-131,-50,c),
(-226,-353,l),
(-71,-378,o),
(64,-390,o),
(177,-390,cs),
(567,-390,o),
(794,-250,o),
(853,27,cs),
(1081,1100,l)
);
},
{
closed = 1;
nodes = (
(1115,1260,l),
(1192,1621,l),
(792,1621,l),
(715,1260,l)
);
}
);
width = 1054;
}
);
metricRight = i;
unicode = 106;
},
{
glyphname = jdotless;
kernLeft = j;
kernRight = j;
lastChange = "2025-04-30 03:53:36 +0000";
layers = (
{
anchors = (
{
name = bottom;
pos = (103,-494);
},
{
name = top;
pos = (165,1040);
}
);
layerId = "B1815A28-7A99-448B-912A-F8CD41C6863A";
shapes = (
{
closed = 1;
nodes = (
(139,1040,l),
(139,-222,ls),
(139,-273,o),
(108,-308,o),
(59,-312,cs),
(35,-313,o),
(-13,-311,o),
(-60,-304,c),
(-60,-353,l),
(-25,-358,o),
(24,-360,o),
(61,-360,cs),
(140,-360,o),
(189,-306,o),
(189,-221,cs),
(189,1040,l)
);
}
);
width = 299;
},
{
anchors = (
{
name = bottom;
pos = (79,-494);
},
{
name = top;
pos = (141,1040);
}
);
layerId = "0A7ECE6A-DF67-46D8-8F43-1681A4AD540C";
shapes = (
{
closed = 1;
nodes = (
(49,1039,l),
(49,-135,ls),
(49,-175,o),
(26,-205,o),
(-6,-207,cs),
(-28,-208,o),
(-70,-207,o),
(-109,-204,c),
(-109,-361,l),
(-56,-365,o),
(-1,-368,o),
(22,-368,cs),
(144,-368,o),
(229,-278,o),
(229,-151,cs),
(229,1039,l)
);
}
);
width = 339;
},
{
anchors = (
{
name = bottom;
pos = (295,-494);
},
{
name = top;
pos = (286,1100);
}
);
layerId = "0CA926B8-BF71-483F-A045-F233B587689B";
shapes = (
{
closed = 1;
nodes = (
(78,1101,l),
(78,13,ls),
(78,-44,o),
(44,-80,o),
(-9,-79,cs),
(-30,-79,o),
(-61,-78,o),
(-90,-76,c),
(-90,-383,l),
(9,-387,o),
(79,-390,o),
(91,-390,cs),
(329,-390,o),
(478,-252,o),
(478,-33,cs),
(478,1101,l)
);
}
);
width = 588;
},
{
anchors = (
{
name = bottom;
pos = (-17,-494);
},
{
name = top;
pos = (45,1040);
}
);
layerId = "6871CC57-2503-4E31-BAA0-540E82C15514";
shapes = (
{
closed = 1;
nodes = (
(19,1040,l),
(19,-222,ls),
(19,-273,o),
(-12,-308,o),
(-61,-312,cs),
(-85,-313,o),
(-133,-311,o),
(-180,-304,c),
(-180,-353,l),
(-145,-358,o),
(-96,-360,o),
(-59,-360,cs),
(20,-360,o),
(69,-306,o),
(69,-221,cs),
(69,1040,l)
);
}
);
width = 341;
},
{
anchors = (
{
name = bottom;
pos = (-21,-494);
},
{
name = top;
pos = (41,1040);
}
);
layerId = "0655DA90-B56F-496E-8077-C2A69D96FC98";
shapes = (
{
closed = 1;
nodes = (
(-51,1039,l),
(-51,-135,ls),
(-51,-175,o),
(-74,-205,o),
(-106,-207,cs),
(-128,-208,o),
(-170,-207,o),
(-209,-204,c),
(-209,-361,l),
(-156,-365,o),
(-101,-368,o),
(-78,-368,cs),
(44,-368,o),
(129,-278,o),
(129,-151,cs),
(129,1039,l)
);
}
);
width = 388;
},
{
anchors = (
{
name = bottom;
pos = (229,-494);
},
{
name = top;
pos = (220,1100);
}
);
layerId = "F66262BA-5A1D-44F4-BFD7-97C08A9A14E5";
shapes = (
{
closed = 1;
nodes = (
(12,1101,l),
(12,13,ls),
(12,-44,o),
(-22,-80,o),
(-75,-79,cs),
(-96,-79,o),
(-127,-78,o),
(-156,-76,c),
(-156,-383,l),
(-57,-387,o),
(13,-390,o),
(25,-390,cs),
(263,-390,o),
(412,-252,o),
(412,-33,cs),
(412,1101,l)
);
}
);
width = 656;
},
{
anchors = (
{
name = bottom;
pos = (543,-494);
},
{
name = top;
pos = (605,1040);
}
);
associatedMasterId = "B1815A28-7A99-448B-912A-F8CD41C6863A";
layerId = "7DE7BCF3-949C-447B-AD0C-92B59DF47754";
name = "wght=100";
shapes = (
{
closed = 1;
nodes = (
(585,1040,l),
(585,-142,ls),
(585,-254,o),
(494,-311,o),
(315,-312,cs),
(177,-313,o),
(67,-298,o),
(-12,-267,c),
(-20,-315,l),
(49,-345,o),
(162,-360,o),
(317,-360,cs),
(528,-360,o),
(635,-286,o),
(635,-141,cs),
(635,1040,l)
);
}
);
width = 725;
},
{
anchors = (
{
name = bottom;
pos = (598,-494);
},
{
name = top;
pos = (660,1040);
}
);
associatedMasterId = "B1815A28-7A99-448B-912A-F8CD41C6863A";
layerId = "FDFC085D-FF36-47B0-851A-BD8C879DF7C5";
name = Regular;
shapes = (
{
closed = 1;
nodes = (
(578,1040,l),
(578,-67,ls),
(578,-156,o),
(492,-200,o),
(323,-199,cs),
(188,-198,o),
(79,-186,o),
(0,-164,c),
(-20,-321,l),
(101,-347,o),
(225,-360,o),
(351,-360,cs),
(621,-360,o),
(758,-267,o),
(758,-83,cs),
(758,1040,l)
);
}
);
width = 848;
},
{
anchors = (
{
name = bottom;
pos = (805,-494);
},
{
name = top;
pos = (796,1100);
}
);
associatedMasterId = "B1815A28-7A99-448B-912A-F8CD41C6863A";
layerId = "CE5E8762-3CE4-4341-91B1-15078C500EF8";
name = "wght=1000";
shapes = (
{
closed = 1;
nodes = (
(578,1100,l),
(578,73,ls),
(578,-28,o),
(495,-79,o),
(331,-79,cs),
(224,-79,o),
(116,-69,o),
(10,-50,c),
(-20,-353,l),
(140,-378,o),
(278,-390,o),
(391,-390,cs),
(781,-390,o),
(978,-250,o),
(978,27,cs),
(978,1100,l)
);
}
);
width = 1068;
},
{
anchors = (
{
name = bottom;
pos = (-62,-494);
},
{
name = top;
pos = (326,1040);
}
);
associatedMasterId = "B1815A28-7A99-448B-912A-F8CD41C6863A";
layerId = "300C17E3-EA06-401F-867C-8F69B2DA68B5";
name = "wght=100, italic";
shapes = (
{
closed = 1;
nodes = (
(300,1040,l),
(32,-222,ls),
(21,-273,o),
(-18,-308,o),
(-68,-312,cs),
(-92,-313,o),
(-139,-311,o),
(-185,-304,c),
(-195,-353,l),
(-161,-358,o),
(-113,-360,o),
(-76,-360,cs),
(3,-360,o),
(64,-306,o),
(82,-221,cs),
(350,1040,l)
);
}
);
width = 330;
},
{
anchors = (
{
name = bottom;
pos = (-37,-494);
},
{
name = top;
pos = (351,1040);
}
);
associatedMasterId = "B1815A28-7A99-448B-912A-F8CD41C6863A";
layerId = "EF892781-9B06-4D01-A3EC-01AF347AD647";
name = "Regular, italic";
shapes = (
{
closed = 1;
nodes = (
(259,1039,l),
(9,-135,ls),
(0,-175,o),
(-29,-205,o),
(-61,-207,cs),
(-84,-208,o),
(-125,-207,o),
(-164,-204,c),
(-197,-361,l),
(-145,-365,o),
(-91,-368,o),
(-68,-368,cs),
(54,-368,o),
(159,-278,o),
(186,-151,cs),
(439,1039,l)
);
}
);
width = 409;
},
{
anchors = (
{
name = bottom;
pos = (153,-494);
},
{
name = top;
pos = (483,1100);
}
);
associatedMasterId = "B1815A28-7A99-448B-912A-F8CD41C6863A";
layerId = "77632039-C6CA-48A4-B25B-65842203997B";
name = "wght=1000, italic";
shapes = (
{
closed = 1;
nodes = (
(275,1101,l),
(44,13,ls),
(32,-44,o),
(-10,-80,o),
(-62,-79,cs),
(-83,-79,o),
(-114,-78,o),
(-143,-76,c),
(-208,-383,l),
(-110,-387,o),
(-40,-390,o),
(-28,-390,cs),
(210,-390,o),
(388,-252,o),
(434,-33,cs),
(675,1101,l)
);
}
);
width = 628;
},
{
anchors = (
{
name = bottom;
pos = (330,-494);
},
{
name = top;
pos = (718,1040);
}
);
associatedMasterId = "B1815A28-7A99-448B-912A-F8CD41C6863A";
layerId = "1C1E573C-39A4-4FA7-B54E-DAD03913FDED";
name = "wght=100, italic";
shapes = (
{
closed = 1;
nodes = (
(698,1040,l),
(447,-142,ls),
(423,-254,o),
(320,-311,o),
(140,-312,cs),
(2,-313,o),
(-105,-298,o),
(-177,-267,c),
(-195,-315,l),
(-133,-345,o),
(-23,-360,o),
(132,-360,cs),
(343,-360,o),
(466,-286,o),
(497,-141,cs),
(748,1040,l)
);
}
);
width = 727;
},
{
anchors = (
{
name = bottom;
pos = (379,-494);
},
{
name = top;
pos = (767,1040);
}
);
associatedMasterId = "B1815A28-7A99-448B-912A-F8CD41C6863A";
layerId = "04BDCAA3-7E10-4072-868D-58800A43E2F9";
name = "Regular, italic";
shapes = (
{
closed = 1;
nodes = (
(685,1040,l),
(449,-67,ls),
(431,-156,o),
(335,-200,o),
(166,-199,cs),
(32,-198,o),
(-75,-186,o),
(-149,-164,c),
(-202,-321,l),
(-87,-347,o),
(34,-360,o),
(160,-360,cs),
(430,-360,o),
(587,-267,o),
(626,-83,cs),
(865,1040,l)
);
}
);
width = 844;
},
{
anchors = (
{
name = bottom;
pos = (569,-494);
},
{
name = top;
pos = (898,1100);
}
);
associatedMasterId = "B1815A28-7A99-448B-912A-F8CD41C6863A";
layerId = "0D58C4F1-387E-400B-B18C-0D263B9CAEE8";
name = "wght=1000, italic";
shapes = (
{
closed = 1;
nodes = (
(680,1100,l),
(462,73,ls),
(441,-28,o),
(347,-79,o),
(183,-79,cs),
(76,-79,o),
(-30,-69,o),
(-132,-50,c),
(-226,-353,l),
(-72,-378,o),
(64,-390,o),
(177,-390,cs),
(567,-390,o),
(793,-250,o),
(852,27,cs),
(1080,1100,l)
);
}
);
width = 1053;
}
);
metricLeft = j;
metricRight = j;
unicode = 567;
},
{
glyphname = k;
kernLeft = sflat;
kernRight = k;
lastChange = "2025-05-09 07:45:02 +0000";
layers = (
{
anchors = (
{
name = bottom;
pos = (405,0);
},
{
name = hookup;
pos = (114,1443);
},
{
name = top;
pos = (116,1443);
}
);
layerId = "B1815A28-7A99-448B-912A-F8CD41C6863A";
shapes = (
{
closed = 1;
nodes = (
(258,518,l),
(860,1040,l),
(788,1040,l),
(238,566,l),
(126,566,l),
(126,518,l)
);
},
{
closed = 1;
nodes = (
(140,0,l),
(140,1443,l),
(90,1443,l),
(90,0,l)
);
},
{
closed = 1;
nodes = (
(878,1,l),
(264,561,l),
(227,529,l),
(807,1,l)
);
}
);
width = 878;
},
{
anchors = (
{
name = bottom;
pos = (461,0);
},
{
name = hookup;
pos = (180,1443);
},
{
name = top;
pos = (185,1443);
}
);
layerId = "0A7ECE6A-DF67-46D8-8F43-1681A4AD540C";
shapes = (
{
closed = 1;
nodes = (
(404,446,l),
(965,1040,l),
(728,1040,l),
(314,606,l),
(232,606,l),
(232,446,l)
);
},
{
closed = 1;
nodes = (
(270,0,l),
(270,1443,l),
(90,1443,l),
(90,0,l)
);
},
{
closed = 1;
nodes = (
(972,0,l),
(453,619,l),
(328,492,l),
(743,0,l)
);
}
);
width = 972;
},
{
anchors = (
{
name = bottom;
pos = (612,0);
},
{
name = hookup;
pos = (287,1443);
},
{
name = top;
pos = (288,1443);
}
);
layerId = "0CA926B8-BF71-483F-A045-F233B587689B";
shapes = (
{
closed = 1;
nodes = (
(704,391,l),
(1275,1100,l),
(818,1100,l),
(524,719,l),
(416,719,l),
(416,391,l)
);
},
{
closed = 1;
nodes = (
(490,0,l),
(490,1443,l),
(90,1443,l),
(90,0,l)
);
},
{
closed = 1;
nodes = (
(1283,0,l),
(830,658,l),
(547,452,l),
(830,0,l)
);
}
);
width = 1283;
},
{
anchors = (
{
name = bottom;
pos = (344,0);
},
{
name = hookup;
pos = (377,1520);
},
{
name = top;
pos = (379,1520);
}
);
layerId = "6871CC57-2503-4E31-BAA0-540E82C15514";
shapes = (
{
closed = 1;
nodes = (
(314,518,l),
(997,1040,l),
(919,1040,l),
(298,566,l),
(186,566,l),
(176,518,l)
);
},
{
closed = 1;
nodes = (
(79,0,l),
(403,1520,l),
(353,1520,l),
(29,0,l)
);
},
{
closed = 1;
nodes = (
(788,1,l),
(323,561,l),
(286,529,l),
(724,1,l)
);
}
);
width = 898;
},
{
anchors = (
{
name = bottom;
pos = (400,0);
},
{
name = hookup;
pos = (443,1520);
},
{
name = top;
pos = (448,1521);
}
);
layerId = "0655DA90-B56F-496E-8077-C2A69D96FC98";
shapes = (
{
closed = 1;
nodes = (
(458,446,l),
(1116,1040,l),
(869,1040,l),
(392,606,l),
(300,606,l),
(266,446,l)
);
},
{
closed = 1;
nodes = (
(209,0,l),
(533,1520,l),
(353,1520,l),
(29,0,l)
);
},
{
closed = 1;
nodes = (
(891,0,l),
(504,619,l),
(392,492,l),
(682,0,l)
);
}
);
width = 1005;
},
{
anchors = (
{
name = bottom;
pos = (545,0);
},
{
name = hookup;
pos = (544,1520);
},
{
name = top;
pos = (545,1520);
}
);
layerId = "F66262BA-5A1D-44F4-BFD7-97C08A9A14E5";
shapes = (
{
closed = 1;
nodes = (
(751,391,l),
(1452,1100,l),
(965,1100,l),
(610,719,l),
(502,719,l),
(433,391,l)
);
},
{
closed = 1;
nodes = (
(423,0,l),
(747,1520,l),
(347,1520,l),
(23,0,l)
);
},
{
closed = 1;
nodes = (
(1196,0,l),
(903,658,l),
(607,452,l),
(773,0,l)
);
}
);
width = 1335;
}
);
metricLeft = h;
metricRight = A;
unicode = 107;
},
{
glyphname = l;
kernLeft = l;
kernRight = l;
lastChange = "2025-04-30 13:16:53 +0000";
layers = (
{
anchors = (
{
name = bottom;
pos = (277,-20);
},
{
name = top;
pos = (128,1443);
},
{
name = topright;
pos = (424,1442);
}
);
layerId = "B1815A28-7A99-448B-912A-F8CD41C6863A";
shapes = (
{
closed = 1;
nodes = (
(100,180,ls),
(100,61,o),
(179,-19,o),
(298,-19,cs),
(365,-19,o),
(439,6,o),
(482,44,c),
(482,92,l),
(420,52,o),
(348,27,o),
(300,29,cs),
(210,32,o),
(150,92,o),
(150,179,cs),
(150,1443,l),
(100,1443,l)
);
}
);
width = 532;
},
{
anchors = (
{
name = bottom;
pos = (296,-20);
},
{
name = top;
pos = (191,1443);
},
{
name = topright;
pos = (494,1443);
}
);
background = {
shapes = (
{
closed = 1;
nodes = (
(100,179,ls),
(100,58,o),
(172,-18,o),
(287,-18,cs),
(324,-18,o),
(382,-14,o),
(438,-6,c),
(418,151,l),
(383,144,o),
(351,142,o),
(335,143,cs),
(301,145,o),
(280,165,o),
(280,195,cs),
(280,1443,l),
(100,1443,l)
);
}
);
};
layerId = "0A7ECE6A-DF67-46D8-8F43-1681A4AD540C";
shapes = (
{
closed = 1;
nodes = (
(100,199,ls),
(100,69,o),
(191,-18,o),
(327,-18,cs),
(398,-18,o),
(477,-8,o),
(514,7,c),
(514,164,l),
(467,150,o),
(414,142,o),
(371,143,cs),
(316,146,o),
(280,179,o),
(280,225,cs),
(280,1443,l),
(100,1443,l)
);
}
);
width = 564;
},
{
anchors = (
{
name = bottom;
pos = (443,-30);
},
{
name = top;
pos = (298,1443);
},
{
name = topright;
pos = (777,1443);
}
);
layerId = "0CA926B8-BF71-483F-A045-F233B587689B";
shapes = (
{
closed = 1;
nodes = (
(100,274,ls),
(100,88,o),
(239,-36,o),
(447,-36,cs),
(545,-36,o),
(669,-20,o),
(757,4,c),
(757,307,l),
(706,290,o),
(642,278,o),
(597,278,cs),
(539,278,o),
(500,315,o),
(500,370,cs),
(500,1443,l),
(100,1443,l)
);
}
);
width = 797;
},
{
anchors = (
{
name = bottom;
pos = (162,-20);
},
{
name = top;
pos = (352,1444);
},
{
name = topright;
pos = (619,1443);
}
);
layerId = "6871CC57-2503-4E31-BAA0-540E82C15514";
shapes = (
{
closed = 1;
nodes = (
(28,180,ls),
(3,61,o),
(65,-19,o),
(184,-19,cs),
(251,-19,o),
(330,6,o),
(381,44,c),
(391,92,l),
(321,52,o),
(243,27,o),
(196,29,cs),
(106,32,o),
(60,92,o),
(78,179,cs),
(346,1444,l),
(296,1444,l)
);
}
);
width = 532;
},
{
anchors = (
{
name = bottom;
pos = (182,-20);
},
{
name = top;
pos = (387,1443);
},
{
name = topright;
pos = (689,1442);
}
);
background = {
shapes = (
{
closed = 1;
nodes = (
(412,179,ls),
(412,58,o),
(484,-18,o),
(599,-18,cs),
(636,-18,o),
(694,-14,o),
(750,-6,c),
(730,151,l),
(695,144,o),
(663,142,o),
(647,143,cs),
(613,145,o),
(592,165,o),
(592,195,cs),
(592,1443,l),
(412,1443,l)
);
}
);
};
layerId = "0655DA90-B56F-496E-8077-C2A69D96FC98";
shapes = (
{
closed = 1;
nodes = (
(33,199,ls),
(5,69,o),
(78,-18,o),
(214,-18,cs),
(285,-18,o),
(366,-8,o),
(406,7,c),
(439,164,l),
(389,150,o),
(335,142,o),
(292,143,cs),
(238,146,o),
(208,179,o),
(218,225,cs),
(476,1443,l),
(296,1443,l)
);
}
);
width = 565;
},
{
anchors = (
{
name = bottom;
pos = (319,-30);
},
{
name = top;
pos = (489,1443);
},
{
name = topright;
pos = (968,1443);
}
);
layerId = "F66262BA-5A1D-44F4-BFD7-97C08A9A14E5";
shapes = (
{
closed = 1;
nodes = (
(41,274,ls),
(1,88,o),
(114,-36,o),
(322,-36,cs),
(420,-36,o),
(547,-20,o),
(640,4,c),
(705,307,l),
(650,290,o),
(583,278,o),
(538,278,cs),
(480,278,o),
(449,315,o),
(461,370,cs),
(691,1443,l),
(291,1443,l)
);
}
);
width = 797;
},
{
anchors = (
{
name = bottom;
pos = (447,-20);
},
{
name = center;
pos = (227,975);
},
{
name = top;
pos = (126,1520);
},
{
name = topright;
pos = (519,1950);
}
);
associatedMasterId = "B1815A28-7A99-448B-912A-F8CD41C6863A";
layerId = "7DE7BCF3-949C-447B-AD0C-92B59DF47754";
name = "wght=100";
shapes = (
{
closed = 1;
nodes = (
(100,230,ls),
(100,72,o),
(234,-19,o),
(468,-19,cs),
(582,-19,o),
(706,0,o),
(809,34,c),
(795,82,l),
(668,43,o),
(550,24,o),
(470,29,cs),
(267,35,o),
(150,108,o),
(150,229,cs),
(150,1520,l),
(100,1520,l)
);
}
);
width = 829;
},
{
anchors = (
{
name = bottom;
pos = (496,-20);
},
{
name = center;
pos = (296,975);
},
{
name = top;
pos = (191,1520);
},
{
name = topright;
pos = (588,1950);
}
);
associatedMasterId = "B1815A28-7A99-448B-912A-F8CD41C6863A";
background = {
shapes = (
{
closed = 1;
nodes = (
(100,179,ls),
(100,58,o),
(172,-18,o),
(287,-18,cs),
(324,-18,o),
(382,-14,o),
(438,-6,c),
(418,151,l),
(383,144,o),
(351,142,o),
(335,143,cs),
(301,145,o),
(280,165,o),
(280,195,cs),
(280,1443,l),
(100,1443,l)
);
}
);
};
layerId = "FDFC085D-FF36-47B0-851A-BD8C879DF7C5";
name = Regular;
shapes = (
{
closed = 1;
nodes = (
(100,279,ls),
(100,90,o),
(259,-18,o),
(537,-18,cs),
(638,-18,o),
(769,-2,o),
(895,27,c),
(873,184,l),
(802,159,o),
(681,145,o),
(541,145,cs),
(375,145,o),
(280,196,o),
(280,285,cs),
(280,1520,l),
(100,1520,l)
);
}
);
width = 915;
},
{
anchors = (
{
name = bottom;
pos = (643,-30);
},
{
name = center;
pos = (443,975);
},
{
name = top;
pos = (298,1520);
},
{
name = topright;
pos = (813,1950);
}
);
associatedMasterId = "B1815A28-7A99-448B-912A-F8CD41C6863A";
layerId = "CE5E8762-3CE4-4341-91B1-15078C500EF8";
name = "wght=1000";
shapes = (
{
closed = 1;
nodes = (
(100,424,ls),
(100,132,o),
(321,-36,o),
(707,-36,cs),
(822,-36,o),
(961,-14,o),
(1088,24,c),
(1066,327,l),
(960,296,o),
(852,278,o),
(767,278,cs),
(597,278,o),
(500,337,o),
(500,440,cs),
(500,1520,l),
(100,1520,l)
);
}
);
width = 1108;
},
{
anchors = (
{
name = bottom;
pos = (72,-20);
},
{
name = center;
pos = (294,975);
},
{
name = top;
pos = (309,1520);
},
{
name = topright;
pos = (793,1950);
}
);
associatedMasterId = "B1815A28-7A99-448B-912A-F8CD41C6863A";
layerId = "300C17E3-EA06-401F-867C-8F69B2DA68B5";
name = "wght=100, italic";
shapes = (
{
closed = 1;
nodes = (
(-17,110,ls),
(-35,24,o),
(-2,-19,o),
(83,-19,cs),
(107,-19,o),
(136,-16,o),
(167,-9,c),
(163,39,l),
(138,32,o),
(116,29,o),
(96,29,cs),
(43,30,o),
(22,57,o),
(33,109,cs),
(333,1520,l),
(283,1520,l)
);
}
);
width = 319;
},
{
anchors = (
{
name = bottom;
pos = (102,-20);
},
{
name = center;
pos = (364,975);
},
{
name = top;
pos = (374,1520);
},
{
name = topright;
pos = (863,1950);
}
);
associatedMasterId = "B1815A28-7A99-448B-912A-F8CD41C6863A";
background = {
shapes = (
{
closed = 1;
nodes = (
(120,179,ls),
(120,58,o),
(192,-18,o),
(307,-18,cs),
(344,-18,o),
(402,-14,o),
(458,-6,c),
(438,151,l),
(403,144,o),
(371,142,o),
(355,143,cs),
(321,145,o),
(300,165,o),
(300,195,cs),
(300,1443,l),
(120,1443,l)
);
}
);
};
layerId = "EF892781-9B06-4D01-A3EC-01AF347AD647";
name = "Regular, italic";
shapes = (
{
closed = 1;
nodes = (
(-2,179,ls),
(-29,48,o),
(16,-18,o),
(134,-18,cs),
(158,-18,o),
(187,-16,o),
(223,-13,c),
(244,144,l),
(235,143,o),
(225,143,o),
(212,143,cs),
(185,145,o),
(174,159,o),
(180,185,cs),
(463,1520,l),
(283,1520,l)
);
}
);
width = 376;
},
{
anchors = (
{
name = bottom;
pos = (210,-30);
},
{
name = center;
pos = (504,975);
},
{
name = top;
pos = (474,1520);
},
{
name = topright;
pos = (1081,1950);
}
);
associatedMasterId = "B1815A28-7A99-448B-912A-F8CD41C6863A";
layerId = "77632039-C6CA-48A4-B25B-65842203997B";
name = "wght=1000, italic";
shapes = (
{
closed = 1;
nodes = (
(20,314,ls),
(-34,61,o),
(34,-36,o),
(263,-36,cs),
(288,-36,o),
(343,-30,o),
(458,-16,c),
(499,283,l),
(484,279,o),
(469,278,o),
(449,278,cs),
(422,278,o),
(417,301,o),
(430,360,cs),
(676,1520,l),
(276,1520,l)
);
}
);
width = 618;
},
{
anchors = (
{
name = bottom;
pos = (332,-20);
},
{
name = center;
pos = (324,975);
},
{
name = top;
pos = (339,1520);
},
{
name = topright;
pos = (823,1950);
}
);
associatedMasterId = "B1815A28-7A99-448B-912A-F8CD41C6863A";
layerId = "1C1E573C-39A4-4FA7-B54E-DAD03913FDED";
name = "wght=100, italic";
shapes = (
{
closed = 1;
nodes = (
(38,230,ls),
(4,72,o),
(119,-19,o),
(353,-19,cs),
(467,-19,o),
(596,0,o),
(706,34,c),
(702,82,l),
(565,42,o),
(431,23,o),
(336,29,cs),
(152,34,o),
(62,107,o),
(88,229,cs),
(363,1520,l),
(313,1520,l)
);
}
);
width = 869;
},
{
anchors = (
{
name = bottom;
pos = (382,-20);
},
{
name = center;
pos = (394,975);
},
{
name = top;
pos = (404,1520);
},
{
name = topright;
pos = (893,1950);
}
);
associatedMasterId = "B1815A28-7A99-448B-912A-F8CD41C6863A";
background = {
shapes = (
{
closed = 1;
nodes = (
(150,179,ls),
(150,58,o),
(222,-18,o),
(337,-18,cs),
(374,-18,o),
(432,-14,o),
(488,-6,c),
(468,151,l),
(433,144,o),
(401,142,o),
(385,143,cs),
(351,145,o),
(330,165,o),
(330,195,cs),
(330,1443,l),
(150,1443,l)
);
}
);
};
layerId = "04BDCAA3-7E10-4072-868D-58800A43E2F9";
name = "Regular, italic";
shapes = (
{
closed = 1;
nodes = (
(50,279,ls),
(10,90,o),
(146,-18,o),
(424,-18,cs),
(527,-18,o),
(661,-2,o),
(791,27,c),
(802,184,l),
(727,159,o),
(592,145,o),
(432,145,cs),
(285,145,o),
(212,196,o),
(231,285,cs),
(493,1520,l),
(313,1520,l)
);
}
);
width = 956;
},
{
anchors = (
{
name = bottom;
pos = (520,-30);
},
{
name = center;
pos = (534,975);
},
{
name = top;
pos = (504,1520);
},
{
name = topright;
pos = (1111,1950);
}
);
associatedMasterId = "B1815A28-7A99-448B-912A-F8CD41C6863A";
layerId = "0D58C4F1-387E-400B-B18C-0D263B9CAEE8";
name = "wght=1000, italic";
shapes = (
{
closed = 1;
nodes = (
(73,424,ls),
(11,132,o),
(197,-36,o),
(583,-36,cs),
(697,-36,o),
(840,-14,o),
(976,24,c),
(1019,327,l),
(905,296,o),
(774,278,o),
(659,278,cs),
(521,278,o),
(455,337,o),
(477,440,cs),
(706,1520,l),
(306,1520,l)
);
}
);
width = 1148;
}
);
metricLeft = H;
unicode = 108;
},
